{
.appVersion = "930";
copyright = "Copyright 2010 The Neuton Project Authors (http://www.21326.info/), with Reserved Font Name \"Neuton\".";
customParameters = (
{
name = licenseURL;
value = "http://scripts.sil.org/OFL";
},
{
name = vendorID;
value = PfEd;
},
{
name = fsType;
value = (
);
},
{
name = note;
value = "Neuton is a dark, dutch-inspired, compact text serif, intended for use on screen. Neuton is Brian Zick's debut font, and includes text figures, an extended character set, and smooth, readable forms. Neuton works well in any size, as well as in print.";
},
{
name = "Use Typo Metrics";
value = 1;
},
{
name = license;
value = "This Font Software is licensed under the SIL Open Font License, Version 1.1. This license is available with a FAQ at: http://scripts.sil.org/OFL";
}
);
date = "2011-08-19 15:50:08 +0000";
designer = "Brian M Zick";
designerURL = "http://www.21326.info/";
disablesAutomaticAlignment = 1;
disablesNiceNames = 1;
familyName = Neuton;
featurePrefixes = (
{
automatic = 1;
code = "languagesystem DFLT dflt;\012";
name = Languagesystems;
}
);
features = (
{
automatic = 1;
code = "feature frac;\012feature ordn;\012feature lnum;\012feature onum;\012feature c2sc;\012feature smcp;\012";
name = aalt;
},
{
automatic = 1;
code = "sub one slash four by onequarter;\012sub one slash two by onehalf;\012sub three slash four by threequarters;\012";
name = frac;
},
{
automatic = 1;
code = "sub [zero one two three four five six seven eight nine] [A a]' by ordfeminine;\012sub [zero one two three four five six seven eight nine] [O o]' by ordmasculine;\012";
name = ordn;
},
{
automatic = 1;

glyphs = (
{
color = 4;
glyphname = A;
lastChange = "2016-09-14 15:00:45 +0000";
layers = (
{
layerId = "F2FC958C-67D2-45D4-A67F-FC49D9225D80";
paths = (
{
closed = 1;
nodes = (
"984 1268 LINE",
"1203 124 LINE",
"1332 81 LINE",
"1310 0 LINE",
"795 0 LINE",
"818 74 LINE",
"1000 129 LINE",
"937 433 LINE",
"518 433 LINE",
"359 124 LINE",
"537 81 LINE",
"513 0 LINE",
"44 0 LINE",
"65 74 LINE",
"224 129 LINE",
"827 1237 LINE"
);
},
{
closed = 1;
nodes = (
"570 533 LINE",
"922 533 LINE",
"836 1034 LINE"
);
}
);
width = 1379;
}
);
unicode = 0041;
},
{
color = 4;
glyphname = AE;
lastChange = "2016-09-14 15:00:45 +0000";
layers = (
{
layerId = "F2FC958C-67D2-45D4-A67F-FC49D9225D80";
paths = (
{
closed = 1;
nodes = (
"44 1 LINE",
"65 76 LINE",
"210 131 LINE",
"1000 1126 LINE",
"793 1168 LINE",
"815 1244 LINE",
"1877 1244 LINE",
"1795 927 LINE",
"1711 940 LINE",
"1702 1152 LINE",
"1264 1152 LINE",
"1189 679 LINE",
"1448 679 LINE",
"1510 802 LINE",
"1606 810 LINE",
"1511 424 LINE",
"1424 409 LINE",
"1418 586 LINE",
"1175 586 LINE",
"1097 96 LINE",
"1561 96 LINE",
"1699 329 LINE",
"1776 313 LINE",
"1697 0 LINE",
"726 0 LINE",
"746 74 LINE",
"920 121 LINE",
"976 472 LINE",
"617 472 LINE",
"344 126 LINE",
"525 83 LINE",
"499 1 LINE"
);
},
{
closed = 1;
nodes = (
"684 568 LINE",
"991 568 LINE",
"1068 1058 LINE"
);
}
);
width = 1919;
}
);
unicode = 00C6;
},
{
color = 4;
glyphname = B;
lastChange = "2016-09-14 15:00:45 +0000";
layers = (
{
layerId = "F2FC958C-67D2-45D4-A67F-FC49D9225D80";
paths = (
{
closed = 1;
nodes = (
"742 604 CURVE SMOOTH",
"519 604 LINE",
"430 96 LINE",
"633 96 LINE SMOOTH",
"863 96 OFFCURVE",
"968 240 OFFCURVE",
"968 380 CURVE SMOOTH",
"968 491 OFFCURVE",
"896 604 OFFCURVE"
);
},
{
closed = 1;
nodes = (
"902 680 CURVE",
"900 672 LINE",
"1082 662 OFFCURVE",
"1169 532 OFFCURVE",
"1169 411 CURVE SMOOTH",
"1169 219 OFFCURVE",
"970 0 OFFCURVE",
"527 0 CURVE SMOOTH",
"43 0 LINE",
"66 74 LINE",
"243 121 LINE",
"415 1105 LINE",
"250 1135 LINE",
"273 1211 LINE",
"422 1232 OFFCURVE",
"596 1257 OFFCURVE",
"773 1257 CURVE SMOOTH",
"1052 1257 OFFCURVE",
"1163 1127 OFFCURVE",
"1163 993 CURVE SMOOTH",
"1163 889 OFFCURVE",
"1100 748 OFFCURVE"
);
},
{
closed = 1;
nodes = (
"618 1164 CURVE",
"535 689 LINE",
"743 689 LINE SMOOTH",
"878 689 OFFCURVE",
"965 787 OFFCURVE",
"965 946 CURVE SMOOTH",
"965 1053 OFFCURVE",
"905 1171 OFFCURVE",
"699 1171 CURVE SMOOTH",
"674 1171 OFFCURVE",
"646 1169 OFFCURVE"
);
}
);
width = 1219;
}
);
unicode = 0042;
},
{
color = 4;
glyphname = C;
lastChange = "2016-09-14 15:00:45 +0000";
layers = (
{
layerId = "F2FC958C-67D2-45D4-A67F-FC49D9225D80";
paths = (
{
closed = 1;
nodes = (
"662 106 CURVE SMOOTH",
"778 106 OFFCURVE",
"894 128 OFFCURVE",
"1021 240 CURVE",
"1064 185 LINE",
"912 15 OFFCURVE",
"721 -25 OFFCURVE",
"558 -25 CURVE SMOOTH",
"284 -25 OFFCURVE",
"53 197 OFFCURVE",
"53 535 CURVE SMOOTH",
"53 858 OFFCURVE",
"304 1270 OFFCURVE",
"814 1270 CURVE SMOOTH",
"946 1270 OFFCURVE",
"1064 1222 OFFCURVE",
"1148 1149 CURVE",
"1065 817 LINE",
"981 831 LINE",
"973 1050 LINE",
"937 1109 OFFCURVE",
"867 1174 OFFCURVE",
"738 1174 CURVE SMOOTH",
"498 1174 OFFCURVE",
"276 950 OFFCURVE",
"276 575 CURVE SMOOTH",
"276 268 OFFCURVE",
"451 106 OFFCURVE"
);
}
);
width = 1190;
}
);
unicode = 0043;
},
{
color = 4;
glyphname = Ccaron;
lastChange = "2016-09-14 15:00:45 +0000";
layers = (
{
layerId = "F2FC958C-67D2-45D4-A67F-FC49D9225D80";
paths = (
{
closed = 1;
nodes = (
"154.288 589 CURVE SMOOTH",
"201.012 884 OFFCURVE",
"446.99 1269 OFFCURVE",
"904.99 1269 CURVE SMOOTH",
"1036.99 1269 OFFCURVE",
"1166.71 1242 OFFCURVE",
"1251.15 1169 CURVE",
"1167.57 837 LINE",
"1081.63 850 LINE",
"1074.47 1070 LINE",
"1037.82 1129 OFFCURVE",
"961.943 1174 OFFCURVE",
"832.943 1174 CURVE SMOOTH",
"624.943 1174 OFFCURVE",
"430.217 980 OFFCURVE",
"379.217 658 CURVE SMOOTH",
"322.357 299 OFFCURVE",
"508.581 111 OFFCURVE",
"745.581 111 CURVE SMOOTH",
"879.581 111 OFFCURVE",
"1020.83 182 OFFCURVE",
"1119.34 261 CURVE",
"1142.3 185 LINE",
"1048.1 89 OFFCURVE",
"855.199 -24 OFFCURVE",
"647.199 -24 CURVE SMOOTH",
"340.199 -24 OFFCURVE",
"91.093 190 OFFCURVE"
);
},
{
closed = 1;
nodes = (
"713.854 1527 LINE",
"803.673 1589 LINE",
"929.865 1445 LINE",
"940.865 1445 LINE",
"1086.04 1585 LINE",
"1125.29 1555 LINE",
"923.938 1376 LINE",
"866.562 1361 LINE"
);
}
);
width = 1153;
}
);
unicode = 010C;
userData = {
com.fontlab.hintData = {
hhints = (
{
position = -24;
width = 135;
},
{
position = 1174;
width = 95;
},
{
position = 1569;
width = 20;
}
);
vhints = (
{
position = 61;
width = 214;
},
{
position = 947;
width = 88;
}
);
};
};
},
{
color = 4;
glyphname = D;
lastChange = "2016-09-14 15:00:45 +0000";
layers = (
{
layerId = "F2FC958C-67D2-45D4-A67F-FC49D9225D80";
paths = (
{
closed = 1;
nodes = (
"601 1149 CURVE",
"436 104 LINE",
"583 104 LINE SMOOTH",
"956 104 OFFCURVE",
"1191 359 OFFCURVE",
"1191 674 CURVE SMOOTH",
"1191 946 OFFCURVE",
"1042 1156 OFFCURVE",
"722 1156 CURVE SMOOTH",
"681 1156 OFFCURVE",
"642 1154 OFFCURVE"
);
},
{
closed = 1;
nodes = (
"1416 758 CURVE SMOOTH",
"1416 375 OFFCURVE",
"1066 0 OFFCURVE",
"524 0 CURVE SMOOTH",
"43 0 LINE",
"68 74 LINE",
"250 129 LINE",
"402 1103 LINE",
"235 1133 LINE",
"256 1209 LINE",
"457 1240 OFFCURVE",
"631 1258 OFFCURVE",
"776 1258 CURVE SMOOTH",
"1257 1258 OFFCURVE",
"1416 1018 OFFCURVE"
);
}
);
width = 1462;
}
);
unicode = 0044;
},
{
color = 4;
glyphname = Eth;
lastChange = "2016-09-14 15:00:45 +0000";
layers = (
{
layerId = "F2FC958C-67D2-45D4-A67F-FC49D9225D80";
paths = (
{
closed = 1;
nodes = (
"137 555 LINE",
"162 647 LINE",
"334 660 LINE",
"404 1104 LINE",
"237 1134 LINE",
"258 1211 LINE",
"460 1242 OFFCURVE",
"634 1260 OFFCURVE",
"779 1260 CURVE SMOOTH",
"1269 1260 OFFCURVE",
"1427 997 OFFCURVE",
"1427 735 CURVE SMOOTH",
"1427 321 OFFCURVE",
"1083 0 OFFCURVE",
"556 0 CURVE SMOOTH",
"43 0 LINE",
"69 74 LINE",
"249 129 LINE",
"319 569 LINE"
);
},
{
closed = 1;
nodes = (
"436 104 LINE",
"648 104 LINE SMOOTH",
"1007 104 OFFCURVE",
"1203 363 OFFCURVE",
"1203 689 CURVE SMOOTH",
"1203 943 OFFCURVE",
"1051 1157 OFFCURVE",
"725 1157 CURVE SMOOTH",
"685 1157 OFFCURVE",
"643 1155 OFFCURVE",
"602 1151 CURVE",
"526 672 LINE",
"788 693 LINE",
"761 602 LINE",
"512 581 LINE"
);
}
);
width = 1473;
}
);
unicode = 00D0;
},
{
color = 4;
glyphname = E;
lastChange = "2016-09-14 15:00:45 +0000";
layers = (
{
layerId = "F2FC958C-67D2-45D4-A67F-FC49D9225D80";
paths = (
{
closed = 1;
nodes = (
"242 1244 LINE",
"1217 1244 LINE",
"1148 925 LINE",
"1064 938 LINE",
"1044 1153 LINE",
"592 1153 LINE",
"519 677 LINE",
"810 677 LINE",
"861 796 LINE",
"957 809 LINE",
"874 421 LINE",
"787 408 LINE",
"780 583 LINE",
"504 583 LINE",
"427 96 LINE",
"934 96 LINE",
"1047 325 LINE",
"1130 314 LINE",
"1069 0 LINE",
"43 0 LINE",
"63 74 LINE",
"238 121 LINE",
"397 1126 LINE",
"220 1168 LINE"
);
}
);
width = 1259;
}
);
unicode = 0045;
},
{
color = 4;
glyphname = Ecaron;
lastChange = "2016-09-14 15:00:45 +0000";
layers = (
{
layerId = "F2FC958C-67D2-45D4-A67F-FC49D9225D80";
paths = (
{
closed = 1;
nodes = (
"234.993 1168 LINE",
"258.03 1244 LINE",
"1253.03 1244 LINE",
"1171.35 924 LINE",
"1086.41 937 LINE",
"1079.46 1152 LINE",
"608.459 1152 LINE",
"533.068 676 LINE",
"823.068 676 LINE",
"884.074 796 LINE",
"981.291 810 LINE",
"885.68 421 LINE",
"798.621 408 LINE",
"792.338 583 LINE",
"518.338 583 LINE",
"441.205 96 LINE",
"936.205 96 LINE",
"1070.63 326 LINE",
"1151.57 313 LINE",
"1072 0 LINE",
"57 0 LINE",
"76.721 74 LINE",
"251.164 121 LINE",
"410.341 1126 LINE"
);
},
{
closed = 1;
nodes = (
"627.854 1527 LINE",
"717.673 1589 LINE",
"843.865 1445 LINE",
"852.865 1445 LINE",
"999.039 1585 LINE",
"1038.29 1555 LINE",
"837.938 1376 LINE",
"780.562 1361 LINE"
);
}
);
width = 1142;
}
);
unicode = 011A;
userData = {
com.fontlab.hintData = {
hhints = (
{
position = 0;
width = 96;
},
{
position = 0;
width = 74;
},
{
position = 583;
width = 93;
},
{
position = 1152;
width = 92;
},
{
position = 1168;
width = 76;
},
{
position = 1569;
width = 20;
}
);
vhints = (
{
position = 232;
width = 194;
},
{
position = 734;
width = 85;
},
{
position = 938;
width = 87;
}
);
};
};
},
{
color = 4;
glyphname = F;
lastChange = "2016-09-14 15:00:45 +0000";
layers = (
{
layerId = "F2FC958C-67D2-45D4-A67F-FC49D9225D80";
paths = (
{
closed = 1;
nodes = (
"242 1244 LINE",
"1236 1244 LINE",
"1167 923 LINE",
"1081 936 LINE",
"1057 1153 LINE",
"592 1153 LINE",
"517 670 LINE",
"805 670 LINE",
"856 791 LINE",
"947 804 LINE",
"872 413 LINE",
"781 398 LINE",
"777 578 LINE",
"502 578 LINE",
"430 122 LINE",
"661 84 LINE",
"635 0 LINE",
"43 0 LINE",
"63 74 LINE",
"238 121 LINE",
"397 1126 LINE",
"220 1168 LINE"
);
}
);
width = 1116;
}
);
unicode = 0046;
},
{
color = 4;
glyphname = G;
lastChange = "2016-09-14 15:00:45 +0000";
layers = (
{
layerId = "F2FC958C-67D2-45D4-A67F-FC49D9225D80";
paths = (
{
closed = 1;
nodes = (
"1236 1163 CURVE",
"1160 841 LINE",
"1074 855 LINE",
"1069 1047 LINE",
"1034 1100 OFFCURVE",
"941 1161 OFFCURVE",
"759 1161 CURVE SMOOTH",
"527 1161 OFFCURVE",
"281 1004 OFFCURVE",
"281 559 CURVE SMOOTH",
"281 298 OFFCURVE",
"407 76 OFFCURVE",
"686 76 CURVE SMOOTH",
"790 76 OFFCURVE",
"848 99 OFFCURVE",
"876 122 CURVE",
"924 434 LINE",
"694 472 LINE",
"719 555 LINE",
"1276 555 LINE",
"1252 481 LINE",
"1120 439 LINE",
"1066 88 LINE",
"954 15 OFFCURVE",
"770 -31 OFFCURVE",
"549 -31 CURVE SMOOTH",
"201 -31 OFFCURVE",
"53 213 OFFCURVE",
"53 489 CURVE SMOOTH",
"53 980 OFFCURVE",
"456 1260 OFFCURVE",
"825 1260 CURVE SMOOTH",
"1018 1260 OFFCURVE",
"1145 1229 OFFCURVE"
);
}
);
width = 1319;
}
);
unicode = 0047;
},
{
color = 4;
glyphname = H;
lastChange = "2016-09-14 15:00:45 +0000";
layers = (
{
layerId = "F2FC958C-67D2-45D4-A67F-FC49D9225D80";
paths = (
{
closed = 1;
nodes = (
"585 0 LINE",
"43 0 LINE",
"63 74 LINE",
"238 121 LINE",
"397 1126 LINE",
"220 1168 LINE",
"242 1244 LINE",
"787 1244 LINE",
"765 1168 LINE",
"592 1130 LINE",
"522 692 LINE",
"1150 692 LINE",
"1219 1126 LINE",
"1041 1168 LINE",
"1064 1244 LINE",
"1609 1244 LINE",
"1586 1168 LINE",
"1414 1130 LINE",
"1254 114 LINE",
"1431 81 LINE",
"1407 0 LINE",
"864 0 LINE",
"887 74 LINE",
"1061 121 LINE",
"1135 590 LINE",
"506 590 LINE",
"431 114 LINE",
"611 81 LINE"
);
}
);
width = 1650;
}
);
unicode = 0048;
},
{
color = 4;
glyphname = I;
lastChange = "2016-09-14 15:00:45 +0000";
layers = (
{
layerId = "F2FC958C-67D2-45D4-A67F-FC49D9225D80";
paths = (
{
closed = 1;
nodes = (
"583 0 LINE",
"43 0 LINE",
"63 74 LINE",
"238 121 LINE",
"397 1126 LINE",
"220 1168 LINE",
"242 1244 LINE",
"787 1244 LINE",
"765 1168 LINE",
"590 1130 LINE",
"430 114 LINE",
"607 81 LINE"
);
}
);
width = 828;
}
);
unicode = 0049;
},
{
color = 4;
glyphname = J;
lastChange = "2016-09-14 15:00:45 +0000";
layers = (
{
layerId = "F2FC958C-67D2-45D4-A67F-FC49D9225D80";
paths = (
{
closed = 1;
nodes = (
"84 -325 CURVE",
"67 -302 OFFCURVE",
"50 -269 OFFCURVE",
"42 -238 CURVE",
"220 -91 OFFCURVE",
"321 37 OFFCURVE",
"346 197 CURVE SMOOTH",
"495 1126 LINE",
"320 1168 LINE",
"340 1244 LINE",
"885 1244 LINE",
"865 1168 LINE",
"690 1130 LINE",
"562 318 LINE SMOOTH",
"506 -37 OFFCURVE",
"401 -137 OFFCURVE"
);
}
);
width = 927;
}
);
unicode = 004A;
},
{
color = 4;
glyphname = K;
lastChange = "2016-09-14 15:00:45 +0000";
layers = (
{
layerId = "F2FC958C-67D2-45D4-A67F-FC49D9225D80";
paths = (
{
closed = 1;
nodes = (
"747 261 CURVE SMOOTH",
"612 509 LINE",
"612 509 OFFCURVE",
"568 579 OFFCURVE",
"543 604 CURVE",
"547 629 LINE",
"583 654 OFFCURVE",
"635 696 OFFCURVE",
"675 737 CURVE SMOOTH",
"1030 1121 LINE",
"874 1168 LINE",
"894 1244 LINE",
"1391 1244 LINE",
"1368 1168 LINE",
"1185 1121 LINE",
"731 644 LINE",
"914 378 LINE SMOOTH",
"1035 202 OFFCURVE",
"1105 123 OFFCURVE",
"1226 83 CURVE SMOOTH",
"1261 71 LINE",
"1239 2 LINE",
"1191 -15 OFFCURVE",
"1147 -21 OFFCURVE",
"1106 -21 CURVE SMOOTH",
"939 -21 OFFCURVE",
"835 102 OFFCURVE"
);
},
{
closed = 1;
nodes = (
"440 124 LINE",
"622 81 LINE",
"597 0 LINE",
"44 0 LINE",
"65 74 LINE",
"247 129 LINE",
"402 1118 LINE",
"220 1168 LINE",
"245 1244 LINE",
"795 1244 LINE",
"774 1168 LINE",
"595 1121 LINE"
);
}
);
width = 1387;
}
);
unicode = 004B;
},
{
color = 4;
glyphname = L;
lastChange = "2016-09-14 15:00:45 +0000";
layers = (
{
layerId = "F2FC958C-67D2-45D4-A67F-FC49D9225D80";
paths = (
{
closed = 1;
nodes = (
"788 1244 LINE",
"766 1168 LINE",
"588 1121 LINE",
"426 96 LINE",
"879 96 LINE",
"1017 344 LINE",
"1101 330 LINE",
"1042 0 LINE",
"43 0 LINE",
"63 74 LINE",
"238 121 LINE",
"395 1118 LINE",
"213 1168 LINE",
"238 1244 LINE"
);
}
);
width = 1149;
}
);
unicode = 004C;
},
{
color = 4;
glyphname = M;
lastChange = "2016-09-14 15:00:45 +0000";
layers = (
{
layerId = "F2FC958C-67D2-45D4-A67F-FC49D9225D80";
paths = (
{
closed = 1;
nodes = (
"766 31 LINE",
"528 966 LINE",
"370 114 LINE",
"550 81 LINE",
"523 0 LINE",
"43 0 LINE",
"66 74 LINE",
"241 121 LINE",
"432 1126 LINE",
"254 1168 LINE",
"277 1244 LINE",
"670 1244 LINE",
"726 1050 LINE",
"901 310 LINE",
"1292 1083 LINE",
"1391 1244 LINE",
"1791 1244 LINE",
"1770 1168 LINE",
"1596 1130 LINE",
"1529 114 LINE",
"1706 81 LINE",
"1682 0 LINE",
"1147 0 LINE",
"1171 74 LINE",
"1344 121 LINE",
"1385 1004 LINE",
"893 51 LINE"
);
}
);
width = 1832;
}
);
unicode = 004D;
},
{
color = 4;
glyphname = N;
lastChange = "2016-09-14 15:00:45 +0000";
layers = (
{
layerId = "F2FC958C-67D2-45D4-A67F-FC49D9225D80";
paths = (
{
closed = 1;
nodes = (
"1004 -30 LINE",
"499 961 LINE",
"365 114 LINE",
"543 81 LINE",
"520 0 LINE",
"44 0 LINE",
"64 74 LINE",
"239 121 LINE",
"396 1118 LINE",
"221 1168 LINE",
"243 1244 LINE",
"591 1244 LINE",
"1085 262 LINE",
"1220 1126 LINE",
"1040 1168 LINE",
"1063 1244 LINE",
"1539 1244 LINE",
"1514 1168 LINE",
"1342 1130 LINE",
"1164 2 LINE"
);
}
);
width = 1580;
}
);
unicode = 004E;
},
{
color = 4;
glyphname = O;
lastChange = "2016-09-14 15:00:45 +0000";
layers = (
{
layerId = "F2FC958C-67D2-45D4-A67F-FC49D9225D80";
paths = (
{
closed = 1;
nodes = (
"737 1176 CURVE SMOOTH",
"321 1176 OFFCURVE",
"283 800 OFFCURVE",
"283 547 CURVE SMOOTH",
"283 314 OFFCURVE",
"386 79 OFFCURVE",
"614 79 CURVE SMOOTH",
"1025 79 OFFCURVE",
"1073 467 OFFCURVE",
"1073 693 CURVE SMOOTH",
"1073 924 OFFCURVE",
"967 1176 OFFCURVE"
);
},
{
closed = 1;
nodes = (
"1297 725 CURVE SMOOTH",
"1297 327 OFFCURVE",
"1039 -26 OFFCURVE",
"568 -26 CURVE SMOOTH",
"211 -26 OFFCURVE",
"54 214 OFFCURVE",
"54 515 CURVE SMOOTH",
"54 958 OFFCURVE",
"328 1273 OFFCURVE",
"782 1273 CURVE SMOOTH",
"1131 1273 OFFCURVE",
"1297 1016 OFFCURVE"
);
}
);
width = 1344;
}
);
unicode = 004F;
},
{
color = 4;
glyphname = Oslash;
lastChange = "2016-09-14 15:00:45 +0000";
layers = (
{
layerId = "F2FC958C-67D2-45D4-A67F-FC49D9225D80";
paths = (
{
closed = 1;
nodes = (
"747 1176 CURVE SMOOTH",
"331 1176 OFFCURVE",
"278 773 OFFCURVE",
"283 527 CURVE SMOOTH",
"288 294 OFFCURVE",
"376 79 OFFCURVE",
"604 79 CURVE SMOOTH",
"1015 79 OFFCURVE",
"1076 487 OFFCURVE",
"1073 713 CURVE SMOOTH",
"1068 946 OFFCURVE",
"977 1176 OFFCURVE"
);
},
{
closed = 1;
nodes = (
"1297 737 CURVE SMOOTH",
"1304 339 OFFCURVE",
"1009 -26 OFFCURVE",
"538 -26 CURVE SMOOTH",
"237 -26 OFFCURVE",
"59 204 OFFCURVE",
"54 505 CURVE SMOOTH",
"46 943 OFFCURVE",
"358 1273 OFFCURVE",
"812 1273 CURVE SMOOTH",
"1124 1273 OFFCURVE",
"1292 1029 OFFCURVE"
);
},
{
closed = 1;
nodes = (
"121 -91 LINE",
"277 153 LINE",
"320 177 LINE",
"947 1159 LINE",
"943 1198 LINE",
"1023 1324 LINE",
"1190 1332 LINE",
"1075 1154 LINE",
"1019 1110 LINE",
"372 100 LINE",
"382 72 LINE",
"283 -82 LINE"
);
}
);
width = 1344;
}
);
unicode = 00D8;
},
{
color = 4;
glyphname = OE;
lastChange = "2016-09-14 15:00:45 +0000";
layers = (
{
layerId = "F2FC958C-67D2-45D4-A67F-FC49D9225D80";
paths = (
{
closed = 1;
nodes = (
"162.04 619 CURVE SMOOTH",
"223.81 1009 OFFCURVE",
"467.465 1272 OFFCURVE",
"861.465 1272 CURVE SMOOTH",
"931.465 1272 OFFCURVE",
"992.039 1263 OFFCURVE",
"1042.03 1244 CURVE",
"1819.03 1244 LINE",
"1736.35 924 LINE",
"1652.41 937 LINE",
"1646.46 1152 LINE",
"1177.46 1152 LINE",
"1102.07 676 LINE",
"1390.07 676 LINE",
"1451.07 796 LINE",
"1547.29 810 LINE",
"1453.68 421 LINE",
"1364.62 408 LINE",
"1359.34 583 LINE",
"1087.34 583 LINE",
"1010.21 96 LINE",
"1502.21 96 LINE",
"1636.63 326 LINE",
"1717.57 313 LINE",
"1639 0 LINE",
"798 0 LINE",
"729.466 -16 OFFCURVE",
"658.724 -27 OFFCURVE",
"585.724 -27 CURVE SMOOTH",
"247.724 -27 OFFCURVE",
"103.121 247 OFFCURVE"
);
},
{
closed = 1;
nodes = (
"393.068 676 CURVE SMOOTH",
"351.729 415 OFFCURVE",
"385.513 79 OFFCURVE",
"645.513 79 CURVE SMOOTH",
"704.513 79 OFFCURVE",
"763.571 92 OFFCURVE",
"821.323 122 CURVE",
"980.341 1126 LINE",
"929.567 1159 OFFCURVE",
"867.26 1176 OFFCURVE",
"797.26 1176 CURVE SMOOTH",
"579.26 1176 OFFCURVE",
"445.969 1010 OFFCURVE"
);
}
);
width = 1708;
}
);
unicode = 0152;
userData = {
com.fontlab.hintData = {
hhints = (
{
position = -27;
width = 106;
},
{
position = 0;
width = 96;
},
{
position = 583;
width = 93;
},
{
position = 1152;
width = 92;
},
{
position = 1176;
width = 96;
}
);
vhints = (
{
position = 64;
width = 222;
},
{
position = 802;
width = 193;
},
{
position = 1300;
width = 87;
},
{
position = 1504;
width = 86;
}
);
};
};
},
{
color = 4;
glyphname = P;
lastChange = "2016-09-14 15:00:45 +0000";
layers = (
{
layerId = "F2FC958C-67D2-45D4-A67F-FC49D9225D80";
paths = (
{
closed = 1;
nodes = (
"1184 926 CURVE SMOOTH",
"1184 650 OFFCURVE",
"939 490 OFFCURVE",
"671 490 CURVE SMOOTH",
"635 490 OFFCURVE",
"597 494 OFFCURVE",
"557 499 CURVE",
"550 581 LINE",
"603 581 LINE SMOOTH",
"856 581 OFFCURVE",
"970 694 OFFCURVE",
"970 907 CURVE SMOOTH",
"970 1058 OFFCURVE",
"889 1173 OFFCURVE",
"704 1173 CURVE SMOOTH",
"663 1173 OFFCURVE",
"596 1168 OFFCURVE",
"596 1168 CURVE",
"433 122 LINE",
"662 84 LINE",
"636 0 LINE",
"43 0 LINE",
"65 74 LINE",
"241 121 LINE",
"395 1105 LINE",
"230 1135 LINE",
"251 1211 LINE",
"383 1231 OFFCURVE",
"565 1255 OFFCURVE",
"735 1255 CURVE SMOOTH",
"970 1255 OFFCURVE",
"1184 1170 OFFCURVE"
);
}
);
width = 1227;
}
);
unicode = 0050;
},
{
color = 4;
glyphname = Thorn;
lastChange = "2016-09-14 15:00:45 +0000";
layers = (
{
layerId = "F2FC958C-67D2-45D4-A67F-FC49D9225D80";
paths = (
{
closed = 1;
nodes = (
"224 1168 LINE",
"247 1244 LINE",
"790 1244 LINE",
"768 1168 LINE",
"591 1130 LINE",
"574 1020 LINE",
"614 1021 OFFCURVE",
"658 1024 OFFCURVE",
"698 1024 CURVE SMOOTH",
"936 1024 OFFCURVE",
"1148 934 OFFCURVE",
"1148 702 CURVE SMOOTH",
"1148 415 OFFCURVE",
"894 260 OFFCURVE",
"634 260 CURVE SMOOTH",
"598 260 OFFCURVE",
"557 262 OFFCURVE",
"518 266 CURVE",
"515 351 LINE",
"769 337 OFFCURVE",
"934 415 OFFCURVE",
"934 659 CURVE SMOOTH",
"934 797 OFFCURVE",
"854 926 OFFCURVE",
"665 926 CURVE SMOOTH",
"625 926 OFFCURVE",
"558 919 OFFCURVE",
"558 919 CURVE",
"431 121 LINE",
"662 83 LINE",
"636 -1 LINE",
"43 -1 LINE",
"65 73 LINE",
"240 119 LINE",
"400 1126 LINE"
);
}
);
width = 1194;
}
);
unicode = 00DE;
},
{
color = 4;
glyphname = Q;
lastChange = "2016-09-14 15:00:45 +0000";
layers = (
{
layerId = "F2FC958C-67D2-45D4-A67F-FC49D9225D80";
paths = (
{
closed = 1;
nodes = (
"754 1168 CURVE SMOOTH",
"453 1168 OFFCURVE",
"267 924 OFFCURVE",
"267 560 CURVE SMOOTH",
"267 345 OFFCURVE",
"360 86 OFFCURVE",
"666 68 CURVE",
"1051 162 OFFCURVE",
"1099 462 OFFCURVE",
"1099 680 CURVE SMOOTH",
"1099 928 OFFCURVE",
"977 1168 OFFCURVE"
);
},
{
closed = 1;
nodes = (
"605 -21 CURVE",
"595 -24 OFFCURVE",
"566 -26 OFFCURVE",
"551 -26 CURVE SMOOTH",
"250 -26 OFFCURVE",
"54 214 OFFCURVE",
"54 515 CURVE SMOOTH",
"54 964 OFFCURVE",
"349 1273 OFFCURVE",
"797 1273 CURVE SMOOTH",
"1141 1273 OFFCURVE",
"1315 1008 OFFCURVE",
"1315 723 CURVE SMOOTH",
"1315 376 OFFCURVE",
"1084 77 OFFCURVE",
"724 -7 CURVE",
"760 -142 OFFCURVE",
"835 -228 OFFCURVE",
"1116 -276 CURVE",
"1111 -301 OFFCURVE",
"1102 -332 OFFCURVE",
"1092 -350 CURVE",
"1024 -380 OFFCURVE",
"965 -385 OFFCURVE",
"909 -385 CURVE SMOOTH",
"727 -385 OFFCURVE",
"587 -249 OFFCURVE"
);
}
);
width = 1362;
}
);
unicode = 0051;
},
{
color = 4;
glyphname = R;
lastChange = "2016-09-14 15:00:45 +0000";
layers = (
{
layerId = "F2FC958C-67D2-45D4-A67F-FC49D9225D80";
paths = (
{
closed = 1;
nodes = (
"1160 978 CURVE SMOOTH",
"1160 823 OFFCURVE",
"1048 675 OFFCURVE",
"827 599 CURVE",
"829 598 LINE",
"967 348 LINE SMOOTH",
"1059 186 OFFCURVE",
"1101 118 OFFCURVE",
"1218 78 CURVE SMOOTH",
"1248 68 LINE",
"1223 -2 LINE",
"1178 -17 OFFCURVE",
"1137 -21 OFFCURVE",
"1099 -21 CURVE SMOOTH",
"940 -21 OFFCURVE",
"851 98 OFFCURVE",
"787 253 CURVE SMOOTH",
"672 537 LINE",
"498 537 LINE",
"436 126 LINE",
"616 83 LINE",
"592 0 LINE",
"44 0 LINE",
"66 74 LINE",
"242 121 LINE",
"396 1102 LINE",
"229 1131 LINE",
"252 1207 LINE",
"402 1230 OFFCURVE",
"567 1253 OFFCURVE",
"716 1253 CURVE SMOOTH",
"984 1253 OFFCURVE",
"1160 1174 OFFCURVE"
);
},
{
closed = 1;
nodes = (
"677 628 LINE SMOOTH",
"811 628 OFFCURVE",
"956 766 OFFCURVE",
"956 943 CURVE SMOOTH",
"956 1086 OFFCURVE",
"871 1169 OFFCURVE",
"719 1169 CURVE SMOOTH",
"648 1169 OFFCURVE",
"597 1164 OFFCURVE",
"597 1164 CURVE",
"511 628 LINE"
);
}
);
width = 1296;
}
);
unicode = 0052;
},
{
color = 4;
glyphname = Rcaron;
lastChange = "2016-09-14 15:00:45 +0000";
layers = (
{
layerId = "F2FC958C-67D2-45D4-A67F-FC49D9225D80";
paths = (
{
closed = 1;
nodes = (
"50 0 LINE",
"72.721 74 LINE",
"247.164 121 LINE",
"402.223 1100 LINE",
"235.975 1130 LINE",
"258.17 1207 LINE",
"408.812 1230 OFFCURVE",
"573.456 1253 OFFCURVE",
"721.456 1253 CURVE SMOOTH",
"1018.46 1253 OFFCURVE",
"1211.26 1176 OFFCURVE",
"1174.36 943 CURVE SMOOTH",
"1153.92 814 OFFCURVE",
"1031.48 666 OFFCURVE",
"832.872 599 CURVE",
"832.714 598 LINE",
"973.276 349 LINE SMOOTH",
"1064.62 187 OFFCURVE",
"1105.06 114 OFFCURVE",
"1223.2 77 CURVE SMOOTH",
"1254.61 67 LINE",
"1228.84 -1 LINE",
"1183.47 -16 OFFCURVE",
"1142.67 -21 OFFCURVE",
"1105.67 -21 CURVE SMOOTH",
"946.674 -21 OFFCURVE",
"855.521 98 OFFCURVE",
"793.071 253 CURVE SMOOTH",
"679.053 537 LINE",
"505.053 537 LINE",
"439.956 126 LINE",
"621.146 83 LINE",
"598 0 LINE"
);
},
{
closed = 1;
nodes = (
"615.854 1527 LINE",
"705.673 1589 LINE",
"832.865 1445 LINE",
"842.865 1445 LINE",
"988.039 1585 LINE",
"1027.29 1555 LINE",
"825.938 1376 LINE",
"768.562 1361 LINE"
);
},
{
closed = 1;
nodes = (
"519.466 628 LINE",
"717.466 628 LINE",
"821.692 661 OFFCURVE",
"935.996 745 OFFCURVE",
"958.487 887 CURVE SMOOTH",
"984.462 1051 OFFCURVE",
"902.151 1169 OFFCURVE",
"725.151 1169 CURVE SMOOTH",
"655.151 1169 OFFCURVE",
"604.359 1164 OFFCURVE",
"604.359 1164 CURVE"
);
}
);
width = 1208;
}
);
unicode = 0158;
userData = {
com.fontlab.hintData = {
hhints = (
{
position = -21;
width = 21;
},
{
position = 0;
width = 74;
},
{
position = 537;
width = 91;
},
{
position = 1130;
width = 77;
},
{
position = 1169;
width = 84;
},
{
position = 1569;
width = 20;
}
);
vhints = (
{
position = 228;
width = 192;
},
{
position = 818;
width = 207;
}
);
};
};
},
{
color = 4;
glyphname = S;
lastChange = "2016-09-14 15:00:45 +0000";
layers = (
{
layerId = "F2FC958C-67D2-45D4-A67F-FC49D9225D80";
paths = (
{
closed = 1;
nodes = (
"835 887 CURVE",
"738 898 LINE",
"741 1090 LINE",
"734 1118 OFFCURVE",
"671 1184 OFFCURVE",
"587 1184 CURVE SMOOTH",
"473 1184 OFFCURVE",
"374 1120 OFFCURVE",
"374 968 CURVE SMOOTH",
"374 736 OFFCURVE",
"865 708 OFFCURVE",
"865 380 CURVE SMOOTH",
"865 127 OFFCURVE",
"606 -25 OFFCURVE",
"355 -25 CURVE SMOOTH",
"211 -25 OFFCURVE",
"83 41 OFFCURVE",
"42 122 CURVE",
"99 390 LINE",
"198 375 LINE",
"204 187 LINE",
"232 123 OFFCURVE",
"297 78 OFFCURVE",
"394 78 CURVE SMOOTH",
"510 78 OFFCURVE",
"668 149 OFFCURVE",
"668 312 CURVE SMOOTH",
"668 524 OFFCURVE",
"189 556 OFFCURVE",
"189 880 CURVE SMOOTH",
"189 1134 OFFCURVE",
"417 1270 OFFCURVE",
"635 1270 CURVE SMOOTH",
"723 1270 OFFCURVE",
"835 1247 OFFCURVE",
"901 1169 CURVE",
"899 1161 OFFCURVE",
"835 887 OFFCURVE"
);
}
);
width = 944;
}
);
unicode = 0053;
},
{
color = 4;
glyphname = Scaron;
lastChange = "2016-09-14 15:00:45 +0000";
layers = (
{
layerId = "F2FC958C-67D2-45D4-A67F-FC49D9225D80";
paths = (
{
closed = 1;
nodes = (
"85.323 122 CURVE",
"140.611 389 LINE",
"240.395 375 LINE",
"249.618 187 LINE",
"276.59 130 OFFCURVE",
"345.195 77 OFFCURVE",
"438.195 77 CURVE SMOOTH",
"543.195 77 OFFCURVE",
"685.016 139 OFFCURVE",
"708.456 287 CURVE SMOOTH",
"749.637 547 OFFCURVE",
"176.161 544 OFFCURVE",
"235.08 916 CURVE SMOOTH",
"271.033 1143 OFFCURVE",
"482.99 1269 OFFCURVE",
"679.99 1269 CURVE SMOOTH",
"787.99 1269 OFFCURVE",
"877.604 1235 OFFCURVE",
"946.151 1169 CURVE",
"944.885 1161 OFFCURVE",
"879.487 887 OFFCURVE",
"879.487 887 CURVE",
"782.388 899 LINE",
"787.639 1090 LINE",
"775.341 1126 OFFCURVE",
"712.686 1185 OFFCURVE",
"632.686 1185 CURVE SMOOTH",
"532.686 1185 OFFCURVE",
"441.341 1126 OFFCURVE",
"420.593 995 CURVE SMOOTH",
"375.136 708 OFFCURVE",
"962.621 730 OFFCURVE",
"903.068 354 CURVE SMOOTH",
"866.64 124 OFFCURVE",
"626.199 -24 OFFCURVE",
"398.199 -24 CURVE SMOOTH",
"254.199 -24 OFFCURVE",
"136.811 43 OFFCURVE"
);
},
{
closed = 1;
nodes = (
"496.694 1526 LINE",
"586.356 1587 LINE",
"712.549 1443 LINE",
"722.549 1443 LINE",
"868.881 1584 LINE",
"906.971 1553 LINE",
"706.462 1373 LINE",
"649.402 1360 LINE"
);
}
);
width = 900;
}
);
unicode = 0160;
userData = {
com.fontlab.hintData = {
hhints = (
{
position = -24;
width = 101;
},
{
position = 1185;
width = 84;
},
{
position = 1567;
width = 20;
}
);
vhints = (
{
position = 79;
width = 102;
},
{
position = 90;
width = 173;
},
{
position = 640;
width = 99;
},
{
position = 663;
width = 184;
}
);
};
};
},
{
color = 4;
glyphname = Germandbls;
lastChange = "2016-09-14 15:00:45 +0000";
layers = (
{
layerId = "F2FC958C-67D2-45D4-A67F-FC49D9225D80";
paths = (
{
closed = 1;
nodes = (
"44 0 LINE",
"64 73 LINE",
"235 119 LINE",
"335 751 LINE SMOOTH",
"391 1102 OFFCURVE",
"609 1250 OFFCURVE",
"905 1250 CURVE SMOOTH",
"1090 1250 OFFCURVE",
"1378 1208 OFFCURVE",
"1350 1032 CURVE SMOOTH",
"1338 956 OFFCURVE",
"1291 923 OFFCURVE",
"1209 897 CURVE",
"1189 1001 OFFCURVE",
"1170 1112 OFFCURVE",
"1056 1112 CURVE SMOOTH",
"972 1112 OFFCURVE",
"872 1028 OFFCURVE",
"856 928 CURVE SMOOTH",
"810 637 OFFCURVE",
"1358 680 OFFCURVE",
"1300 316 CURVE SMOOTH",
"1264 90 OFFCURVE",
"1064 -24 OFFCURVE",
"840 -24 CURVE SMOOTH",
"698 -24 OFFCURVE",
"572 30 OFFCURVE",
"531 121 CURVE",
"585 376 LINE",
"677 361 LINE",
"684 184 LINE",
"711 127 OFFCURVE",
"787 76 OFFCURVE",
"879 76 CURVE SMOOTH",
"983 76 OFFCURVE",
"1086 110 OFFCURVE",
"1108 250 CURVE SMOOTH",
"1148 503 OFFCURVE",
"613 468 OFFCURVE",
"670 829 CURVE SMOOTH",
"696 992 OFFCURVE",
"817 1123 OFFCURVE",
"962 1155 CURVE",
"964 1158 LINE",
"945 1160 OFFCURVE",
"897 1161 OFFCURVE",
"878 1161 CURVE SMOOTH",
"683 1161 OFFCURVE",
"568 1027 OFFCURVE",
"528 774 CURVE SMOOTH",
"407 0 LINE"
);
}
);
width = 1394;
}
);
unicode = 1E9E;
},
{
color = 4;
glyphname = T;
lastChange = "2016-09-14 15:00:45 +0000";
layers = (
{
layerId = "F2FC958C-67D2-45D4-A67F-FC49D9225D80";
paths = (
{
closed = 1;
nodes = (
"88 1244 LINE",
"1199 1244 LINE",
"1113 907 LINE",
"1021 922 LINE",
"1018 1153 LINE",
"714 1153 LINE",
"550 114 LINE",
"729 81 LINE",
"702 0 LINE",
"162 0 LINE",
"184 74 LINE",
"360 121 LINE",
"522 1153 LINE",
"227 1153 LINE",
"136 910 LINE",
"46 923 LINE"
);
}
);
width = 1242;
}
);
unicode = 0054;
},
{
color = 4;
glyphname = U;
lastChange = "2016-09-14 15:00:45 +0000";
layers = (
{
layerId = "F2FC958C-67D2-45D4-A67F-FC49D9225D80";
paths = (
{
closed = 1;
nodes = (
"603 92 CURVE SMOOTH",
"904 92 OFFCURVE",
"965 326 OFFCURVE",
"990 481 CURVE SMOOTH",
"1092 1126 LINE",
"917 1168 LINE",
"937 1244 LINE",
"1416 1244 LINE",
"1394 1168 LINE",
"1221 1130 LINE",
"1117 499 LINE SMOOTH",
"1053 114 OFFCURVE",
"824 -26 OFFCURVE",
"517 -26 CURVE SMOOTH",
"329 -26 OFFCURVE",
"57 48 OFFCURVE",
"123 469 CURVE SMOOTH",
"227 1126 LINE",
"47 1168 LINE",
"70 1244 LINE",
"611 1244 LINE",
"592 1168 LINE",
"417 1130 LINE",
"317 494 LINE SMOOTH",
"272 208 OFFCURVE",
"398 92 OFFCURVE"
);
}
);
width = 1458;
}
);
unicode = 0055;
},
{
color = 4;
glyphname = V;
lastChange = "2016-09-14 15:00:45 +0000";
layers = (
{
layerId = "F2FC958C-67D2-45D4-A67F-FC49D9225D80";
paths = (
{
closed = 1;
nodes = (
"508 -25 LINE",
"188 1126 LINE",
"49 1168 LINE",
"70 1244 LINE",
"597 1244 LINE",
"576 1168 LINE",
"402 1130 LINE",
"640 240 LINE",
"1043 1126 LINE",
"866 1168 LINE",
"886 1244 LINE",
"1342 1244 LINE",
"1322 1168 LINE",
"1187 1130 LINE",
"663 5 LINE"
);
}
);
width = 1384;
}
);
unicode = 0056;
},
{
color = 4;
glyphname = W;
lastChange = "2016-09-14 15:00:45 +0000";
layers = (
{
layerId = "F2FC958C-67D2-45D4-A67F-FC49D9225D80";
paths = (
{
closed = 1;
nodes = (
"1076 -25 LINE",
"928 951 LINE",
"533 5 LINE",
"368 -25 LINE",
"181 1126 LINE",
"49 1168 LINE",
"68 1244 LINE",
"582 1244 LINE",
"557 1168 LINE",
"384 1130 LINE",
"511 252 LINE",
"905 1194 LINE",
"1086 1219 LINE",
"1228 269 LINE",
"1571 1126 LINE",
"1396 1168 LINE",
"1419 1244 LINE",
"1868 1244 LINE",
"1845 1168 LINE",
"1718 1130 LINE",
"1235 5 LINE"
);
}
);
width = 1910;
}
);
unicode = 0057;
},
{
color = 4;
glyphname = X;
lastChange = "2016-09-14 15:00:45 +0000";
layers = (
{
layerId = "F2FC958C-67D2-45D4-A67F-FC49D9225D80";
paths = (
{
closed = 1;
nodes = (
"851 637 LINE",
"1109 114 LINE",
"1243 81 LINE",
"1217 0 LINE",
"703 0 LINE",
"728 74 LINE",
"903 121 LINE",
"690 536 LINE",
"343 114 LINE",
"520 81 LINE",
"497 0 LINE",
"44 0 LINE",
"69 74 LINE",
"198 121 LINE",
"639 627 LINE",
"381 1118 LINE",
"256 1168 LINE",
"279 1244 LINE",
"806 1244 LINE",
"782 1168 LINE",
"604 1121 LINE",
"796 725 LINE",
"1124 1126 LINE",
"943 1168 LINE",
"966 1244 LINE",
"1418 1244 LINE",
"1398 1168 LINE",
"1266 1130 LINE"
);
}
);
width = 1460;
}
);
unicode = 0058;
},
{
color = 4;
glyphname = Y;
lastChange = "2016-09-14 15:00:45 +0000";
layers = (
{
layerId = "F2FC958C-67D2-45D4-A67F-FC49D9225D80";
paths = (
{
closed = 1;
nodes = (
"632 528 LINE",
"567 114 LINE",
"726 81 LINE",
"703 0 LINE",
"196 0 LINE",
"217 74 LINE",
"376 121 LINE",
"437 505 LINE",
"179 1126 LINE",
"49 1168 LINE",
"73 1244 LINE",
"580 1244 LINE",
"557 1168 LINE",
"394 1130 LINE",
"594 641 LINE",
"894 1126 LINE",
"717 1168 LINE",
"739 1244 LINE",
"1183 1244 LINE",
"1161 1168 LINE",
"1033 1130 LINE"
);
}
);
width = 1225;
}
);
unicode = 0059;
},
{
color = 4;
glyphname = Z;
lastChange = "2016-09-14 15:00:45 +0000";
layers = (
{
layerId = "F2FC958C-67D2-45D4-A67F-FC49D9225D80";
paths = (
{
closed = 1;
nodes = (
"263 1244 LINE",
"1181 1244 LINE",
"1170 1168 LINE",
"268 101 LINE",
"858 101 LINE",
"990 350 LINE",
"1081 335 LINE",
"1002 0 LINE",
"45 0 LINE",
"54 104 LINE",
"923 1149 LINE",
"407 1149 LINE",
"309 903 LINE",
"222 922 LINE"
);
}
);
width = 1223;
}
);
unicode = 005A;
},
{
color = 4;
glyphname = Zcaron;
lastChange = "2016-09-14 15:00:45 +0000";
layers = (
{
layerId = "F2FC958C-67D2-45D4-A67F-FC49D9225D80";
paths = (
{
closed = 1;
nodes = (
"63.472 104 LINE",
"973.983 1149 LINE",
"436.983 1149 LINE",
"321.021 903 LINE",
"233.872 921 LINE",
"295.03 1244 LINE",
"1223.03 1244 LINE",
"1210.99 1168 LINE",
"277.839 100 LINE",
"847.839 100 LINE",
"1010.59 351 LINE",
"1101.06 335 LINE",
"991 0 LINE",
"55 0 LINE"
);
},
{
closed = 1;
nodes = (
"582.854 1527 LINE",
"674.673 1589 LINE",
"799.865 1445 LINE",
"809.865 1445 LINE",
"955.039 1585 LINE",
"994.288 1555 LINE",
"792.938 1376 LINE",
"735.562 1361 LINE"
);
}
);
width = 1096;
}
);
unicode = 017D;
userData = {
com.fontlab.hintData = {
hhints = (
{
position = 0;
width = 100;
},
{
position = 1149;
width = 95;
},
{
position = 1569;
width = 20;
}
);
vhints = (
{
position = 88;
width = 90;
}
);
};
};
},
{
color = 4;
glyphname = Germandbls.alt;
lastChange = "2016-09-14 15:00:45 +0000";
layers = (
{
layerId = "F2FC958C-67D2-45D4-A67F-FC49D9225D80";
paths = (
{
closed = 1;
nodes = (
"43 0 LINE",
"63 73 LINE",
"235 119 LINE",
"323 678 LINE SMOOTH",
"392 1115 OFFCURVE",
"608 1250 OFFCURVE",
"904 1250 CURVE SMOOTH",
"1067 1250 OFFCURVE",
"1289 1232 OFFCURVE",
"1344 1213 CURVE",
"1334 1142 LINE",
"972 751 LINE",
"1044 693 OFFCURVE",
"1307 587 OFFCURVE",
"1307 361 CURVE SMOOTH",
"1307 100 OFFCURVE",
"1068 -24 OFFCURVE",
"839 -24 CURVE SMOOTH",
"697 -24 OFFCURVE",
"572 38 OFFCURVE",
"531 129 CURVE",
"586 392 LINE",
"685 377 LINE",
"694 192 LINE",
"721 135 OFFCURVE",
"786 76 OFFCURVE",
"878 76 CURVE SMOOTH",
"980 76 OFFCURVE",
"1111 124 OFFCURVE",
"1111 279 CURVE SMOOTH",
"1111 432 OFFCURVE",
"869 549 OFFCURVE",
"728 639 CURVE",
"713 687 LINE",
"1102 1125 LINE",
"1103 1130 LINE",
"1064 1148 OFFCURVE",
"896 1161 OFFCURVE",
"877 1161 CURVE SMOOTH",
"682 1161 OFFCURVE",
"571 1053 OFFCURVE",
"515 700 CURVE",
"406 0 LINE"
);
}
);
width = 1387;
}
);
},
{
color = 4;
glyphname = a;
lastChange = "2016-09-14 15:00:45 +0000";
layers = (
{
layerId = "F2FC958C-67D2-45D4-A67F-FC49D9225D80";
paths = (
{
closed = 1;
nodes = (
"691 96 CURVE SMOOTH",
"767 84 LINE SMOOTH",
"749 15 LINE",
"714 2 OFFCURVE",
"658 -17 OFFCURVE",
"598 -17 CURVE SMOOTH",
"505 -17 OFFCURVE",
"449 44 OFFCURVE",
"473 132 CURVE",
"461 132 LINE",
"415 49 OFFCURVE",
"326 -21 OFFCURVE",
"225 -21 CURVE SMOOTH",
"103 -21 OFFCURVE",
"24 91 OFFCURVE",
"24 274 CURVE SMOOTH",
"24 667 OFFCURVE",
"313 885 OFFCURVE",
"534 885 CURVE SMOOTH",
"611 885 OFFCURVE",
"700 876 OFFCURVE",
"735 832 CURVE",
"663 378 LINE SMOOTH",
"628 153 OFFCURVE",
"632 105 OFFCURVE"
);
},
{
closed = 1;
nodes = (
"564 746 LINE",
"536 772 OFFCURVE",
"491 781 OFFCURVE",
"445 781 CURVE SMOOTH",
"285 781 OFFCURVE",
"185 533 OFFCURVE",
"185 320 CURVE SMOOTH",
"185 171 OFFCURVE",
"227 106 OFFCURVE",
"306 106 CURVE SMOOTH",
"382 106 OFFCURVE",
"432 150 OFFCURVE",
"478 201 CURVE"
);
}
);
width = 807;
}
);
unicode = 0061;
},
{
color = 4;
glyphname = ae;
lastChange = "2016-09-14 15:00:45 +0000";
layers = (
{
layerId = "F2FC958C-67D2-45D4-A67F-FC49D9225D80";
paths = (
{
closed = 1;
nodes = (
"607 740 LINE",
"579 766 OFFCURVE",
"514 781 OFFCURVE",
"468 781 CURVE SMOOTH",
"308 781 OFFCURVE",
"208 533 OFFCURVE",
"208 320 CURVE SMOOTH",
"208 171 OFFCURVE",
"250 106 OFFCURVE",
"329 106 CURVE SMOOTH",
"405 106 OFFCURVE",
"476 150 OFFCURVE",
"508 208 CURVE"
);
},
{
closed = 1;
nodes = (
"248 -21 CURVE SMOOTH",
"126 -21 OFFCURVE",
"47 91 OFFCURVE",
"47 274 CURVE SMOOTH",
"47 667 OFFCURVE",
"336 885 OFFCURVE",
"557 885 CURVE SMOOTH",
"621 885 OFFCURVE",
"690 872 OFFCURVE",
"722 855 CURVE",
"737 836 LINE",
"733 798 LINE",
"789 838 OFFCURVE",
"881 890 OFFCURVE",
"944 890 CURVE SMOOTH",
"1055 890 OFFCURVE",
"1126 814 OFFCURVE",
"1126 692 CURVE SMOOTH",
"1126 456 OFFCURVE",
"845 372 OFFCURVE",
"687 396 CURVE",
"682 368 OFFCURVE",
"682 342 OFFCURVE",
"682 324 CURVE SMOOTH",
"682 175 OFFCURVE",
"750 102 OFFCURVE",
"864 102 CURVE SMOOTH",
"917 102 OFFCURVE",
"1029 152 OFFCURVE",
"1054 177 CURVE",
"1080 132 LINE",
"1035 63 OFFCURVE",
"906 -30 OFFCURVE",
"770 -30 CURVE SMOOTH",
"652 -30 OFFCURVE",
"586 35 OFFCURVE",
"553 156 CURVE",
"482 48 OFFCURVE",
"364 -21 OFFCURVE"
);
},
{
closed = 1;
nodes = (
"696 469 CURVE",
"832 453 OFFCURVE",
"976 498 OFFCURVE",
"976 663 CURVE SMOOTH",
"976 734 OFFCURVE",
"942 798 OFFCURVE",
"884 798 CURVE SMOOTH",
"792 798 OFFCURVE",
"732 692 OFFCURVE"
);
}
);
width = 1171;
}
);
unicode = 00E6;
},
{
color = 4;
glyphname = b;
lastChange = "2016-09-14 15:00:45 +0000";
layers = (
{
layerId = "F2FC958C-67D2-45D4-A67F-FC49D9225D80";
paths = (
{
closed = 1;
nodes = (
"387 1124.1 CURVE SMOOTH",
"337 842 LINE",
"309 722 LINE",
"321 722 LINE",
"373 813 OFFCURVE",
"483 890 OFFCURVE",
"574 890 CURVE SMOOTH",
"742 890 OFFCURVE",
"818 731 OFFCURVE",
"818 544 CURVE SMOOTH",
"818 260 OFFCURVE",
"606 -23 OFFCURVE",
"290 -23 CURVE SMOOTH",
"217 -23 OFFCURVE",
"114 -1 OFFCURVE",
"58 50 CURVE",
"229 1120.1 LINE SMOOTH",
"244 1213.1 OFFCURVE",
"172 1206.1 OFFCURVE",
"98 1204.1 CURVE",
"107 1284.1 LINE",
"150 1305.1 OFFCURVE",
"200 1317.1 OFFCURVE",
"260 1317.1 CURVE SMOOTH",
"392 1317.1 OFFCURVE",
"406 1248.1 OFFCURVE"
);
},
{
closed = 1;
nodes = (
"489 748 CURVE SMOOTH",
"405 748 OFFCURVE",
"358 702 OFFCURVE",
"312 646 CURVE",
"228 155 LINE",
"253 112 OFFCURVE",
"315 84 OFFCURVE",
"377 84 CURVE SMOOTH",
"539 84 OFFCURVE",
"651 289 OFFCURVE",
"651 483 CURVE SMOOTH",
"651 613 OFFCURVE",
"609 748 OFFCURVE"
);
}
);
width = 843;
}
);
unicode = 0062;
},
{
color = 4;
glyphname = c;
lastChange = "2016-09-14 15:00:45 +0000";
layers = (
{
layerId = "F2FC958C-67D2-45D4-A67F-FC49D9225D80";
paths = (
{
closed = 1;
nodes = (
"611 179 CURVE",
"635 118 LINE",
"565 39 OFFCURVE",
"438 -24 OFFCURVE",
"327 -24 CURVE SMOOTH",
"149 -24 OFFCURVE",
"24 85 OFFCURVE",
"24 308 CURVE SMOOTH",
"24 644 OFFCURVE",
"275 888 OFFCURVE",
"514 888 CURVE SMOOTH",
"632 888 OFFCURVE",
"700 825 OFFCURVE",
"700 731 CURVE SMOOTH",
"700 668 OFFCURVE",
"640 633 OFFCURVE",
"571 627 CURVE",
"543 711 OFFCURVE",
"518 791 OFFCURVE",
"431 791 CURVE SMOOTH",
"261 791 OFFCURVE",
"197 546 OFFCURVE",
"197 380 CURVE SMOOTH",
"197 197 OFFCURVE",
"259 106 OFFCURVE",
"398 106 CURVE SMOOTH",
"482 106 OFFCURVE",
"561 148 OFFCURVE"
);
}
);
width = 708;
}
);
unicode = 0063;
},
{
color = 4;
glyphname = ccaron;
lastChange = "2016-09-14 15:00:45 +0000";
layers = (
{
layerId = "F2FC958C-67D2-45D4-A67F-FC49D9225D80";
paths = (
{
closed = 1;
nodes = (
"115.729 415 CURVE SMOOTH",
"162.77 712 OFFCURVE",
"400.546 900 OFFCURVE",
"617.546 900 CURVE SMOOTH",
"784.546 900 OFFCURVE",
"846.825 826 OFFCURVE",
"834.313 747 CURVE SMOOTH",
"824.969 688 OFFCURVE",
"774.633 648 OFFCURVE",
"690.683 642 CURVE",
"673.295 709 OFFCURVE",
"642.658 806 OFFCURVE",
"555.658 806 CURVE SMOOTH",
"436.658 806 OFFCURVE",
"339.969 688 OFFCURVE",
"311.301 507 CURVE SMOOTH",
"284.851 340 OFFCURVE",
"334.255 90 OFFCURVE",
"542.255 90 CURVE SMOOTH",
"641.255 90 OFFCURVE",
"702.164 121 OFFCURVE",
"753.916 151 CURVE",
"769.729 93 LINE",
"706.593 29 OFFCURVE",
"569.248 -30 OFFCURVE",
"440.248 -30 CURVE SMOOTH",
"200.248 -30 OFFCURVE",
"77.717 175 OFFCURVE"
);
},
{
closed = 1;
nodes = (
"407.943 1174 LINE",
"497.922 1237 LINE",
"624.114 1093 LINE",
"634.114 1093 LINE",
"780.446 1234 LINE",
"818.536 1203 LINE",
"619.186 1024 LINE",
"561.969 1010 LINE"
);
}
);
width = 778;
}
);
unicode = 010D;
userData = {
com.fontlab.hintData = {
hhints = (
{
position = -30;
width = 120;
},
{
position = 806;
width = 94;
}
);
vhints = (
{
position = 50;
width = 181;
}
);
};
};
},
{
color = 4;
glyphname = d;
lastChange = "2016-09-14 15:00:45 +0000";
layers = (
{
layerId = "F2FC958C-67D2-45D4-A67F-FC49D9225D80";
paths = (
{
closed = 1;
nodes = (
"799 1124.1 CURVE SMOOTH",
"682.75 380 LINE SMOOTH",
"644 131 OFFCURVE",
"644.75 107 OFFCURVE",
"698.75 97 CURVE SMOOTH",
"764.75 86 LINE",
"745.75 17 LINE",
"712.75 4 OFFCURVE",
"662.75 -15 OFFCURVE",
"606.75 -15 CURVE SMOOTH",
"520.75 -15 OFFCURVE",
"489.75 26 OFFCURVE",
"487.75 74 CURVE SMOOTH",
"487.75 93 OFFCURVE",
"490.75 112 OFFCURVE",
"492.75 122 CURVE",
"479.75 122 LINE",
"433.75 44 OFFCURVE",
"344.75 -21 OFFCURVE",
"243.75 -21 CURVE SMOOTH",
"112.75 -21 OFFCURVE",
"23.75 76 OFFCURVE",
"23.75 286 CURVE SMOOTH",
"23.75 669 OFFCURVE",
"309.75 884 OFFCURVE",
"565.75 884 CURVE SMOOTH",
"583.75 884 OFFCURVE",
"597.75 883 OFFCURVE",
"606.75 881 CURVE",
"612.75 881 LINE",
"641 1120.1 LINE SMOOTH",
"651 1213.1 OFFCURVE",
"584 1206.1 OFFCURVE",
"510 1204.1 CURVE",
"519 1284.1 LINE",
"562 1305.1 OFFCURVE",
"612 1317.1 OFFCURVE",
"672 1317.1 CURVE SMOOTH",
"804 1317.1 OFFCURVE",
"819 1248.1 OFFCURVE"
);
},
{
closed = 1;
nodes = (
"494.75 201 CURVE",
"576.75 736 LINE",
"549.75 757 OFFCURVE",
"515.75 781 OFFCURVE",
"450.75 781 CURVE SMOOTH",
"296.75 781 OFFCURVE",
"186.75 571 OFFCURVE",
"186.75 337 CURVE SMOOTH",
"186.75 172 OFFCURVE",
"230.75 106 OFFCURVE",
"320.75 106 CURVE SMOOTH",
"403.75 106 OFFCURVE",
"453.75 145 OFFCURVE"
);
}
);
width = 844;
}
);
unicode = 0064;
},
{
color = 4;
glyphname = eth;
lastChange = "2016-09-14 15:00:45 +0000";
layers = (
{
layerId = "F2FC958C-67D2-45D4-A67F-FC49D9225D80";
paths = (
{
closed = 1;
nodes = (
"231 380 CURVE SMOOTH",
"231 194 OFFCURVE",
"300 70 OFFCURVE",
"413 70 CURVE SMOOTH",
"584 70 OFFCURVE",
"676 263 OFFCURVE",
"676 510 CURVE SMOOTH",
"676 694 OFFCURVE",
"597 853 OFFCURVE",
"499 856 CURVE",
"324 856 OFFCURVE",
"231 635 OFFCURVE"
);
},
{
closed = 1;
nodes = (
"856 598 CURVE SMOOTH",
"856 204 OFFCURVE",
"653 -27 OFFCURVE",
"375 -27 CURVE SMOOTH",
"141 -27 OFFCURVE",
"47 141 OFFCURVE",
"47 340 CURVE SMOOTH",
"47 690 OFFCURVE",
"290 948 OFFCURVE",
"527 948 CURVE SMOOTH",
"567 948 OFFCURVE",
"651 933 OFFCURVE",
"669 857 CURVE",
"676 859 LINE",
"671 895 OFFCURVE",
"654 985 OFFCURVE",
"631 1078 CURVE",
"397 1031 LINE",
"419 1106 LINE",
"612 1146 LINE",
"593 1210 OFFCURVE",
"572 1267 OFFCURVE",
"549 1302 CURVE",
"666 1302 LINE",
"696 1271 OFFCURVE",
"723 1227 OFFCURVE",
"748 1174 CURVE",
"882 1201 LINE",
"860 1124 LINE",
"776 1107 LINE",
"829 964 OFFCURVE",
"856 778 OFFCURVE"
);
}
);
width = 926;
}
);
unicode = 00F0;
},
{
color = 4;
glyphname = e;
lastChange = "2016-09-14 15:00:45 +0000";
layers = (
{
layerId = "F2FC958C-67D2-45D4-A67F-FC49D9225D80";
paths = (
{
closed = 1;
nodes = (
"198 449 CURVE",
"345 450 OFFCURVE",
"478 481 OFFCURVE",
"478 663 CURVE SMOOTH",
"478 734 OFFCURVE",
"444 798 OFFCURVE",
"386 798 CURVE SMOOTH",
"310 798 OFFCURVE",
"211 728 OFFCURVE"
);
},
{
closed = 1;
nodes = (
"24 289 CURVE SMOOTH",
"24 614 OFFCURVE",
"223 890 OFFCURVE",
"446 890 CURVE SMOOTH",
"557 890 OFFCURVE",
"628 814 OFFCURVE",
"628 692 CURVE SMOOTH",
"628 426 OFFCURVE",
"393 370 OFFCURVE",
"189 376 CURVE",
"177 203 OFFCURVE",
"215 102 OFFCURVE",
"336 102 CURVE SMOOTH",
"448 102 OFFCURVE",
"527 152 OFFCURVE",
"556 177 CURVE",
"582 132 LINE",
"537 63 OFFCURVE",
"408 -30 OFFCURVE",
"272 -30 CURVE SMOOTH",
"114 -30 OFFCURVE",
"24 68 OFFCURVE"
);
}
);
width = 676;
}
);
unicode = 0065;
},
{
color = 4;
glyphname = ecaron;
lastChange = "2016-09-14 15:00:45 +0000";
layers = (
{
layerId = "F2FC958C-67D2-45D4-A67F-FC49D9225D80";
paths = (
{
closed = 1;
nodes = (
"120.788 428 CURVE SMOOTH",
"168.304 728 OFFCURVE",
"412.388 899 OFFCURVE",
"606.388 899 CURVE SMOOTH",
"751.388 899 OFFCURVE",
"856.44 792 OFFCURVE",
"823.021 581 CURVE SMOOTH",
"818.111 550 OFFCURVE",
"799.816 485 OFFCURVE",
"786.432 451 CURVE",
"301.481 445 LINE",
"284.614 288 OFFCURVE",
"339.155 102 OFFCURVE",
"526.155 102 CURVE SMOOTH",
"532.155 102 LINE SMOOTH",
"599.155 102 OFFCURVE",
"653.313 103 OFFCURVE",
"761.866 157 CURVE",
"774.472 104 LINE",
"682.326 21 OFFCURVE",
"556.248 -30 OFFCURVE",
"424.248 -30 CURVE SMOOTH",
"236.248 -30 OFFCURVE",
"72.64 124 OFFCURVE"
);
},
{
closed = 1;
nodes = (
"401.567 1159 LINE",
"491.229 1220 LINE",
"618.58 1077 LINE",
"628.58 1077 LINE",
"773.754 1217 LINE",
"811.844 1186 LINE",
"611.493 1007 LINE",
"554.275 993 LINE"
);
},
{
closed = 1;
nodes = (
"315.835 523 CURVE",
"633.478 546 LINE",
"640.012 562 OFFCURVE",
"647.872 599 OFFCURVE",
"650.406 615 CURVE SMOOTH",
"669.254 734 OFFCURVE",
"637.866 801 OFFCURVE",
"541.866 801 CURVE SMOOTH",
"461.866 801 OFFCURVE",
"356.562 717 OFFCURVE"
);
}
);
width = 802;
}
);
unicode = 011B;
userData = {
com.fontlab.hintData = {
hhints = (
{
position = -30;
width = 132;
},
{
position = 801;
width = 98;
}
);
vhints = (
{
position = 53;
width = 178;
},
{
position = 553;
width = 178;
}
);
};
};
},
{
color = 4;
glyphname = f;
lastChange = "2016-09-14 15:00:45 +0000";
layers = (
{
layerId = "F2FC958C-67D2-45D4-A67F-FC49D9225D80";
paths = (
{
closed = 1;
nodes = (
"95 99 CURVE SMOOTH",
"207 768 LINE",
"58 768 LINE",
"72 836 LINE",
"229 872 LINE",
"276.992 1162.24 OFFCURVE",
"465.207 1317.1 OFFCURVE",
"616 1317.1 CURVE SMOOTH",
"729.29 1317.1 OFFCURVE",
"780 1276.1 OFFCURVE",
"780 1204.1 CURVE SMOOTH",
"780 1168.1 OFFCURVE",
"751.667 1123.1 OFFCURVE",
"685 1101.1 CURVE",
"634.153 1163.1 OFFCURVE",
"606.755 1209.1 OFFCURVE",
"523 1209.1 CURVE SMOOTH",
"441.403 1209.1 OFFCURVE",
"412.791 1115.13 OFFCURVE",
"381 858 CURVE",
"561 858 LINE",
"543 768 LINE",
"368 768 LINE",
"258 135 LINE SMOOTH",
"213.799 -53.333 OFFCURVE",
"187.771 -165.257 OFFCURVE",
"156 -204 CURVE",
"0 -204 LINE",
"35.424 -148.207 OFFCURVE",
"49.565 -96.879 OFFCURVE"
);
}
);
width = 579;
}
);
unicode = 0066;
},
{
color = 4;
glyphname = g;
lastChange = "2016-09-14 15:00:45 +0000";
layers = (
{
layerId = "F2FC958C-67D2-45D4-A67F-FC49D9225D80";
paths = (
{
closed = 1;
nodes = (
"207.472 542 CURVE SMOOTH",
"207.472 463 OFFCURVE",
"245.472 380 OFFCURVE",
"317.472 380 CURVE SMOOTH",
"429.472 380 OFFCURVE",
"478.472 533 OFFCURVE",
"478.472 661 CURVE SMOOTH",
"478.472 741 OFFCURVE",
"455.472 822 OFFCURVE",
"385.472 822 CURVE SMOOTH",
"270.472 822 OFFCURVE",
"207.472 667 OFFCURVE"
);
},
{
closed = 1;
nodes = (
"309.472 169 CURVE SMOOTH",
"490.472 161 OFFCURVE",
"646.472 130 OFFCURVE",
"646.472 -69 CURVE SMOOTH",
"646.472 -241 OFFCURVE",
"406.472 -375 OFFCURVE",
"175.472 -375 CURVE SMOOTH",
"21.472 -375 OFFCURVE",
"-137.528 -325 OFFCURVE",
"-139.528 -177 CURVE",
"-139.528 -74 OFFCURVE",
"-23.528 11 OFFCURVE",
"70.472 37 CURVE",
"70.472 45 LINE",
"29.472 61 OFFCURVE",
"-15.528 88 OFFCURVE",
"-15.528 163 CURVE SMOOTH",
"-15.528 235 OFFCURVE",
"94.472 307 OFFCURVE",
"166.472 330 CURVE",
"161.472 338 LINE",
"123.472 354 OFFCURVE",
"55.472 444 OFFCURVE",
"55.472 530 CURVE SMOOTH",
"55.472 725 OFFCURVE",
"233.472 897 OFFCURVE",
"418.472 897 CURVE SMOOTH",
"484.472 897 OFFCURVE",
"536.472 876 OFFCURVE",
"575.472 834 CURVE",
"776.472 859 LINE",
"793.472 836 LINE",
"748.472 715 LINE",
"732.472 715 LINE",
"613.472 755 LINE",
"611.472 738 LINE",
"625.472 720 OFFCURVE",
"626.472 668 OFFCURVE",
"626.472 631 CURVE SMOOTH",
"626.472 438 OFFCURVE",
"417.472 278 OFFCURVE",
"244.472 311 CURVE",
"206.472 299 OFFCURVE",
"161.472 260 OFFCURVE",
"161.472 220 CURVE SMOOTH",
"161.472 175 OFFCURVE",
"212.472 173 OFFCURVE"
);
},
{
closed = 1;
nodes = (
"145.472 22 CURVE",
"93.472 8 OFFCURVE",
"9.472 -54 OFFCURVE",
"9.472 -128 CURVE SMOOTH",
"9.472 -220 OFFCURVE",
"117.472 -279 OFFCURVE",
"235.472 -279 CURVE SMOOTH",
"367.472 -279 OFFCURVE",
"475.472 -219 OFFCURVE",
"475.472 -132 CURVE SMOOTH",
"475.472 21 OFFCURVE",
"331.472 22 OFFCURVE"
);
}
);
width = 725;
}
);
unicode = 0067;
},
{
color = 4;
glyphname = h;
lastChange = "2016-09-14 15:00:45 +0000";
layers = (
{
layerId = "F2FC958C-67D2-45D4-A67F-FC49D9225D80";
paths = (
{
closed = 1;
nodes = (
"59 0 LINE",
"228 1120.1 LINE SMOOTH",
"242 1213.1 OFFCURVE",
"171 1206.1 OFFCURVE",
"97 1204.1 CURVE",
"106 1284.1 LINE",
"149 1305.1 OFFCURVE",
"199 1317.1 OFFCURVE",
"259 1317.1 CURVE SMOOTH",
"391 1317.1 OFFCURVE",
"405 1248.1 OFFCURVE",
"386 1124.1 CURVE SMOOTH",
"343 846 LINE",
"315 722 LINE",
"327 722 LINE",
"384 796 OFFCURVE",
"493 893 OFFCURVE",
"616 893 CURVE SMOOTH",
"754 893 OFFCURVE",
"814 808 OFFCURVE",
"780 613 CURVE SMOOTH",
"745 378 LINE SMOOTH",
"730 283 OFFCURVE",
"722 216 OFFCURVE",
"722 172 CURVE SMOOTH",
"722 95 OFFCURVE",
"780 94 OFFCURVE",
"849 96 CURVE",
"841 15 LINE",
"812 0 OFFCURVE",
"756 -17 OFFCURVE",
"700 -17 CURVE SMOOTH",
"568 -17 OFFCURVE",
"537 48 OFFCURVE",
"562 194 CURVE SMOOTH",
"613 525 LINE SMOOTH",
"641 661 OFFCURVE",
"618 745 OFFCURVE",
"509 745 CURVE SMOOTH",
"412 745 OFFCURVE",
"356 698 OFFCURVE",
"317 662 CURVE",
"222 0 LINE"
);
}
);
width = 889;
}
);
unicode = 0068;
},
{
color = 4;
glyphname = i;
lastChange = "2016-09-14 15:00:45 +0000";
layers = (
{
layerId = "F2FC958C-67D2-45D4-A67F-FC49D9225D80";
paths = (
{
closed = 1;
nodes = (
"74 853 LINE",
"117 874 OFFCURVE",
"167 886 OFFCURVE",
"227 886 CURVE SMOOTH",
"359 886 OFFCURVE",
"372 817 OFFCURVE",
"354 693 CURVE SMOOTH",
"308 378 LINE SMOOTH",
"294 281 OFFCURVE",
"285 216 OFFCURVE",
"285 172 CURVE SMOOTH",
"285 95 OFFCURVE",
"343 94 OFFCURVE",
"412 96 CURVE",
"404 15 LINE",
"375 0 OFFCURVE",
"319 -17 OFFCURVE",
"263 -17 CURVE SMOOTH",
"131 -17 OFFCURVE",
"104 47 OFFCURVE",
"125 194 CURVE SMOOTH",
"196 689 LINE SMOOTH",
"211 782 OFFCURVE",
"139 775 OFFCURVE",
"65 773 CURVE"
);
},
{
closed = 1;
nodes = (
"345 1292 CURVE SMOOTH",
"404 1292 OFFCURVE",
"453 1244 OFFCURVE",
"453 1179 CURVE SMOOTH",
"453 1115 OFFCURVE",
"400 1069 OFFCURVE",
"334 1069 CURVE SMOOTH",
"275 1069 OFFCURVE",
"226 1117 OFFCURVE",
"226 1177 CURVE SMOOTH",
"226 1236 OFFCURVE",
"274 1292 OFFCURVE"
);
}
);
width = 493;
}
);
unicode = 0069;
},
{
color = 4;
glyphname = iacute;
lastChange = "2016-09-14 15:00:45 +0000";
layers = (
{
components = (
{
name = acute;
transform = "{1, 0, 0, 1, 239, -333}";
}
);
layerId = "F2FC958C-67D2-45D4-A67F-FC49D9225D80";
paths = (
{
closed = 1;
nodes = (
"185 106 LINE",
"285 746 LINE",
"155 768 LINE",
"165 844 LINE",
"439 869 LINE",
"459 846 LINE",
"343 102 LINE",
"469 71 LINE",
"452 -2 LINE",
"44 -2 LINE",
"62 73 LINE"
);
}
);
width = 594;
}
);
unicode = 00ED;
},
{
color = 4;
glyphname = icircumflex;
lastChange = "2016-09-14 15:00:45 +0000";
layers = (
{
components = (
{
name = circumflex;
transform = "{1, 0, 0, 1, 177, -342}";
}
);
layerId = "F2FC958C-67D2-45D4-A67F-FC49D9225D80";
paths = (
{
closed = 1;
nodes = (
"185 106 LINE",
"285 746 LINE",
"155 768 LINE",
"165 844 LINE",
"439 869 LINE",
"459 846 LINE",
"343 102 LINE",
"469 71 LINE",
"452 -2 LINE",
"44 -2 LINE",
"62 73 LINE"
);
}
);
width = 698;
}
);
unicode = 00EE;
},
{
color = 4;
glyphname = idieresis;
lastChange = "2016-09-14 15:00:45 +0000";
layers = (
{
components = (
{
name = dieresis;
transform = "{1, 0, 0, 1, -35, -369}";
}
);
layerId = "F2FC958C-67D2-45D4-A67F-FC49D9225D80";
paths = (
{
closed = 1;
nodes = (
"249 106 LINE",
"349 746 LINE",
"219 768 LINE",
"229 844 LINE",
"503 869 LINE",
"523 846 LINE",
"407 102 LINE",
"533 71 LINE",
"516 -2 LINE",
"108 -2 LINE",
"126 73 LINE"
);
}
);
width = 584;
}
);
unicode = 00EF;
},
{
color = 4;
glyphname = igrave;
lastChange = "2016-09-14 15:00:45 +0000";
layers = (
{
components = (
{
name = grave;
transform = "{1, 0, 0, 1, 149, -314}";
}
);
layerId = "F2FC958C-67D2-45D4-A67F-FC49D9225D80";
paths = (
{
closed = 1;
nodes = (
"185 106 LINE",
"285 746 LINE",
"155 768 LINE",
"165 844 LINE",
"439 869 LINE",
"459 846 LINE",
"343 102 LINE",
"469 71 LINE",
"452 -2 LINE",
"44 -2 LINE",
"62 73 LINE"
);
}
);
width = 518;
}
);
unicode = 00EC;
},
{
color = 4;
glyphname = j;
lastChange = "2016-09-14 15:00:45 +0000";
layers = (
{
layerId = "F2FC958C-67D2-45D4-A67F-FC49D9225D80";
paths = (
{
closed = 1;
nodes = (
"358 687 CURVE SMOOTH",
"270 86 LINE SMOOTH",
"229 -196 OFFCURVE",
"11 -336 OFFCURVE",
"-93 -386 CURVE",
"-143 -307 LINE",
"6 -198 OFFCURVE",
"90 -70 OFFCURVE",
"115 99 CURVE SMOOTH",
"200 683 LINE SMOOTH",
"215 776 OFFCURVE",
"143 769 OFFCURVE",
"69 767 CURVE",
"78 847 LINE",
"121 868 OFFCURVE",
"171 880 OFFCURVE",
"231 880 CURVE SMOOTH",
"363 880 OFFCURVE",
"378 811 OFFCURVE"
);
},
{
closed = 1;
nodes = (
"337 1293 CURVE SMOOTH",
"397 1293 OFFCURVE",
"446 1244 OFFCURVE",
"446 1179 CURVE SMOOTH",
"446 1115 OFFCURVE",
"393 1068 OFFCURVE",
"326 1068 CURVE SMOOTH",
"267 1068 OFFCURVE",
"216 1116 OFFCURVE",
"216 1177 CURVE SMOOTH",
"216 1237 OFFCURVE",
"266 1293 OFFCURVE"
);
}
);
width = 478;
}
);
unicode = 006A;
},
{
color = 4;
glyphname = k;
lastChange = "2016-09-14 15:00:45 +0000";
layers = (
{
layerId = "F2FC958C-67D2-45D4-A67F-FC49D9225D80";
paths = (
{
closed = 1;
nodes = (
"326 451 LINE",
"455 529 OFFCURVE",
"594 670 OFFCURVE",
"594 738 CURVE SMOOTH",
"594 783 OFFCURVE",
"547 790 OFFCURVE",
"495 777 CURVE",
"504 857 LINE",
"539 878 OFFCURVE",
"579 890 OFFCURVE",
"627 890 CURVE SMOOTH",
"712 890 OFFCURVE",
"744 861 OFFCURVE",
"744 770 CURVE SMOOTH",
"744 649 OFFCURVE",
"522 497 OFFCURVE",
"473 466 CURVE",
"510 383 LINE SMOOTH",
"600 180 OFFCURVE",
"670 109 OFFCURVE",
"773 89 CURVE SMOOTH",
"799 84 LINE",
"786 6 LINE",
"740 -8 OFFCURVE",
"700 -15 OFFCURVE",
"664 -15 CURVE SMOOTH",
"544 -15 OFFCURVE",
"481 40 OFFCURVE",
"382 287 CURVE SMOOTH",
"323 434 LINE"
);
},
{
closed = 1;
nodes = (
"386 1124.1 CURVE SMOOTH",
"221 0 LINE",
"58 0 LINE",
"228 1120.1 LINE SMOOTH",
"242 1213.1 OFFCURVE",
"171 1206.1 OFFCURVE",
"97 1204.1 CURVE",
"106 1284.1 LINE",
"149 1305.1 OFFCURVE",
"199 1317.1 OFFCURVE",
"259 1317.1 CURVE SMOOTH",
"391 1317.1 OFFCURVE",
"405 1248.1 OFFCURVE"
);
}
);
width = 801;
}
);
unicode = 006B;
},
{
color = 4;
glyphname = l;
lastChange = "2016-09-14 15:00:45 +0000";
layers = (
{
layerId = "F2FC958C-67D2-45D4-A67F-FC49D9225D80";
paths = (
{
closed = 1;
nodes = (
"86 1284.1 LINE",
"129 1305.1 OFFCURVE",
"179 1317.1 OFFCURVE",
"239 1317.1 CURVE SMOOTH",
"371 1317.1 OFFCURVE",
"384 1248.1 OFFCURVE",
"366 1124.1 CURVE SMOOTH",
"248.152 378 LINE SMOOTH",
"233 283 OFFCURVE",
"225.152 216 OFFCURVE",
"225.152 172 CURVE SMOOTH",
"225.152 95 OFFCURVE",
"283.152 94 OFFCURVE",
"352.152 96 CURVE",
"344.152 15 LINE",
"315.152 0 OFFCURVE",
"259.152 -17 OFFCURVE",
"203.152 -17 CURVE SMOOTH",
"71.152 -17 OFFCURVE",
"43 48 OFFCURVE",
"65.152 194 CURVE SMOOTH",
"208 1120.1 LINE SMOOTH",
"223 1213.1 OFFCURVE",
"151 1206.1 OFFCURVE",
"77 1204.1 CURVE"
);
}
);
width = 410;
}
);
unicode = 006C;
},
{
color = 4;
glyphname = m;
lastChange = "2016-09-14 15:00:45 +0000";
layers = (
{
layerId = "F2FC958C-67D2-45D4-A67F-FC49D9225D80";
paths = (
{
closed = 1;
nodes = (
"801 625 CURVE",
"811 685 LINE",
"875 775 OFFCURVE",
"996 893 OFFCURVE",
"1134 893 CURVE SMOOTH",
"1260 893 OFFCURVE",
"1306 809 OFFCURVE",
"1284 613 CURVE SMOOTH",
"1258 378 LINE SMOOTH",
"1247 285 OFFCURVE",
"1235 218 OFFCURVE",
"1235 175 CURVE SMOOTH",
"1235 98 OFFCURVE",
"1293 97 OFFCURVE",
"1362 99 CURVE",
"1354 18 LINE",
"1325 3 OFFCURVE",
"1269 -14 OFFCURVE",
"1213 -14 CURVE SMOOTH",
"1081 -14 OFFCURVE",
"1056 51 OFFCURVE",
"1075 197 CURVE SMOOTH",
"1117 525 LINE SMOOTH",
"1135 662 OFFCURVE",
"1122 745 OFFCURVE",
"1027 745 CURVE SMOOTH",
"913 745 OFFCURVE",
"847 677 OFFCURVE"
);
},
{
closed = 1;
nodes = (
"582 0 LINE",
"648 525 LINE SMOOTH",
"665 662 OFFCURVE",
"653 745 OFFCURVE",
"549 745 CURVE SMOOTH",
"455 745 OFFCURVE",
"400 698 OFFCURVE",
"362 662 CURVE",
"267 0 LINE",
"104 0 LINE",
"196 697 LINE SMOOTH",
"210 790 OFFCURVE",
"139 783 OFFCURVE",
"65 781 CURVE",
"74 861 LINE",
"117 882 OFFCURVE",
"167 894 OFFCURVE",
"227 894 CURVE SMOOTH",
"343 894 OFFCURVE",
"388 840 OFFCURVE",
"360 722 CURVE",
"372 722 LINE",
"428 796 OFFCURVE",
"535 893 OFFCURVE",
"656 893 CURVE SMOOTH",
"790 893 OFFCURVE",
"837 809 OFFCURVE",
"815 613 CURVE SMOOTH",
"745 0 LINE"
);
}
);
width = 1402;
}
);
unicode = 006D;
},
{
color = 4;
glyphname = n;
lastChange = "2016-09-14 15:00:45 +0000";
layers = (
{
layerId = "F2FC958C-67D2-45D4-A67F-FC49D9225D80";
paths = (
{
closed = 1;
nodes = (
"360 722 CURVE",
"372 722 LINE",
"428 796 OFFCURVE",
"535 893 OFFCURVE",
"656 893 CURVE SMOOTH",
"790 893 OFFCURVE",
"848 808 OFFCURVE",
"815 613 CURVE SMOOTH",
"780 378 LINE SMOOTH",
"765 284 OFFCURVE",
"757 218 OFFCURVE",
"757 175 CURVE SMOOTH",
"757 98 OFFCURVE",
"815 97 OFFCURVE",
"884 99 CURVE",
"876 18 LINE",
"847 3 OFFCURVE",
"791 -14 OFFCURVE",
"735 -14 CURVE SMOOTH",
"603 -14 OFFCURVE",
"572 51 OFFCURVE",
"597 197 CURVE SMOOTH",
"648 525 LINE SMOOTH",
"669 662 OFFCURVE",
"653 745 OFFCURVE",
"549 745 CURVE SMOOTH",
"455 745 OFFCURVE",
"400 698 OFFCURVE",
"362 662 CURVE",
"267 0 LINE",
"104 0 LINE",
"196 697 LINE SMOOTH",
"210 790 OFFCURVE",
"139 783 OFFCURVE",
"65 781 CURVE",
"74 861 LINE",
"117 882 OFFCURVE",
"167 894 OFFCURVE",
"227 894 CURVE SMOOTH",
"343 894 OFFCURVE",
"388 840 OFFCURVE"
);
}
);
width = 924;
}
);
unicode = 006E;
},
{
color = 4;
glyphname = o;
lastChange = "2016-09-14 15:00:45 +0000";
layers = (
{
layerId = "F2FC958C-67D2-45D4-A67F-FC49D9225D80";
paths = (
{
closed = 1;
nodes = (
"595.639 472 CURVE SMOOTH",
"595.639 628 OFFCURVE",
"542.639 775 OFFCURVE",
"398.639 775 CURVE SMOOTH",
"275.639 775 OFFCURVE",
"189.639 640 OFFCURVE",
"189.639 388 CURVE SMOOTH",
"189.639 194 OFFCURVE",
"272.639 94 OFFCURVE",
"376.639 94 CURVE SMOOTH",
"517.639 94 OFFCURVE",
"595.639 238 OFFCURVE"
);
},
{
closed = 1;
nodes = (
"313.639 -26 CURVE SMOOTH",
"123.639 -26 OFFCURVE",
"24.639 138 OFFCURVE",
"24.639 347 CURVE SMOOTH",
"24.639 628 OFFCURVE",
"213.639 893 OFFCURVE",
"478.639 893 CURVE SMOOTH",
"674.639 893 OFFCURVE",
"761.639 704 OFFCURVE",
"761.639 515 CURVE SMOOTH",
"761.639 247 OFFCURVE",
"578.639 -26 OFFCURVE"
);
}
);
width = 819;
}
);
unicode = 006F;
},
{
color = 4;
glyphname = oslash;
lastChange = "2016-09-14 15:00:45 +0000";
layers = (
{
layerId = "F2FC958C-67D2-45D4-A67F-FC49D9225D80";
paths = (
{
closed = 1;
nodes = (
"667 552 CURVE SMOOTH",
"667 654 OFFCURVE",
"635 816 OFFCURVE",
"547 816 CURVE SMOOTH",
"382 816 OFFCURVE",
"307 569 OFFCURVE",
"307 320 CURVE SMOOTH",
"307 185 OFFCURVE",
"349 48 OFFCURVE",
"438 48 CURVE SMOOTH",
"585 48 OFFCURVE",
"667 304 OFFCURVE"
);
},
{
closed = 1;
nodes = (
"405 -26 CURVE SMOOTH",
"222 -26 OFFCURVE",
"126 129 OFFCURVE",
"126 327 CURVE SMOOTH",
"126 608 OFFCURVE",
"319 893 OFFCURVE",
"590 893 CURVE SMOOTH",
"773 893 OFFCURVE",
"843 715 OFFCURVE",
"843 537 CURVE SMOOTH",
"843 261 OFFCURVE",
"664 -26 OFFCURVE"
);
},
{
closed = 1;
nodes = (
"42 -46 LINE",
"198 141 LINE",
"242 157 LINE",
"668 727 LINE",
"666 765 LINE",
"767 897 LINE",
"922 904 LINE",
"771 705 LINE",
"712 670 LINE",
"288 109 LINE",
"297 78 LINE",
"205 -41 LINE"
);
}
);
width = 963;
}
);
unicode = 00F8;
},
{
color = 4;
glyphname = oe;
lastChange = "2016-09-14 15:00:45 +0000";
layers = (
{
layerId = "F2FC958C-67D2-45D4-A67F-FC49D9225D80";
paths = (
{
closed = 1;
nodes = (
"121.472 426 CURVE SMOOTH",
"169.621 730 OFFCURVE",
"384.546 900 OFFCURVE",
"607.546 900 CURVE SMOOTH",
"731.546 900 OFFCURVE",
"850.717 819 OFFCURVE",
"871.571 736 CURVE",
"946.717 819 OFFCURVE",
"1072.39 899 OFFCURVE",
"1210.39 899 CURVE SMOOTH",
"1355.39 899 OFFCURVE",
"1460.44 792 OFFCURVE",
"1427.02 581 CURVE SMOOTH",
"1422.11 550 OFFCURVE",
"1402.82 485 OFFCURVE",
"1389.43 451 CURVE",
"906.481 445 LINE",
"880.506 281 OFFCURVE",
"947.729 93 OFFCURVE",
"1128.73 93 CURVE SMOOTH",
"1198.73 93 OFFCURVE",
"1250 101 OFFCURVE",
"1362.87 157 CURVE",
"1379.47 104 LINE",
"1287.33 21 OFFCURVE",
"1159.25 -30 OFFCURVE",
"1027.25 -30 CURVE SMOOTH",
"896.248 -30 OFFCURVE",
"814.177 39 OFFCURVE",
"758.748 131 CURVE",
"651.851 18 OFFCURVE",
"557.565 -28 OFFCURVE",
"436.565 -28 CURVE SMOOTH",
"172.565 -28 OFFCURVE",
"80.767 169 OFFCURVE"
);
},
{
closed = 1;
nodes = (
"311.717 497 CURVE SMOOTH",
"279.09 291 OFFCURVE",
"323.037 76 OFFCURVE",
"487.037 76 CURVE SMOOTH",
"595.037 76 OFFCURVE",
"691.527 218 OFFCURVE",
"713.86 359 CURVE SMOOTH",
"745.22 557 OFFCURVE",
"721.866 801 OFFCURVE",
"550.866 801 CURVE SMOOTH",
"399.866 801 OFFCURVE",
"336.583 654 OFFCURVE"
);
},
{
closed = 1;
nodes = (
"920.469 527 CURVE",
"1237.95 549 LINE",
"1244.49 565 OFFCURVE",
"1252.87 599 OFFCURVE",
"1255.41 615 CURVE SMOOTH",
"1274.25 734 OFFCURVE",
"1241.87 801 OFFCURVE",
"1145.87 801 CURVE SMOOTH",
"1065.87 801 OFFCURVE",
"961.195 721 OFFCURVE"
);
}
);
width = 1407;
}
);
unicode = 0153;
userData = {
com.fontlab.hintData = {
hhints = (
{
position = -30;
width = 123;
},
{
position = -28;
width = 104;
},
{
position = 801;
width = 99;
}
);
vhints = (
{
position = 54;
width = 179;
},
{
position = 657;
width = 179;
},
{
position = 1158;
width = 177;
}
);
};
};
},
{
color = 4;
glyphname = p;
lastChange = "2016-09-14 15:00:45 +0000";
layers = (
{
layerId = "F2FC958C-67D2-45D4-A67F-FC49D9225D80";
paths = (
{
closed = 1;
nodes = (
"30 -366 LINE",
"183 675 LINE SMOOTH",
"197 768 OFFCURVE",
"126 761 OFFCURVE",
"52 759 CURVE",
"61 839 LINE",
"104 860 OFFCURVE",
"154 872 OFFCURVE",
"214 872 CURVE SMOOTH",
"343 872 OFFCURVE",
"357 818 OFFCURVE",
"338 722 CURVE",
"351 720 LINE",
"394 799 OFFCURVE",
"498 890 OFFCURVE",
"608 890 CURVE SMOOTH",
"742 890 OFFCURVE",
"848 764 OFFCURVE",
"848 542 CURVE SMOOTH",
"848 246 OFFCURVE",
"602 -17 OFFCURVE",
"362 -17 CURVE SMOOTH",
"327 -17 OFFCURVE",
"293 -14 OFFCURVE",
"275 -8 CURVE",
"298 114 LINE",
"327 100 OFFCURVE",
"348 89 OFFCURVE",
"426 89 CURVE SMOOTH",
"517 89 OFFCURVE",
"679 194 OFFCURVE",
"679 486 CURVE SMOOTH",
"679 651 OFFCURVE",
"606 746 OFFCURVE",
"528 746 CURVE SMOOTH",
"447 746 OFFCURVE",
"408 717 OFFCURVE",
"342 651 CURVE",
"189 -366 LINE"
);
}
);
width = 905;
}
);
unicode = 0070;
},
{
color = 4;
glyphname = thorn;
lastChange = "2016-09-14 15:00:45 +0000";
layers = (
{
layerId = "F2FC958C-67D2-45D4-A67F-FC49D9225D80";
paths = (
{
closed = 1;
nodes = (
"482 662 CURVE",
"341 -263 LINE",
"496 -294 LINE",
"478 -365 LINE",
"42 -365 LINE",
"62 -291 LINE",
"182 -258 LINE",
"389 1126 LINE",
"255 1149 LINE",
"267 1225 LINE",
"548 1250 LINE",
"570 1227 LINE",
"509 847 LINE",
"480 722 LINE",
"490 722 LINE",
"532 801 OFFCURVE",
"645 890 OFFCURVE",
"736 890 CURVE SMOOTH",
"868 890 OFFCURVE",
"973 733 OFFCURVE",
"973 532 CURVE SMOOTH",
"973 185 OFFCURVE",
"736 -18 OFFCURVE",
"498 -18 CURVE SMOOTH",
"472 -18 OFFCURVE",
"423 -17 OFFCURVE",
"405 -7 CURVE",
"427 107 LINE",
"447 97 OFFCURVE",
"494 89 OFFCURVE",
"514 89 CURVE SMOOTH",
"616 89 OFFCURVE",
"798 111 OFFCURVE",
"798 486 CURVE SMOOTH",
"798 651 OFFCURVE",
"734 746 OFFCURVE",
"666 746 CURVE SMOOTH",
"556 746 OFFCURVE",
"482 662 OFFCURVE"
);
}
);
width = 1022;
}
);
unicode = 00FE;
},
{
color = 4;
glyphname = q;
lastChange = "2016-09-14 15:00:45 +0000";
layers = (
{
layerId = "F2FC958C-67D2-45D4-A67F-FC49D9225D80";
paths = (
{
closed = 1;
nodes = (
"405 -364 LINE",
"565 746 LINE",
"537 772 OFFCURVE",
"492 781 OFFCURVE",
"446 781 CURVE SMOOTH",
"286 781 OFFCURVE",
"186 533 OFFCURVE",
"186 320 CURVE SMOOTH",
"186 203 OFFCURVE",
"225 102 OFFCURVE",
"308 102 CURVE SMOOTH",
"358 102 OFFCURVE",
"410 117 OFFCURVE",
"439 137 CURVE",
"442 82 LINE",
"397 27 OFFCURVE",
"338 -21 OFFCURVE",
"219 -21 CURVE SMOOTH",
"92 -21 OFFCURVE",
"24 102 OFFCURVE",
"24 264 CURVE SMOOTH",
"24 663 OFFCURVE",
"314 885 OFFCURVE",
"535 885 CURVE SMOOTH",
"612 885 OFFCURVE",
"701 876 OFFCURVE",
"736 832 CURVE",
"560 -364 LINE"
);
}
);
width = 776;
}
);
unicode = 0071;
},
{
color = 4;
glyphname = r;
lastChange = "2016-09-14 15:00:45 +0000";
layers = (
{
layerId = "F2FC958C-67D2-45D4-A67F-FC49D9225D80";
paths = (
{
closed = 1;
nodes = (
"104 0 LINE",
"196 697 LINE SMOOTH",
"208 790 OFFCURVE",
"139 783 OFFCURVE",
"65 781 CURVE",
"74 861 LINE",
"117 882 OFFCURVE",
"167 894 OFFCURVE",
"227 894 CURVE SMOOTH",
"343 894 OFFCURVE",
"384 841 OFFCURVE",
"360 722 CURVE SMOOTH",
"337 607 LINE",
"348 607 LINE",
"390 738 OFFCURVE",
"480 892 OFFCURVE",
"581 892 CURVE SMOOTH",
"643 892 OFFCURVE",
"677 849 OFFCURVE",
"677 797 CURVE SMOOTH",
"677 753 OFFCURVE",
"659 703 OFFCURVE",
"621 665 CURVE",
"593 693 OFFCURVE",
"569 699 OFFCURVE",
"535 699 CURVE SMOOTH",
"446 699 OFFCURVE",
"371 575 OFFCURVE",
"338 508 CURVE",
"271 0 LINE"
);
}
);
width = 646;
}
);
unicode = 0072;
},
{
color = 4;
glyphname = rcaron;
lastChange = "2016-09-14 15:00:45 +0000";
layers = (
{
layerId = "F2FC958C-67D2-45D4-A67F-FC49D9225D80";
paths = (
{
closed = 1;
nodes = (
"40 0 LINE",
"61.721 74 LINE",
"221.056 114 LINE",
"318.304 728 LINE",
"163.064 777 LINE",
"189.102 853 LINE",
"481.962 890 LINE",
"497.161 866 LINE",
"444.732 636 LINE",
"463.732 636 LINE",
"545.4 817 OFFCURVE",
"658.496 906 OFFCURVE",
"741.496 906 CURVE SMOOTH",
"815.496 906 OFFCURVE",
"852.943 852 OFFCURVE",
"843.599 793 CURVE SMOOTH",
"836.788 750 OFFCURVE",
"805.295 709 OFFCURVE",
"746.593 673 CURVE",
"717.344 703 OFFCURVE",
"680.354 722 OFFCURVE",
"644.354 722 CURVE SMOOTH",
"591.354 722 OFFCURVE",
"493.742 655 OFFCURVE",
"448.826 504 CURVE",
"388.164 121 LINE",
"615.779 87 LINE",
"592 0 LINE"
);
},
{
closed = 1;
nodes = (
"389.567 1159 LINE",
"480.229 1220 LINE",
"606.58 1077 LINE",
"615.58 1077 LINE",
"760.754 1217 LINE",
"799.844 1186 LINE",
"600.493 1007 LINE",
"543.275 993 LINE"
);
}
);
width = 735;
}
);
unicode = 0159;
userData = {
com.fontlab.hintData = {
hhints = (
{
position = 0;
width = 74;
},
{
position = 722;
width = 184;
},
{
position = 777;
width = 76;
}
);
vhints = (
{
position = 203;
width = 166;
}
);
};
};
},
{
color = 4;
glyphname = s;
lastChange = "2016-09-14 15:00:45 +0000";
layers = (
{
layerId = "F2FC958C-67D2-45D4-A67F-FC49D9225D80";
paths = (
{
closed = 1;
nodes = (
"652 753 CURVE SMOOTH",
"652 683 OFFCURVE",
"604 640 OFFCURVE",
"523 634 CURVE",
"496 768 OFFCURVE",
"463 826 OFFCURVE",
"381 826 CURVE SMOOTH",
"317 826 OFFCURVE",
"258 786 OFFCURVE",
"258 697 CURVE SMOOTH",
"258 519 OFFCURVE",
"619 454 OFFCURVE",
"619 220 CURVE SMOOTH",
"619 75 OFFCURVE",
"445 -35 OFFCURVE",
"298 -35 CURVE SMOOTH",
"125 -35 OFFCURVE",
"31 53 OFFCURVE",
"31 142 CURVE SMOOTH",
"31 200 OFFCURVE",
"77 251 OFFCURVE",
"161 258 CURVE",
"190 98 OFFCURVE",
"239 54 OFFCURVE",
"346 54 CURVE SMOOTH",
"420 54 OFFCURVE",
"466 109 OFFCURVE",
"466 169 CURVE SMOOTH",
"466 339 OFFCURVE",
"113 383 OFFCURVE",
"113 634 CURVE SMOOTH",
"113 769 OFFCURVE",
"254 902 OFFCURVE",
"432 902 CURVE SMOOTH",
"555 902 OFFCURVE",
"652 856 OFFCURVE"
);
}
);
width = 685;
}
);
unicode = 0073;
},
{
color = 4;
glyphname = scaron;
lastChange = "2016-09-14 15:00:45 +0000";
layers = (
{
layerId = "F2FC958C-67D2-45D4-A67F-FC49D9225D80";
paths = (
{
closed = 1;
nodes = (
"72.332 141 CURVE SMOOTH",
"82.944 208 OFFCURVE",
"140.972 265 OFFCURVE",
"224.922 271 CURVE",
"245.59 130 OFFCURVE",
"305.137 64 OFFCURVE",
"381.137 64 CURVE SMOOTH",
"451.137 64 OFFCURVE",
"517.413 91 OFFCURVE",
"529.134 165 CURVE SMOOTH",
"554.316 324 OFFCURVE",
"130.068 354 OFFCURVE",
"172.832 624 CURVE SMOOTH",
"191.204 740 OFFCURVE",
"312.546 900 OFFCURVE",
"514.546 900 CURVE SMOOTH",
"645.546 900 OFFCURVE",
"750.835 845 OFFCURVE",
"733.254 734 CURVE SMOOTH",
"720.108 651 OFFCURVE",
"658.238 595 OFFCURVE",
"570.288 589 CURVE",
"570.099 632 LINE SMOOTH",
"565.54 780 OFFCURVE",
"509.242 816 OFFCURVE",
"450.242 816 CURVE SMOOTH",
"380.242 816 OFFCURVE",
"329.372 760 OFFCURVE",
"319.235 696 CURVE SMOOTH",
"289.617 509 OFFCURVE",
"725.133 487 OFFCURVE",
"682.845 220 CURVE SMOOTH",
"659.403 72 OFFCURVE",
"488.615 -34 OFFCURVE",
"334.615 -34 CURVE SMOOTH",
"156.615 -34 OFFCURVE",
"58.077 51 OFFCURVE"
);
},
{
closed = 1;
nodes = (
"321.567 1159 LINE",
"412.229 1220 LINE",
"538.58 1077 LINE",
"547.58 1077 LINE",
"692.754 1217 LINE",
"731.844 1186 LINE",
"531.493 1007 LINE",
"474.275 993 LINE"
);
}
);
width = 697;
}
);
unicode = 0161;
userData = {
com.fontlab.hintData = {
hhints = (
{
position = -34;
width = 98;
},
{
position = 816;
width = 84;
}
);
vhints = (
{
position = 74;
width = 135;
},
{
position = 503;
width = 145;
}
);
};
};
},
{
color = 4;
glyphname = germandbls;
lastChange = "2016-09-14 15:00:45 +0000";
layers = (
{
layerId = "F2FC958C-67D2-45D4-A67F-FC49D9225D80";
paths = (
{
closed = 1;
nodes = (
"424 839 CURVE SMOOTH",
"350 135 LINE SMOOTH",
"338 25 OFFCURVE",
"315.574 -37.714 OFFCURVE",
"300 -60 CURVE",
"144 -60 LINE",
"160.034 -30.722 OFFCURVE",
"177 -5 OFFCURVE",
"187 99 CURVE SMOOTH",
"253 768 LINE",
"100 768 LINE",
"114 836 LINE",
"271 872 LINE",
"315.904 1105.69 OFFCURVE",
"512.358 1320 OFFCURVE",
"738 1320 CURVE SMOOTH",
"902.339 1320 OFFCURVE",
"971.851 1211.54 OFFCURVE",
"971.851 1071.32 CURVE SMOOTH",
"971.851 851.101 OFFCURVE",
"699 766.385 OFFCURVE",
"699 628 CURVE SMOOTH",
"699 500.421 OFFCURVE",
"971.323 411.318 OFFCURVE",
"967 224 CURVE SMOOTH",
"963 71 OFFCURVE",
"803 -35 OFFCURVE",
"673 -35 CURVE SMOOTH",
"522 -35 OFFCURVE",
"439 23 OFFCURVE",
"439 82 CURVE SMOOTH",
"439 145 OFFCURVE",
"482 200 OFFCURVE",
"561 208 CURVE",
"598 95 OFFCURVE",
"650 54 OFFCURVE",
"713 54 CURVE SMOOTH",
"774 54 OFFCURVE",
"822 88 OFFCURVE",
"822 162 CURVE SMOOTH",
"822 295.679 OFFCURVE",
"559 354.417 OFFCURVE",
"559 560 CURVE SMOOTH",
"559 752.089 OFFCURVE",
"814.226 807.94 OFFCURVE",
"814.226 1014.78 CURVE SMOOTH",
"814.226 1126.66 OFFCURVE",
"763.753 1217.37 OFFCURVE",
"667.749 1217.37 CURVE SMOOTH",
"519.092 1217.37 OFFCURVE",
"452.415 1098.24 OFFCURVE"
);
}
);
width = 1027;
}
);
unicode = 00DF;
},
{
color = 4;
glyphname = t;
lastChange = "2016-09-14 15:00:45 +0000";
layers = (
{
layerId = "F2FC958C-67D2-45D4-A67F-FC49D9225D80";
paths = (
{
closed = 1;
nodes = (
"251 347 LINE SMOOTH",
"223 175 OFFCURVE",
"244 122 OFFCURVE",
"361 122 CURVE SMOOTH",
"403 122 OFFCURVE",
"440 138 OFFCURVE",
"466 155 CURVE",
"479 102 LINE",
"426 33 OFFCURVE",
"349 -21 OFFCURVE",
"253 -21 CURVE SMOOTH",
"99 -21 OFFCURVE",
"60 88 OFFCURVE",
"91 289 CURVE SMOOTH",
"214 1080 LINE",
"368 1080 LINE"
);
},
{
closed = 1;
nodes = (
"65 766 LINE",
"75 862 LINE",
"553 862 LINE",
"534 766 LINE"
);
}
);
width = 573;
}
);
unicode = 0074;
},
{
color = 4;
glyphname = u;
lastChange = "2016-09-14 15:00:45 +0000";
layers = (
{
layerId = "F2FC958C-67D2-45D4-A67F-FC49D9225D80";
paths = (
{
closed = 1;
nodes = (
"656 689 LINE SMOOTH",
"670 782 OFFCURVE",
"599 775 OFFCURVE",
"525 773 CURVE",
"534 853 LINE",
"577 874 OFFCURVE",
"627 886 OFFCURVE",
"687 886 CURVE SMOOTH",
"819 886 OFFCURVE",
"830 817 OFFCURVE",
"814 693 CURVE SMOOTH",
"743 173 LINE SMOOTH",
"735 119 OFFCURVE",
"758 101 OFFCURVE",
"798 95 CURVE SMOOTH",
"864 83 LINE",
"846 14 LINE",
"811 1 OFFCURVE",
"759 -18 OFFCURVE",
"705 -18 CURVE SMOOTH",
"604 -20 OFFCURVE",
"564 33 OFFCURVE",
"589 148 CURVE",
"577 148 LINE",
"521 74 OFFCURVE",
"414 -23 OFFCURVE",
"293 -23 CURVE SMOOTH",
"159 -23 OFFCURVE",
"105 61 OFFCURVE",
"134 257 CURVE SMOOTH",
"196 689 LINE SMOOTH",
"210 782 OFFCURVE",
"139 775 OFFCURVE",
"65 773 CURVE",
"74 853 LINE",
"117 874 OFFCURVE",
"167 886 OFFCURVE",
"227 886 CURVE SMOOTH",
"359 886 OFFCURVE",
"374 817 OFFCURVE",
"354 693 CURVE SMOOTH",
"301 345 LINE SMOOTH",
"280 208 OFFCURVE",
"296 125 OFFCURVE",
"400 125 CURVE SMOOTH",
"494 125 OFFCURVE",
"549 172 OFFCURVE",
"587 208 CURVE"
);
}
);
width = 884;
}
);
unicode = 0075;
},
{
color = 4;
glyphname = v;
lastChange = "2016-09-14 15:00:45 +0000";
layers = (
{
layerId = "F2FC958C-67D2-45D4-A67F-FC49D9225D80";
paths = (
{
closed = 1;
nodes = (
"772 770 CURVE SMOOTH",
"772 637 OFFCURVE",
"552 234 OFFCURVE",
"407 -10 CURVE",
"303 -28 LINE",
"177 689 LINE SMOOTH",
"160 782 OFFCURVE",
"119 775 OFFCURVE",
"43 773 CURVE",
"52 853 LINE",
"93 874 OFFCURVE",
"139 886 OFFCURVE",
"195 886 CURVE SMOOTH",
"312 886 OFFCURVE",
"324 804 OFFCURVE",
"343 669 CURVE SMOOTH",
"414 155 LINE",
"534 365 OFFCURVE",
"622 527 OFFCURVE",
"622 738 CURVE SMOOTH",
"622 781 OFFCURVE",
"575 790 OFFCURVE",
"523 777 CURVE",
"532 857 LINE",
"567 878 OFFCURVE",
"607 890 OFFCURVE",
"655 890 CURVE SMOOTH",
"740 890 OFFCURVE",
"772 845 OFFCURVE"
);
}
);
width = 790;
}
);
unicode = 0076;
},
{
color = 4;
glyphname = w;
lastChange = "2016-09-14 15:00:45 +0000";
layers = (
{
layerId = "F2FC958C-67D2-45D4-A67F-FC49D9225D80";
paths = (
{
closed = 1;
nodes = (
"598 777 LINE",
"564 575 OFFCURVE",
"498 399 OFFCURVE",
"414 175 CURVE",
"343 669 LINE SMOOTH",
"324 804 OFFCURVE",
"312 886 OFFCURVE",
"195 886 CURVE SMOOTH",
"139 886 OFFCURVE",
"93 874 OFFCURVE",
"52 853 CURVE",
"43 773 LINE",
"119 775 OFFCURVE",
"160 782 OFFCURVE",
"177 689 CURVE",
"303 -28 LINE",
"407 -10 LINE",
"468 141 OFFCURVE",
"544 341 OFFCURVE",
"605 523 CURVE",
"724 -28 LINE",
"828 -10 LINE",
"962 234 OFFCURVE",
"1165 637 OFFCURVE",
"1165 770 CURVE SMOOTH",
"1165 845 OFFCURVE",
"1133 890 OFFCURVE",
"1048 890 CURVE SMOOTH",
"996 890 OFFCURVE",
"953 878 OFFCURVE",
"915 857 CURVE",
"906 777 LINE",
"963 790 OFFCURVE",
"1015 781 OFFCURVE",
"1015 738 CURVE SMOOTH",
"1015 527 OFFCURVE",
"939 365 OFFCURVE",
"835 155 CURVE",
"708 799 LINE"
);
}
);
width = 1183;
}
);
unicode = 0077;
},
{
color = 4;
glyphname = x;
lastChange = "2016-09-14 15:00:45 +0000";
layers = (
{
layerId = "F2FC958C-67D2-45D4-A67F-FC49D9225D80";
paths = (
{
closed = 1;
nodes = (
"360 514 CURVE",
"384 474 LINE",
"281 379 OFFCURVE",
"170 274 OFFCURVE",
"170 125 CURVE SMOOTH",
"170 91 OFFCURVE",
"217 86 OFFCURVE",
"269 96 CURVE",
"260 16 LINE",
"225 -5 OFFCURVE",
"185 -17 OFFCURVE",
"137 -17 CURVE SMOOTH",
"52 -17 OFFCURVE",
"20 9 OFFCURVE",
"20 93 CURVE SMOOTH",
"20 260 OFFCURVE",
"298 470 OFFCURVE"
);
},
{
closed = 1;
nodes = (
"488 359 CURVE",
"464 399 LINE",
"567 491 OFFCURVE",
"678 593 OFFCURVE",
"678 738 CURVE SMOOTH",
"678 783 OFFCURVE",
"631 790 OFFCURVE",
"579 777 CURVE",
"588 857 LINE",
"623 878 OFFCURVE",
"663 890 OFFCURVE",
"711 890 CURVE SMOOTH",
"796 890 OFFCURVE",
"828 861 OFFCURVE",
"828 770 CURVE SMOOTH",
"828 607 OFFCURVE",
"550 402 OFFCURVE"
);
},
{
closed = 1;
nodes = (
"546 383 LINE SMOOTH",
"639 180 OFFCURVE",
"706 109 OFFCURVE",
"809 89 CURVE SMOOTH",
"835 84 LINE",
"822 6 LINE",
"776 -8 OFFCURVE",
"737 -15 OFFCURVE",
"701 -15 CURVE SMOOTH",
"581 -15 OFFCURVE",
"530 45 OFFCURVE",
"418 287 CURVE SMOOTH",
"233 689 LINE SMOOTH",
"192 778 OFFCURVE",
"166 775 OFFCURVE",
"79 773 CURVE",
"88 853 LINE",
"123 874 OFFCURVE",
"163 886 OFFCURVE",
"211 886 CURVE SMOOTH",
"296 886 OFFCURVE",
"328 862 OFFCURVE",
"396 713 CURVE SMOOTH"
);
}
);
width = 883;
}
);
unicode = 0078;
},
{
color = 4;
glyphname = y;
lastChange = "2016-09-14 15:00:45 +0000";
layers = (
{
layerId = "F2FC958C-67D2-45D4-A67F-FC49D9225D80";
paths = (
{
closed = 1;
nodes = (
"435 -2 CURVE SMOOTH",
"571 230 OFFCURVE",
"760 645 OFFCURVE",
"760 778 CURVE SMOOTH",
"760 853 OFFCURVE",
"728 898 OFFCURVE",
"643 898 CURVE SMOOTH",
"591.098 898 OFFCURVE",
"547.846 886 OFFCURVE",
"510 865 CURVE",
"501 785 LINE",
"559.828 798 OFFCURVE",
"613 789 OFFCURVE",
"613 746 CURVE SMOOTH",
"613 495 OFFCURVE",
"480 228 OFFCURVE",
"432 143 CURVE",
"341 677 LINE SMOOTH",
"318 812 OFFCURVE",
"310 894 OFFCURVE",
"193 894 CURVE SMOOTH",
"137 894 OFFCURVE",
"91 882 OFFCURVE",
"50 861 CURVE",
"41 781 LINE",
"117 783 OFFCURVE",
"154 790 OFFCURVE",
"175 697 CURVE SMOOTH",
"335 0 LINE",
"276 -139 OFFCURVE",
"201 -206 OFFCURVE",
"88 -206 CURVE SMOOTH",
"31 -206 OFFCURVE",
"-15 -189 OFFCURVE",
"-73 -150 CURVE",
"-103.763 -180.763 OFFCURVE",
"-120.369 -219.882 OFFCURVE",
"-120.369 -257.076 CURVE SMOOTH",
"-120.369 -339.567 OFFCURVE",
"-44.184 -382 OFFCURVE",
"45 -382 CURVE SMOOTH",
"215.793 -382 OFFCURVE",
"326.345 -193.958 OFFCURVE"
);
}
);
width = 778;
}
);
unicode = 0079;
},
{
color = 4;
glyphname = z;
lastChange = "2016-09-14 15:00:45 +0000";
layers = (
{
layerId = "F2FC958C-67D2-45D4-A67F-FC49D9225D80";
paths = (
{
closed = 1;
nodes = (
"101 -15 LINE",
"10 26 LINE",
"584 749 LINE",
"245 749 LINE",
"177 581 LINE",
"109 594 LINE",
"145 874 LINE",
"752 874 LINE",
"752 806 LINE",
"239 151 LINE",
"243 147 LINE",
"282 156 OFFCURVE",
"369.87 180.384 OFFCURVE",
"429 156 CURVE SMOOTH",
"526 116 LINE SMOOTH",
"608.599 84.387 OFFCURVE",
"633.571 80.774 OFFCURVE",
"696 172 CURVE",
"758 144 LINE",
"654 -82 OFFCURVE",
"541 -64 OFFCURVE",
"413 -18 CURVE SMOOTH",
"280 30 LINE SMOOTH",
"196 60 OFFCURVE",
"166 35 OFFCURVE",
"134 14 CURVE SMOOTH"
);
}
);
width = 778;
}
);
unicode = 007A;
},
{
color = 4;
glyphname = zcaron;
lastChange = "2016-09-14 15:00:45 +0000";
layers = (
{
layerId = "F2FC958C-67D2-45D4-A67F-FC49D9225D80";
paths = (
{
closed = 1;
nodes = (
"66.779 87 LINE",
"666.54 780 LINE",
"329.54 780 LINE",
"241.238 595 LINE",
"166.298 608 LINE",
"216.27 873 LINE",
"888.27 873 LINE",
"876.549 799 LINE",
"263.68 99 LINE",
"623.68 99 LINE",
"746.556 275 LINE",
"812.289 267 LINE",
"728 0 LINE",
"57 0 LINE"
);
},
{
closed = 1;
nodes = (
"383.567 1159 LINE",
"475.229 1220 LINE",
"600.58 1077 LINE",
"610.58 1077 LINE",
"755.754 1217 LINE",
"794.844 1186 LINE",
"595.493 1007 LINE",
"537.275 993 LINE"
);
}
);
width = 818;
}
);
unicode = 017E;
userData = {
com.fontlab.hintData = {
hhints = (
{
position = 0;
width = 99;
},
{
position = 780;
width = 93;
}
);
vhints = (
{
position = 70;
width = 77;
}
);
};
};
},
{
glyphname = f.i;
lastChange = "2016-09-14 15:00:37 +0000";
layers = (
{
layerId = "F2FC958C-67D2-45D4-A67F-FC49D9225D80";
paths = (
{
closed = 1;
nodes = (
"385 135 LINE SMOOTH",
"374 25 OFFCURVE",
"350.574 -37.714 OFFCURVE",
"335 -60 CURVE",
"179 -60 LINE",
"195.034 -30.722 OFFCURVE",
"212 -5 OFFCURVE",
"222 99 CURVE SMOOTH",
"288 768 LINE",
"135 768 LINE",
"149 836 LINE",
"306 872 LINE",
"352.297 1118 OFFCURVE",
"571.703 1306 OFFCURVE",
"774 1306 CURVE SMOOTH",
"900 1306 OFFCURVE",
"961 1259 OFFCURVE",
"961 1173 CURVE SMOOTH",
"961 1134 OFFCURVE",
"933 1084 OFFCURVE",
"869 1060 CURVE",
"835 1103 OFFCURVE",
"747 1178 OFFCURVE",
"673 1178 CURVE SMOOTH",
"575 1178 OFFCURVE",
"506 1128 OFFCURVE",
"476 956 CURVE SMOOTH",
"459 858 LINE",
"522 866 OFFCURVE",
"759 886 OFFCURVE",
"862 886 CURVE SMOOTH",
"994 886 OFFCURVE",
"1007 817 OFFCURVE",
"989 693 CURVE SMOOTH",
"943 378 LINE SMOOTH",
"929 281 OFFCURVE",
"920 216 OFFCURVE",
"920 172 CURVE SMOOTH",
"920 95 OFFCURVE",
"978 94 OFFCURVE",
"1047 96 CURVE",
"1039 15 LINE",
"1010 0 OFFCURVE",
"954 -17 OFFCURVE",
"898 -17 CURVE SMOOTH",
"766 -17 OFFCURVE",
"738 47 OFFCURVE",
"760 194 CURVE SMOOTH",
"828 659 LINE SMOOTH",
"840.842 732.979 OFFCURVE",
"781 754 OFFCURVE",
"690 758 CURVE SMOOTH",
"450 768 LINE"
);
}
);
width = 1075;
}
);
},
{
glyphname = f.l;
lastChange = "2016-09-14 15:00:37 +0000";
layers = (
{
layerId = "F2FC958C-67D2-45D4-A67F-FC49D9225D80";
paths = (
{
closed = 1;
nodes = (
"755 194 CURVE SMOOTH",
"904 1132 LINE",
"876 1156 OFFCURVE",
"774 1178 OFFCURVE",
"713 1178 CURVE SMOOTH",
"605 1178 OFFCURVE",
"506 1130 OFFCURVE",
"476 956 CURVE SMOOTH",
"459 858 LINE",
"750 858 LINE",
"726 768 LINE",
"450 768 LINE",
"385 135 LINE SMOOTH",
"374 25 OFFCURVE",
"350.574 -37.714 OFFCURVE",
"335 -60 CURVE",
"179 -60 LINE",
"195.034 -30.722 OFFCURVE",
"212 -5 OFFCURVE",
"222 99 CURVE SMOOTH",
"288 768 LINE",
"135 768 LINE",
"149 836 LINE",
"306 872 LINE",
"353 1118 OFFCURVE",
"597 1306 OFFCURVE",
"754 1306 CURVE SMOOTH",
"956 1306 OFFCURVE",
"1066 1212 OFFCURVE",
"1078 1172 CURVE",
"938 378 LINE SMOOTH",
"921 283 OFFCURVE",
"915 216 OFFCURVE",
"915 172 CURVE SMOOTH",
"915 95 OFFCURVE",
"973 94 OFFCURVE",
"1042 96 CURVE",
"1034 15 LINE",
"1005 0 OFFCURVE",
"949 -17 OFFCURVE",
"893 -17 CURVE SMOOTH",
"761 -17 OFFCURVE",
"732 48 OFFCURVE"
);
}
);
width = 1121;
}
);
},
{
color = 4;
glyphname = germandbls.sc.alt;
lastChange = "2016-09-14 15:00:45 +0000";
layers = (
{
layerId = "F2FC958C-67D2-45D4-A67F-FC49D9225D80";
paths = (
{
closed = 1;
nodes = (
"828 560 CURVE",
"1127 847 LINE",
"1138 921 LINE",
"1065 935 OFFCURVE",
"899 949 OFFCURVE",
"743 949 CURVE SMOOTH",
"471 949 OFFCURVE",
"274 830 OFFCURVE",
"229 548 CURVE SMOOTH",
"159 110 LINE",
"20 73 LINE",
"0 0 LINE",
"331 0 LINE",
"421 571 LINE SMOOTH",
"454 780 OFFCURVE",
"532 872 OFFCURVE",
"672 872 CURVE SMOOTH",
"758 872 OFFCURVE",
"845 871 OFFCURVE",
"936 828 CURVE",
"935 823 LINE",
"598 509 LINE",
"613 461 LINE",
"796 352 OFFCURVE",
"950 283 OFFCURVE",
"934 185 CURVE SMOOTH",
"923 116 OFFCURVE",
"862 75 OFFCURVE",
"765 75 CURVE SMOOTH",
"669 75 OFFCURVE",
"642 101 OFFCURVE",
"610 144 CURVE",
"615 295 LINE",
"515 309 LINE",
"442 59 LINE",
"486 7 OFFCURVE",
"574 -24 OFFCURVE",
"735 -24 CURVE SMOOTH",
"901 -24 OFFCURVE",
"1081 76 OFFCURVE",
"1105 230 CURVE SMOOTH",
"1131 397 OFFCURVE",
"1015 445 OFFCURVE"
);
}
);
width = 1063;
}
);
userData = {
com.fontlab.hintData = {
hhints = (
{
position = -24;
width = 99;
},
{
position = 0;
width = 73;
},
{
position = 872;
width = 77;
}
);
vhints = (
{
position = 515;
width = 100;
}
);
};
};
},
{
color = 4;
glyphname = a.sc;
lastChange = "2016-09-14 15:00:45 +0000";
layers = (
{
layerId = "F2FC958C-67D2-45D4-A67F-FC49D9225D80";
paths = (
{
closed = 1;
nodes = (
"770 310 LINE",
"381 310 LINE",
"435 412 LINE",
"757 412 LINE"
);
},
{
closed = 1;
nodes = (
"749 121 LINE",
"638 730 LINE",
"320 124 LINE",
"459 80 LINE",
"435 0 LINE",
"37 0 LINE",
"58 74 LINE",
"185 129 LINE",
"634 917 LINE",
"790 948 LINE",
"954 124 LINE",
"1054 80 LINE",
"1032 0 LINE",
"587 0 LINE",
"611 74 LINE"
);
}
);
width = 1077;
}
);
userData = {
com.fontlab.hintData = {
hhints = (
{
position = 0;
width = 80;
},
{
position = 310;
width = 102;
}
);
};
};
},
{
color = 4;
glyphname = aacute.sc;
lastChange = "2016-09-14 15:00:45 +0000";
layers = (
{
layerId = "F2FC958C-67D2-45D4-A67F-FC49D9225D80";
paths = (
{
closed = 1;
nodes = (
"770 310 LINE",
"381 310 LINE",
"435 412 LINE",
"757 412 LINE"
);
},
{
closed = 1;
nodes = (
"749 121 LINE",
"638 730 LINE",
"320 124 LINE",
"459 80 LINE",
"435 0 LINE",
"37 0 LINE",
"58 74 LINE",
"185 129 LINE",
"634 917 LINE",
"790 948 LINE",
"954 124 LINE",
"1054 80 LINE",
"1032 0 LINE",
"587 0 LINE",
"611 74 LINE"
);
},
{
closed = 1;
nodes = (
"681 1053 LINE",
"855 1378 LINE",
"960 1339 LINE",
"727 1021 LINE"
);
}
);
width = 1077;
}
);
userData = {
com.fontlab.hintData = {
hhints = (
{
position = 0;
width = 80;
},
{
position = 310;
width = 102;
}
);
};
};
},
{
color = 4;
glyphname = acircumflex.sc;
lastChange = "2016-09-14 15:00:45 +0000";
layers = (
{
layerId = "F2FC958C-67D2-45D4-A67F-FC49D9225D80";
paths = (
{
closed = 1;
nodes = (
"770 310 LINE",
"381 310 LINE",
"435 412 LINE",
"757 412 LINE"
);
},
{
closed = 1;
nodes = (
"749 121 LINE",
"638 730 LINE",
"320 124 LINE",
"459 80 LINE",
"435 0 LINE",
"37 0 LINE",
"58 74 LINE",
"185 129 LINE",
"634 917 LINE",
"790 948 LINE",
"954 124 LINE",
"1054 80 LINE",
"1032 0 LINE",
"587 0 LINE",
"611 74 LINE"
);
},
{
closed = 1;
nodes = (
"536 1058 LINE",
"732 1237 LINE",
"790 1252 LINE",
"939 1066 LINE",
"883 1029 LINE",
"738 1139 LINE",
"726 1139 LINE",
"571 1028 LINE"
);
}
);
width = 1077;
}
);
userData = {
com.fontlab.hintData = {
hhints = (
{
position = 0;
width = 80;
},
{
position = 310;
width = 102;
},
{
position = 1232;
width = 20;
}
);
};
};
},
{
color = 4;
glyphname = adieresis.sc;
lastChange = "2016-09-14 15:00:45 +0000";
layers = (
{
layerId = "F2FC958C-67D2-45D4-A67F-FC49D9225D80";
paths = (
{
closed = 1;
nodes = (
"770 310 LINE",
"381 310 LINE",
"435 412 LINE",
"757 412 LINE"
);
},
{
closed = 1;
nodes = (
"749 121 LINE",
"638 730 LINE",
"320 124 LINE",
"459 80 LINE",
"435 0 LINE",
"37 0 LINE",
"58 74 LINE",
"185 129 LINE",
"634 917 LINE",
"790 948 LINE",
"954 124 LINE",
"1054 80 LINE",
"1032 0 LINE",
"587 0 LINE",
"611 74 LINE"
);
},
{
closed = 1;
nodes = (
"520 1109 CURVE SMOOTH",
"527 1156 OFFCURVE",
"577 1186 OFFCURVE",
"617 1186 CURVE SMOOTH",
"661 1186 OFFCURVE",
"698 1155 OFFCURVE",
"691 1109 CURVE SMOOTH",
"683 1060 OFFCURVE",
"636 1027 OFFCURVE",
"592 1027 CURVE SMOOTH",
"549 1027 OFFCURVE",
"512 1060 OFFCURVE"
);
},
{
closed = 1;
nodes = (
"788 1109 CURVE SMOOTH",
"795 1156 OFFCURVE",
"845 1186 OFFCURVE",
"885 1186 CURVE SMOOTH",
"929 1186 OFFCURVE",
"967 1155 OFFCURVE",
"960 1109 CURVE SMOOTH",
"952 1060 OFFCURVE",
"904 1027 OFFCURVE",
"860 1027 CURVE SMOOTH",
"817 1027 OFFCURVE",
"780 1060 OFFCURVE"
);
}
);
width = 1077;
}
);
userData = {
com.fontlab.hintData = {
hhints = (
{
position = 0;
width = 80;
},
{
position = 310;
width = 102;
},
{
position = 1027;
width = 159;
}
);
vhints = (
{
position = 520;
width = 171;
},
{
position = 788;
width = 172;
}
);
};
};
},
{
color = 4;
glyphname = agrave.sc;
lastChange = "2016-09-14 15:00:45 +0000";
layers = (
{
layerId = "F2FC958C-67D2-45D4-A67F-FC49D9225D80";
paths = (
{
closed = 1;
nodes = (
"751 310 LINE",
"362 310 LINE",
"416 412 LINE",
"738 412 LINE"
);
},
{
closed = 1;
nodes = (
"730 121 LINE",
"619 730 LINE",
"301 124 LINE",
"440 80 LINE",
"416 0 LINE",
"18 0 LINE",
"39 74 LINE",
"166 129 LINE",
"615 917 LINE",
"771 948 LINE",
"935 124 LINE",
"1035 80 LINE",
"1013 0 LINE",
"568 0 LINE",
"592 74 LINE"
);
},
{
closed = 1;
nodes = (
"557 1350 LINE",
"678 1388 LINE",
"757 1055 LINE",
"696 1020 LINE"
);
}
);
width = 1037;
}
);
userData = {
com.fontlab.hintData = {
hhints = (
{
position = 0;
width = 80;
},
{
position = 310;
width = 102;
}
);
};
};
},
{
color = 4;
glyphname = aring.sc;
lastChange = "2016-09-14 15:00:45 +0000";
layers = (
{
layerId = "F2FC958C-67D2-45D4-A67F-FC49D9225D80";
paths = (
{
closed = 1;
nodes = (
"770 310 LINE",
"381 310 LINE",
"435 412 LINE",
"757 412 LINE"
);
},
{
closed = 1;
nodes = (
"749 121 LINE",
"638 730 LINE",
"320 124 LINE",
"459 80 LINE",
"435 0 LINE",
"37 0 LINE",
"58 74 LINE",
"185 129 LINE",
"634 917 LINE",
"790 948 LINE",
"954 124 LINE",
"1054 80 LINE",
"1032 0 LINE",
"587 0 LINE",
"611 74 LINE"
);
},
{
closed = 1;
nodes = (
"588 1173 CURVE SMOOTH",
"603 1265 OFFCURVE",
"690 1345 OFFCURVE",
"783 1345 CURVE SMOOTH",
"879 1345 OFFCURVE",
"928 1275 OFFCURVE",
"913 1182 CURVE SMOOTH",
"899 1092 OFFCURVE",
"817 1007 OFFCURVE",
"715 1007 CURVE SMOOTH",
"623 1007 OFFCURVE",
"572 1071 OFFCURVE"
);
},
{
closed = 1;
nodes = (
"662 1184 CURVE SMOOTH",
"652 1123 OFFCURVE",
"671 1056 OFFCURVE",
"735 1056 CURVE SMOOTH",
"789 1056 OFFCURVE",
"827 1097 OFFCURVE",
"839 1170 CURVE SMOOTH",
"849 1232 OFFCURVE",
"825 1296 OFFCURVE",
"763 1296 CURVE SMOOTH",
"704 1296 OFFCURVE",
"671 1240 OFFCURVE"
);
}
);
width = 1077;
}
);
userData = {
com.fontlab.hintData = {
hhints = (
{
position = 0;
width = 80;
},
{
position = 310;
width = 102;
},
{
position = 1007;
width = 49;
},
{
position = 1296;
width = 49;
}
);
};
};
},
{
color = 4;
glyphname = atilde.sc;
lastChange = "2016-09-14 15:00:45 +0000";
layers = (
{
layerId = "F2FC958C-67D2-45D4-A67F-FC49D9225D80";
paths = (
{
closed = 1;
nodes = (
"770 310 LINE",
"381 310 LINE",
"435 412 LINE",
"757 412 LINE"
);
},
{
closed = 1;
nodes = (
"749 121 LINE",
"638 730 LINE",
"320 124 LINE",
"459 80 LINE",
"435 0 LINE",
"37 0 LINE",
"58 74 LINE",
"185 129 LINE",
"634 917 LINE",
"790 948 LINE",
"954 124 LINE",
"1054 80 LINE",
"1032 0 LINE",
"587 0 LINE",
"611 74 LINE"
);
},
{
closed = 1;
nodes = (
"511 1032 LINE SMOOTH",
"511 1032 OFFCURVE",
"576 1186 OFFCURVE",
"670 1174 CURVE SMOOTH",
"891 1145 LINE SMOOTH",
"916 1142 OFFCURVE",
"954 1185 OFFCURVE",
"954 1185 CURVE",
"1003 1183 LINE SMOOTH",
"1003 1183 OFFCURVE",
"932 1027 OFFCURVE",
"837 1040 CURVE SMOOTH",
"616 1072 LINE SMOOTH",
"589 1076 OFFCURVE",
"550 1023 OFFCURVE",
"550 1023 CURVE"
);
}
);
width = 1077;
}
);
userData = {
com.fontlab.hintData = {
hhints = (
{
position = 0;
width = 80;
},
{
position = 310;
width = 102;
}
);
};
};
},
{
color = 4;
glyphname = ae.sc;
lastChange = "2016-09-14 15:00:45 +0000";
layers = (
{
layerId = "F2FC958C-67D2-45D4-A67F-FC49D9225D80";
paths = (
{
closed = 1;
nodes = (
"352 126 LINE",
"493 83 LINE",
"467 1 LINE",
"52 1 LINE",
"73 76 LINE",
"218 131 LINE",
"783 812 LINE",
"585 851 LINE",
"607 927 LINE",
"1520 927 LINE",
"1456 654 LINE",
"1359 667 LINE",
"1354 835 LINE",
"1053 835 LINE",
"1001 503 LINE",
"1178 503 LINE",
"1212 583 LINE",
"1313 597 LINE",
"1231 298 LINE",
"1138 285 LINE",
"1147 410 LINE",
"986 410 LINE",
"936 96 LINE",
"1271 96 LINE",
"1367 276 LINE",
"1459 263 LINE",
"1397 0 LINE",
"588 0 LINE",
"608 74 LINE",
"752 121 LINE",
"785 327 LINE",
"512 327 LINE"
);
},
{
closed = 1;
nodes = (
"589 423 LINE",
"800 423 LINE",
"852 754 LINE"
);
}
);
width = 1452;
}
);
userData = {
com.fontlab.hintData = {
hhints = (
{
position = 0;
width = 96;
},
{
position = 0;
width = 74;
},
{
position = 327;
width = 96;
},
{
position = 410;
width = 93;
},
{
position = 835;
width = 92;
},
{
position = 851;
width = 76;
}
);
vhints = (
{
position = 1138;
width = 93;
},
{
position = 1359;
width = 97;
}
);
};
};
},
{
color = 4;
glyphname = b.sc;
lastChange = "2016-09-14 15:00:45 +0000";
layers = (
{
layerId = "F2FC958C-67D2-45D4-A67F-FC49D9225D80";
paths = (
{
closed = 1;
nodes = (
"37 0 LINE",
"60 74 LINE",
"204 121 LINE",
"312 804 LINE",
"176 834 LINE",
"198 911 LINE",
"328 932 OFFCURVE",
"483 957 OFFCURVE",
"638 957 CURVE SMOOTH",
"871 957 OFFCURVE",
"949 847 OFFCURVE",
"930 727 CURVE SMOOTH",
"918 651 OFFCURVE",
"862 558 OFFCURVE",
"719 516 CURVE",
"718 509 LINE",
"896 501 OFFCURVE",
"974 425 OFFCURVE",
"953 290 CURVE SMOOTH",
"930 147 OFFCURVE",
"799 0 OFFCURVE",
"465 0 CURVE SMOOTH"
);
},
{
closed = 1;
nodes = (
"392 96 LINE",
"522 96 LINE SMOOTH",
"656 96 OFFCURVE",
"737 163 OFFCURVE",
"755 277 CURVE SMOOTH",
"769 363 OFFCURVE",
"715 442 OFFCURVE",
"580 442 CURVE SMOOTH",
"447 442 LINE"
);
},
{
closed = 1;
nodes = (
"460 525 LINE",
"626 525 LINE",
"705 565 OFFCURVE",
"732 614 OFFCURVE",
"747 709 CURVE SMOOTH",
"759 786 OFFCURVE",
"729 871 OFFCURVE",
"565 871 CURVE SMOOTH",
"550 871 OFFCURVE",
"531 870 OFFCURVE",
"514 868 CURVE"
);
}
);
width = 943;
}
);
userData = {
com.fontlab.hintData = {
hhints = (
{
position = 0;
width = 96;
},
{
position = 0;
width = 74;
},
{
position = 442;
width = 83;
},
{
position = 834;
width = 77;
},
{
position = 871;
width = 86;
}
);
};
};
},
{
color = 4;
glyphname = c.sc;
lastChange = "2016-09-14 15:00:45 +0000";
layers = (
{
layerId = "F2FC958C-67D2-45D4-A67F-FC49D9225D80";
paths = (
{
closed = 1;
nodes = (
"109 439 CURVE SMOOTH",
"144 659 OFFCURVE",
"330 947 OFFCURVE",
"673 947 CURVE SMOOTH",
"776 947 OFFCURVE",
"877 929 OFFCURVE",
"944 880 CURVE",
"879 602 LINE",
"783 615 LINE",
"787 775 LINE",
"769 814 OFFCURVE",
"734 852 OFFCURVE",
"621 852 CURVE SMOOTH",
"467 852 OFFCURVE",
"347 719 OFFCURVE",
"312 498 CURVE SMOOTH",
"271 242 OFFCURVE",
"410 108 OFFCURVE",
"556 108 CURVE SMOOTH",
"693 108 OFFCURVE",
"766 147 OFFCURVE",
"839 191 CURVE",
"862 115 LINE",
"788 51 OFFCURVE",
"669 -24 OFFCURVE",
"468 -24 CURVE SMOOTH",
"243 -24 OFFCURVE",
"61 138 OFFCURVE"
);
}
);
width = 879;
}
);
userData = {
com.fontlab.hintData = {
hhints = (
{
position = -24;
width = 132;
},
{
position = 852;
width = 95;
}
);
vhints = (
{
position = 783;
width = 96;
}
);
};
};
},
{
color = 4;
glyphname = ccedilla.sc;
lastChange = "2016-09-14 15:00:45 +0000";
layers = (
{
layerId = "F2FC958C-67D2-45D4-A67F-FC49D9225D80";
paths = (
{
closed = 1;
nodes = (
"109 439 CURVE SMOOTH",
"144 659 OFFCURVE",
"330 947 OFFCURVE",
"673 947 CURVE SMOOTH",
"776 947 OFFCURVE",
"877 929 OFFCURVE",
"944 880 CURVE",
"879 602 LINE",
"783 615 LINE",
"787 775 LINE",
"769 814 OFFCURVE",
"734 852 OFFCURVE",
"621 852 CURVE SMOOTH",
"467 852 OFFCURVE",
"347 719 OFFCURVE",
"312 498 CURVE SMOOTH",
"271 242 OFFCURVE",
"410 108 OFFCURVE",
"556 108 CURVE SMOOTH",
"693 108 OFFCURVE",
"766 147 OFFCURVE",
"839 191 CURVE",
"862 115 LINE",
"788 51 OFFCURVE",
"669 -24 OFFCURVE",
"468 -24 CURVE SMOOTH",
"243 -24 OFFCURVE",
"61 138 OFFCURVE"
);
},
{
closed = 1;
nodes = (
"337 -335 LINE",
"397 -316 OFFCURVE",
"431 -282 OFFCURVE",
"436 -252 CURVE SMOOTH",
"441 -218 OFFCURVE",
"411 -176 OFFCURVE",
"380 -142 CURVE",
"500 -1 LINE",
"574 -1 LINE",
"508 -80 LINE",
"540 -113 OFFCURVE",
"584 -164 OFFCURVE",
"573 -231 CURVE SMOOTH",
"560 -310 OFFCURVE",
"468 -359 OFFCURVE",
"347 -393 CURVE"
);
}
);
width = 879;
}
);
userData = {
com.fontlab.hintData = {
hhints = (
{
position = -24;
width = 23;
},
{
position = 852;
width = 95;
}
);
vhints = (
{
position = 783;
width = 96;
}
);
};
};
},
{
color = 4;
glyphname = d.sc;
lastChange = "2016-09-14 15:00:45 +0000";
layers = (
{
layerId = "F2FC958C-67D2-45D4-A67F-FC49D9225D80";
paths = (
{
closed = 1;
nodes = (
"36 0 LINE",
"62 74 LINE",
"212 129 LINE",
"317 790 LINE",
"170 820 LINE",
"191 896 LINE",
"362 927 OFFCURVE",
"510 945 OFFCURVE",
"632 945 CURVE SMOOTH",
"1053 945 OFFCURVE",
"1137 727 OFFCURVE",
"1101 498 CURVE SMOOTH",
"1059 230 OFFCURVE",
"808 0 OFFCURVE",
"410 0 CURVE SMOOTH"
);
},
{
closed = 1;
nodes = (
"399 104 LINE",
"454 104 LINE SMOOTH",
"707 104 OFFCURVE",
"849 245 OFFCURVE",
"884 463 CURVE SMOOTH",
"923 708 OFFCURVE",
"824 842 OFFCURVE",
"578 842 CURVE SMOOTH",
"558 842 OFFCURVE",
"537 842 OFFCURVE",
"516 838 CURVE"
);
}
);
width = 1061;
}
);
userData = {
com.fontlab.hintData = {
hhints = (
{
position = 0;
width = 104;
},
{
position = 820;
width = 76;
},
{
position = 842;
width = 103;
}
);
};
};
},
{
color = 4;
glyphname = eth.sc;
lastChange = "2016-09-14 15:00:45 +0000";
layers = (
{
layerId = "F2FC958C-67D2-45D4-A67F-FC49D9225D80";
paths = (
{
closed = 1;
nodes = (
"145 393 LINE",
"171 485 LINE",
"715 521 LINE",
"688 430 LINE"
);
},
{
closed = 1;
nodes = (
"77 0 LINE",
"103 74 LINE",
"253 129 LINE",
"358 790 LINE",
"211 820 LINE",
"232 896 LINE",
"403 927 OFFCURVE",
"551 945 OFFCURVE",
"673 945 CURVE SMOOTH",
"1094 945 OFFCURVE",
"1178 727 OFFCURVE",
"1142 498 CURVE SMOOTH",
"1100 230 OFFCURVE",
"849 0 OFFCURVE",
"451 0 CURVE SMOOTH"
);
},
{
closed = 1;
nodes = (
"440 104 LINE",
"495 104 LINE SMOOTH",
"748 104 OFFCURVE",
"890 245 OFFCURVE",
"925 463 CURVE SMOOTH",
"964 708 OFFCURVE",
"865 842 OFFCURVE",
"619 842 CURVE SMOOTH",
"599 842 OFFCURVE",
"578 842 OFFCURVE",
"557 838 CURVE"
);
}
);
width = 1034;
}
);
userData = {
com.fontlab.hintData = {
hhints = (
{
position = 0;
width = 104;
},
{
position = 820;
width = 76;
},
{
position = 842;
width = 103;
}
);
};
};
},
{
color = 4;
glyphname = e.sc;
lastChange = "2016-09-14 15:00:45 +0000";
layers = (
{
layerId = "F2FC958C-67D2-45D4-A67F-FC49D9225D80";
paths = (
{
closed = 1;
nodes = (
"172 851 LINE",
"195 927 LINE",
"992 927 LINE",
"928 654 LINE",
"831 667 LINE",
"826 835 LINE",
"515 835 LINE",
"463 503 LINE",
"640 503 LINE",
"674 583 LINE",
"775 597 LINE",
"693 298 LINE",
"600 285 LINE",
"609 410 LINE",
"448 410 LINE",
"398 96 LINE",
"743 96 LINE",
"839 276 LINE",
"931 263 LINE",
"869 0 LINE",
"44 0 LINE",
"64 74 LINE",
"208 121 LINE",
"317 809 LINE"
);
}
);
width = 925;
}
);
userData = {
com.fontlab.hintData = {
hhints = (
{
position = 0;
width = 96;
},
{
position = 0;
width = 74;
},
{
position = 410;
width = 93;
},
{
position = 835;
width = 92;
},
{
position = 851;
width = 76;
}
);
vhints = (
{
position = 600;
width = 93;
},
{
position = 831;
width = 97;
}
);
};
};
},
{
color = 4;
glyphname = eacute.sc;
lastChange = "2016-09-14 15:00:45 +0000";
layers = (
{
layerId = "F2FC958C-67D2-45D4-A67F-FC49D9225D80";
paths = (
{
closed = 1;
nodes = (
"164 851 LINE",
"187 927 LINE",
"984 927 LINE",
"920 654 LINE",
"823 667 LINE",
"818 835 LINE",
"507 835 LINE",
"455 503 LINE",
"632 503 LINE",
"666 583 LINE",
"767 597 LINE",
"685 298 LINE",
"592 285 LINE",
"601 410 LINE",
"440 410 LINE",
"390 96 LINE",
"735 96 LINE",
"831 276 LINE",
"923 263 LINE",
"861 0 LINE",
"36 0 LINE",
"56 74 LINE",
"200 121 LINE",
"309 809 LINE"
);
},
{
closed = 1;
nodes = (
"579 1051 LINE",
"754 1376 LINE",
"859 1337 LINE",
"625 1019 LINE"
);
}
);
width = 802;
}
);
userData = {
com.fontlab.hintData = {
hhints = (
{
position = 0;
width = 96;
},
{
position = 0;
width = 74;
},
{
position = 410;
width = 93;
},
{
position = 835;
width = 92;
},
{
position = 851;
width = 76;
}
);
vhints = (
{
position = 592;
width = 93;
},
{
position = 823;
width = 97;
}
);
};
};
},
{
color = 4;
glyphname = ecircumflex.sc;
lastChange = "2016-09-14 15:00:45 +0000";
layers = (
{
layerId = "F2FC958C-67D2-45D4-A67F-FC49D9225D80";
paths = (
{
closed = 1;
nodes = (
"172 851 LINE",
"195 927 LINE",
"992 927 LINE",
"928 654 LINE",
"831 667 LINE",
"826 835 LINE",
"515 835 LINE",
"463 503 LINE",
"640 503 LINE",
"674 583 LINE",
"775 597 LINE",
"693 298 LINE",
"600 285 LINE",
"609 410 LINE",
"448 410 LINE",
"398 96 LINE",
"743 96 LINE",
"839 276 LINE",
"931 263 LINE",
"869 0 LINE",
"44 0 LINE",
"64 74 LINE",
"208 121 LINE",
"317 809 LINE"
);
},
{
closed = 1;
nodes = (
"452 1056 LINE",
"649 1235 LINE",
"706 1250 LINE",
"855 1064 LINE",
"800 1027 LINE",
"654 1137 LINE",
"643 1137 LINE",
"487 1026 LINE"
);
}
);
width = 925;
}
);
userData = {
com.fontlab.hintData = {
hhints = (
{
position = 0;
width = 96;
},
{
position = 0;
width = 74;
},
{
position = 410;
width = 93;
},
{
position = 835;
width = 92;
},
{
position = 851;
width = 76;
},
{
position = 1230;
width = 20;
}
);
vhints = (
{
position = 600;
width = 93;
},
{
position = 831;
width = 97;
}
);
};
};
},
{
color = 4;
glyphname = edieresis.sc;
lastChange = "2016-09-14 15:00:45 +0000";
layers = (
{
layerId = "F2FC958C-67D2-45D4-A67F-FC49D9225D80";
paths = (
{
closed = 1;
nodes = (
"172 851 LINE",
"195 927 LINE",
"992 927 LINE",
"928 654 LINE",
"831 667 LINE",
"826 835 LINE",
"515 835 LINE",
"463 503 LINE",
"640 503 LINE",
"674 583 LINE",
"775 597 LINE",
"693 298 LINE",
"600 285 LINE",
"609 410 LINE",
"448 410 LINE",
"398 96 LINE",
"743 96 LINE",
"839 276 LINE",
"931 263 LINE",
"869 0 LINE",
"44 0 LINE",
"64 74 LINE",
"208 121 LINE",
"317 809 LINE"
);
},
{
closed = 1;
nodes = (
"431 1106 CURVE SMOOTH",
"438 1153 OFFCURVE",
"487 1183 OFFCURVE",
"527 1183 CURVE SMOOTH",
"571 1183 OFFCURVE",
"608 1152 OFFCURVE",
"601 1106 CURVE SMOOTH",
"593 1057 OFFCURVE",
"546 1024 OFFCURVE",
"502 1024 CURVE SMOOTH",
"459 1024 OFFCURVE",
"423 1057 OFFCURVE"
);
},
{
closed = 1;
nodes = (
"699 1106 CURVE SMOOTH",
"706 1153 OFFCURVE",
"755 1183 OFFCURVE",
"795 1183 CURVE SMOOTH",
"839 1183 OFFCURVE",
"878 1152 OFFCURVE",
"871 1106 CURVE SMOOTH",
"863 1057 OFFCURVE",
"814 1024 OFFCURVE",
"770 1024 CURVE SMOOTH",
"727 1024 OFFCURVE",
"691 1057 OFFCURVE"
);
}
);
width = 925;
}
);
userData = {
com.fontlab.hintData = {
hhints = (
{
position = 0;
width = 96;
},
{
position = 0;
width = 74;
},
{
position = 410;
width = 93;
},
{
position = 835;
width = 92;
},
{
position = 851;
width = 76;
},
{
position = 1024;
width = 159;
}
);
vhints = (
{
position = 431;
width = 170;
},
{
position = 600;
width = 93;
},
{
position = 699;
width = 172;
},
{
position = 831;
width = 97;
}
);
};
};
},
{
color = 4;
glyphname = egrave.sc;
lastChange = "2016-09-14 15:00:45 +0000";
layers = (
{
layerId = "F2FC958C-67D2-45D4-A67F-FC49D9225D80";
paths = (
{
closed = 1;
nodes = (
"164 851 LINE",
"187 927 LINE",
"984 927 LINE",
"920 654 LINE",
"823 667 LINE",
"818 835 LINE",
"507 835 LINE",
"455 503 LINE",
"632 503 LINE",
"666 583 LINE",
"767 597 LINE",
"685 298 LINE",
"592 285 LINE",
"601 410 LINE",
"440 410 LINE",
"390 96 LINE",
"735 96 LINE",
"831 276 LINE",
"923 263 LINE",
"861 0 LINE",
"36 0 LINE",
"56 74 LINE",
"200 121 LINE",
"309 809 LINE"
);
},
{
closed = 1;
nodes = (
"487 1341 LINE",
"608 1379 LINE",
"688 1046 LINE",
"626 1011 LINE"
);
}
);
width = 802;
}
);
userData = {
com.fontlab.hintData = {
hhints = (
{
position = 0;
width = 96;
},
{
position = 0;
width = 74;
},
{
position = 410;
width = 93;
},
{
position = 835;
width = 92;
},
{
position = 851;
width = 76;
}
);
vhints = (
{
position = 592;
width = 93;
},
{
position = 823;
width = 97;
}
);
};
};
},
{
color = 4;
glyphname = f.sc;
lastChange = "2016-09-14 15:00:45 +0000";
layers = (
{
layerId = "F2FC958C-67D2-45D4-A67F-FC49D9225D80";
paths = (
{
closed = 1;
nodes = (
"172 854 LINE",
"195 930 LINE",
"1008 930 LINE",
"936 658 LINE",
"835 672 LINE",
"841 838 LINE",
"516 838 LINE",
"457 470 LINE",
"676 470 LINE",
"715 554 LINE",
"815 568 LINE",
"742 276 LINE",
"646 262 LINE",
"649 378 LINE",
"443 378 LINE",
"399 122 LINE",
"591 83 LINE",
"565 0 LINE",
"44 0 LINE",
"64 74 LINE",
"208 121 LINE",
"318 812 LINE"
);
}
);
width = 899;
}
);
userData = {
com.fontlab.hintData = {
hhints = (
{
position = 0;
width = 74;
},
{
position = 378;
width = 92;
},
{
position = 838;
width = 92;
},
{
position = 854;
width = 76;
}
);
vhints = (
{
position = 646;
width = 96;
},
{
position = 835;
width = 101;
}
);
};
};
},
{
color = 4;
glyphname = g.sc;
lastChange = "2016-09-14 15:00:45 +0000";
layers = (
{
layerId = "F2FC958C-67D2-45D4-A67F-FC49D9225D80";
paths = (
{
closed = 1;
nodes = (
"106 421 CURVE SMOOTH",
"156 734 OFFCURVE",
"433 947 OFFCURVE",
"723 947 CURVE SMOOTH",
"858 947 OFFCURVE",
"967 929 OFFCURVE",
"1038 900 CURVE",
"967 608 LINE",
"863 623 LINE",
"863 788 LINE",
"837 812 OFFCURVE",
"761 848 OFFCURVE",
"657 848 CURVE SMOOTH",
"516 848 OFFCURVE",
"360 742 OFFCURVE",
"319 480 CURVE SMOOTH",
"280 234 OFFCURVE",
"360 77 OFFCURVE",
"546 77 CURVE SMOOTH",
"651 77 OFFCURVE",
"694 86 OFFCURVE",
"724 112 CURVE",
"750 280 LINE",
"570 318 LINE",
"596 401 LINE",
"1072 401 LINE",
"1044 317 LINE",
"937 285 LINE",
"897 29 LINE",
"780 -14 OFFCURVE",
"653 -31 OFFCURVE",
"486 -31 CURVE SMOOTH",
"182 -31 OFFCURVE",
"66 168 OFFCURVE"
);
}
);
width = 1044;
}
);
userData = {
com.fontlab.hintData = {
hhints = (
{
position = -31;
width = 108;
},
{
position = 318;
width = 83;
},
{
position = 848;
width = 99;
}
);
vhints = (
{
position = 863;
width = 104;
}
);
};
};
},
{
color = 4;
glyphname = h.sc;
lastChange = "2016-09-14 15:00:45 +0000";
layers = (
{
layerId = "F2FC958C-67D2-45D4-A67F-FC49D9225D80";
paths = (
{
closed = 1;
nodes = (
"172 854 LINE",
"195 930 LINE",
"679 930 LINE",
"657 854 LINE",
"513 816 LINE",
"464 508 LINE",
"889 508 LINE",
"938 812 LINE",
"791 854 LINE",
"814 930 LINE",
"1300 930 LINE",
"1276 854 LINE",
"1133 816 LINE",
"1022 114 LINE",
"1169 80 LINE",
"1146 0 LINE",
"663 0 LINE",
"685 74 LINE",
"828 121 LINE",
"873 405 LINE",
"448 405 LINE",
"402 114 LINE",
"551 80 LINE",
"525 0 LINE",
"44 0 LINE",
"64 74 LINE",
"208 121 LINE",
"318 812 LINE"
);
}
);
width = 1195;
}
);
userData = {
com.fontlab.hintData = {
hhints = (
{
position = 0;
width = 80;
},
{
position = 405;
width = 103;
},
{
position = 854;
width = 76;
}
);
};
};
},
{
color = 4;
glyphname = i.sc;
lastChange = "2016-09-14 15:00:45 +0000";
layers = (
{
layerId = "F2FC958C-67D2-45D4-A67F-FC49D9225D80";
paths = (
{
closed = 1;
nodes = (
"172 854 LINE",
"195 930 LINE",
"276 930 OFFCURVE",
"526 930 OFFCURVE",
"679 930 CURVE",
"657 854 LINE",
"512 816 LINE",
"401 114 LINE",
"547 80 LINE",
"524 0 LINE",
"44 0 LINE",
"64 74 LINE",
"208 121 LINE",
"318 812 LINE"
);
}
);
width = 574;
}
);
userData = {
com.fontlab.hintData = {
hhints = (
{
position = 0;
width = 80;
},
{
position = 854;
width = 76;
}
);
};
};
},
{
color = 4;
glyphname = iacute.sc;
lastChange = "2016-09-14 15:00:45 +0000";
layers = (
{
layerId = "F2FC958C-67D2-45D4-A67F-FC49D9225D80";
paths = (
{
closed = 1;
nodes = (
"172 854 LINE",
"195 930 LINE",
"276 930 OFFCURVE",
"526 930 OFFCURVE",
"679 930 CURVE",
"657 854 LINE",
"512 816 LINE",
"401 114 LINE",
"547 80 LINE",
"524 0 LINE",
"44 0 LINE",
"64 74 LINE",
"208 121 LINE",
"318 812 LINE"
);
},
{
closed = 1;
nodes = (
"374 1055 LINE",
"549 1380 LINE",
"653 1341 LINE",
"420 1023 LINE"
);
}
);
width = 574;
}
);
userData = {
com.fontlab.hintData = {
hhints = (
{
position = 0;
width = 80;
},
{
position = 854;
width = 76;
}
);
};
};
},
{
color = 4;
glyphname = icircumflex.sc;
lastChange = "2016-09-14 15:00:45 +0000";
layers = (
{
layerId = "F2FC958C-67D2-45D4-A67F-FC49D9225D80";
paths = (
{
closed = 1;
nodes = (
"172 854 LINE",
"195 930 LINE",
"276 930 OFFCURVE",
"526 930 OFFCURVE",
"679 930 CURVE",
"657 854 LINE",
"512 816 LINE",
"401 114 LINE",
"547 80 LINE",
"524 0 LINE",
"44 0 LINE",
"64 74 LINE",
"208 121 LINE",
"318 812 LINE"
);
},
{
closed = 1;
nodes = (
"257 1057 LINE",
"454 1236 LINE",
"510 1251 LINE",
"659 1065 LINE",
"605 1028 LINE",
"458 1138 LINE",
"448 1138 LINE",
"291 1027 LINE"
);
}
);
width = 574;
}
);
userData = {
com.fontlab.hintData = {
hhints = (
{
position = 0;
width = 80;
},
{
position = 854;
width = 76;
},
{
position = 1231;
width = 20;
}
);
};
};
},
{
color = 4;
glyphname = idieresis.sc;
lastChange = "2016-09-14 15:00:45 +0000";
layers = (
{
layerId = "F2FC958C-67D2-45D4-A67F-FC49D9225D80";
paths = (
{
closed = 1;
nodes = (
"172 854 LINE",
"195 930 LINE",
"276 930 OFFCURVE",
"526 930 OFFCURVE",
"679 930 CURVE",
"657 854 LINE",
"512 816 LINE",
"401 114 LINE",
"547 80 LINE",
"524 0 LINE",
"44 0 LINE",
"64 74 LINE",
"208 121 LINE",
"318 812 LINE"
);
},
{
closed = 1;
nodes = (
"253 1109 CURVE SMOOTH",
"260 1156 OFFCURVE",
"310 1186 OFFCURVE",
"350 1186 CURVE SMOOTH",
"394 1186 OFFCURVE",
"431 1155 OFFCURVE",
"424 1109 CURVE SMOOTH",
"416 1060 OFFCURVE",
"369 1027 OFFCURVE",
"325 1027 CURVE SMOOTH",
"282 1027 OFFCURVE",
"245 1060 OFFCURVE"
);
},
{
closed = 1;
nodes = (
"521 1109 CURVE SMOOTH",
"528 1156 OFFCURVE",
"578 1186 OFFCURVE",
"618 1186 CURVE SMOOTH",
"662 1186 OFFCURVE",
"700 1155 OFFCURVE",
"693 1109 CURVE SMOOTH",
"685 1060 OFFCURVE",
"637 1027 OFFCURVE",
"593 1027 CURVE SMOOTH",
"550 1027 OFFCURVE",
"513 1060 OFFCURVE"
);
}
);
width = 574;
}
);
userData = {
com.fontlab.hintData = {
hhints = (
{
position = 0;
width = 80;
},
{
position = 854;
width = 76;
},
{
position = 1027;
width = 159;
}
);
vhints = (
{
position = 253;
width = 171;
},
{
position = 521;
width = 172;
}
);
};
};
},
{
color = 4;
glyphname = igrave.sc;
lastChange = "2016-09-14 15:00:45 +0000";
layers = (
{
layerId = "F2FC958C-67D2-45D4-A67F-FC49D9225D80";
paths = (
{
closed = 1;
nodes = (
"172 854 LINE",
"195 930 LINE",
"276 930 OFFCURVE",
"526 930 OFFCURVE",
"679 930 CURVE",
"657 854 LINE",
"512 816 LINE",
"401 114 LINE",
"547 80 LINE",
"524 0 LINE",
"44 0 LINE",
"64 74 LINE",
"208 121 LINE",
"318 812 LINE"
);
},
{
closed = 1;
nodes = (
"314 1340 LINE",
"435 1378 LINE",
"515 1045 LINE",
"453 1010 LINE"
);
}
);
width = 574;
}
);
userData = {
com.fontlab.hintData = {
hhints = (
{
position = 0;
width = 80;
},
{
position = 854;
width = 76;
}
);
};
};
},
{
color = 4;
glyphname = j.sc;
lastChange = "2016-09-14 15:00:45 +0000";
layers = (
{
layerId = "F2FC958C-67D2-45D4-A67F-FC49D9225D80";
paths = (
{
closed = 1;
nodes = (
"-3 -237 LINE",
"174 -100 OFFCURVE",
"273 18 OFFCURVE",
"297 167 CURVE SMOOTH",
"400 812 LINE",
"255 854 LINE",
"277 930 LINE",
"762 930 LINE",
"740 854 LINE",
"594 816 LINE",
"513 305 LINE SMOOTH",
"456 -58 OFFCURVE",
"350 -159 OFFCURVE",
"37 -326 CURVE"
);
}
);
width = 651;
}
);
userData = {
com.fontlab.hintData = {
hhints = (
{
position = 854;
width = 76;
}
);
};
};
},
{
color = 4;
glyphname = k.sc;
lastChange = "2016-09-14 15:00:45 +0000";
layers = (
{
layerId = "F2FC958C-67D2-45D4-A67F-FC49D9225D80";
paths = (
{
closed = 1;
nodes = (
"172 854 LINE",
"198 930 LINE",
"678 930 LINE",
"656 854 LINE",
"517 807 LINE",
"409 124 LINE",
"571 80 LINE",
"547 0 LINE",
"44 0 LINE",
"66 74 LINE",
"216 129 LINE",
"323 803 LINE"
);
},
{
closed = 1;
nodes = (
"487 466 LINE",
"526 499 OFFCURVE",
"583 548 OFFCURVE",
"657 616 CURVE SMOOTH",
"873 815 LINE",
"761 854 LINE",
"781 930 LINE",
"1194 930 LINE",
"1170 851 LINE",
"1023 811 LINE",
"675 492 LINE",
"749 375 LINE SMOOTH",
"827 253 OFFCURVE",
"926 122 OFFCURVE",
"1045 83 CURVE SMOOTH",
"1089 70 LINE",
"1068 1 LINE",
"1019 -15 OFFCURVE",
"974 -21 OFFCURVE",
"934 -21 CURVE SMOOTH",
"767 -21 OFFCURVE",
"645 113 OFFCURVE",
"575 258 CURVE SMOOTH",
"484 445 LINE"
);
}
);
width = 1115;
}
);
userData = {
com.fontlab.hintData = {
hhints = (
{
position = 0;
width = 80;
},
{
position = 854;
width = 76;
}
);
};
};
},
{
color = 4;
glyphname = l.sc;
lastChange = "2016-09-14 15:00:45 +0000";
layers = (
{
layerId = "F2FC958C-67D2-45D4-A67F-FC49D9225D80";
paths = (
{
closed = 1;
nodes = (
"50 0 LINE",
"71 74 LINE",
"214 121 LINE",
"322 803 LINE",
"172 854 LINE",
"197 930 LINE",
"697 930 LINE",
"675 854 LINE",
"517 807 LINE",
"404 96 LINE",
"710 96 LINE",
"837 295 LINE",
"937 281 LINE",
"864 0 LINE"
);
}
);
width = 929;
}
);
userData = {
com.fontlab.hintData = {
hhints = (
{
position = 0;
width = 96;
},
{
position = 0;
width = 74;
},
{
position = 854;
width = 76;
}
);
};
};
},
{
color = 4;
glyphname = m.sc;
lastChange = "2016-09-14 15:00:45 +0000";
layers = (
{
layerId = "F2FC958C-67D2-45D4-A67F-FC49D9225D80";
paths = (
{
closed = 1;
nodes = (
"35 0 LINE",
"58 74 LINE",
"202 121 LINE",
"375 812 LINE",
"228 854 LINE",
"250 930 LINE",
"607 930 LINE",
"661 736 LINE",
"776 322 LINE",
"1041 769 LINE",
"1140 930 LINE",
"1514 930 LINE",
"1492 854 LINE",
"1348 816 LINE",
"1279 114 LINE",
"1426 80 LINE",
"1403 0 LINE",
"917 0 LINE",
"940 74 LINE",
"1093 121 LINE",
"1155 719 LINE",
"762 60 LINE",
"630 41 LINE",
"463 663 LINE",
"333 114 LINE",
"481 80 LINE",
"455 0 LINE"
);
}
);
width = 1449;
}
);
userData = {
com.fontlab.hintData = {
hhints = (
{
position = 0;
width = 74;
},
{
position = 854;
width = 76;
}
);
};
};
},
{
color = 4;
glyphname = n.sc;
lastChange = "2016-09-14 15:00:45 +0000";
layers = (
{
layerId = "F2FC958C-67D2-45D4-A67F-FC49D9225D80";
paths = (
{
closed = 1;
nodes = (
"172 854 LINE",
"195 930 LINE",
"505 930 LINE",
"875 275 LINE",
"960 812 LINE",
"814 854 LINE",
"838 930 LINE",
"1280 930 LINE",
"1255 854 LINE",
"1082 816 LINE",
"955 11 LINE",
"797 -20 LINE",
"419 647 LINE",
"335 114 LINE",
"484 80 LINE",
"460 0 LINE",
"44 0 LINE",
"64 74 LINE",
"208 121 LINE",
"316 803 LINE"
);
}
);
width = 1169;
}
);
userData = {
com.fontlab.hintData = {
hhints = (
{
position = 0;
width = 80;
},
{
position = 854;
width = 76;
}
);
};
};
},
{
color = 4;
glyphname = ntilde.sc;
lastChange = "2016-09-14 15:00:45 +0000";
layers = (
{
layerId = "F2FC958C-67D2-45D4-A67F-FC49D9225D80";
paths = (
{
closed = 1;
nodes = (
"172 854 LINE",
"195 930 LINE",
"505 930 LINE",
"875 275 LINE",
"960 812 LINE",
"814 854 LINE",
"838 930 LINE",
"1280 930 LINE",
"1255 854 LINE",
"1082 816 LINE",
"955 11 LINE",
"797 -20 LINE",
"419 647 LINE",
"335 114 LINE",
"484 80 LINE",
"460 0 LINE",
"44 0 LINE",
"64 74 LINE",
"208 121 LINE",
"316 803 LINE"
);
},
{
closed = 1;
nodes = (
"494 1048 LINE SMOOTH",
"494 1048 OFFCURVE",
"558 1202 OFFCURVE",
"652 1190 CURVE SMOOTH",
"874 1161 LINE SMOOTH",
"899 1158 OFFCURVE",
"936 1201 OFFCURVE",
"936 1201 CURVE",
"984 1199 LINE SMOOTH",
"984 1199 OFFCURVE",
"912 1043 OFFCURVE",
"817 1056 CURVE SMOOTH",
"598 1088 LINE SMOOTH",
"571 1092 OFFCURVE",
"531 1039 OFFCURVE",
"531 1039 CURVE"
);
}
);
width = 1120;
}
);
userData = {
com.fontlab.hintData = {
hhints = (
{
position = 0;
width = 80;
},
{
position = 854;
width = 76;
}
);
};
};
},
{
color = 4;
glyphname = o.sc;
lastChange = "2016-09-14 15:00:45 +0000";
layers = (
{
layerId = "F2FC958C-67D2-45D4-A67F-FC49D9225D80";
paths = (
{
closed = 1;
nodes = (
"111 458 CURVE SMOOTH",
"157 746 OFFCURVE",
"379 947 OFFCURVE",
"688 947 CURVE SMOOTH",
"974 947 OFFCURVE",
"1110 721 OFFCURVE",
"1068 458 CURVE SMOOTH",
"1027 199 OFFCURVE",
"809 -27 OFFCURVE",
"484 -27 CURVE SMOOTH",
"214 -27 OFFCURVE",
"68 186 OFFCURVE"
);
},
{
closed = 1;
nodes = (
"327 515 CURVE SMOOTH",
"293 300 OFFCURVE",
"339 79 OFFCURVE",
"541 79 CURVE SMOOTH",
"746 79 OFFCURVE",
"820 248 OFFCURVE",
"846 412 CURVE SMOOTH",
"879 618 OFFCURVE",
"835 851 OFFCURVE",
"635 851 CURVE SMOOTH",
"431 851 OFFCURVE",
"355 690 OFFCURVE"
);
}
);
width = 1034;
}
);
userData = {
com.fontlab.hintData = {
hhints = (
{
position = -27;
width = 106;
},
{
position = 851;
width = 96;
}
);
};
};
},
{
color = 4;
glyphname = oacute.sc;
lastChange = "2016-09-14 15:00:45 +0000";
layers = (
{
layerId = "F2FC958C-67D2-45D4-A67F-FC49D9225D80";
paths = (
{
closed = 1;
nodes = (
"111 458 CURVE SMOOTH",
"157 746 OFFCURVE",
"379 947 OFFCURVE",
"688 947 CURVE SMOOTH",
"974 947 OFFCURVE",
"1110 721 OFFCURVE",
"1068 458 CURVE SMOOTH",
"1027 199 OFFCURVE",
"809 -27 OFFCURVE",
"484 -27 CURVE SMOOTH",
"214 -27 OFFCURVE",
"68 186 OFFCURVE"
);
},
{
closed = 1;
nodes = (
"327 515 CURVE SMOOTH",
"293 300 OFFCURVE",
"339 79 OFFCURVE",
"541 79 CURVE SMOOTH",
"746 79 OFFCURVE",
"820 248 OFFCURVE",
"846 412 CURVE SMOOTH",
"879 618 OFFCURVE",
"835 851 OFFCURVE",
"635 851 CURVE SMOOTH",
"431 851 OFFCURVE",
"355 690 OFFCURVE"
);
},
{
closed = 1;
nodes = (
"624 1051 LINE",
"799 1376 LINE",
"904 1337 LINE",
"670 1019 LINE"
);
}
);
width = 1034;
}
);
userData = {
com.fontlab.hintData = {
hhints = (
{
position = -27;
width = 106;
},
{
position = 851;
width = 96;
}
);
};
};
},
{
color = 4;
glyphname = ocircumflex.sc;
lastChange = "2016-09-14 15:00:45 +0000";
layers = (
{
layerId = "F2FC958C-67D2-45D4-A67F-FC49D9225D80";
paths = (
{
closed = 1;
nodes = (
"111 458 CURVE SMOOTH",
"157 746 OFFCURVE",
"379 947 OFFCURVE",
"688 947 CURVE SMOOTH",
"974 947 OFFCURVE",
"1110 721 OFFCURVE",
"1068 458 CURVE SMOOTH",
"1027 199 OFFCURVE",
"809 -27 OFFCURVE",
"484 -27 CURVE SMOOTH",
"214 -27 OFFCURVE",
"68 186 OFFCURVE"
);
},
{
closed = 1;
nodes = (
"327 515 CURVE SMOOTH",
"293 300 OFFCURVE",
"339 79 OFFCURVE",
"541 79 CURVE SMOOTH",
"746 79 OFFCURVE",
"820 248 OFFCURVE",
"846 412 CURVE SMOOTH",
"879 618 OFFCURVE",
"835 851 OFFCURVE",
"635 851 CURVE SMOOTH",
"431 851 OFFCURVE",
"355 690 OFFCURVE"
);
},
{
closed = 1;
nodes = (
"489 1049 LINE",
"685 1228 LINE",
"743 1243 LINE",
"891 1057 LINE",
"837 1020 LINE",
"691 1130 LINE",
"680 1130 LINE",
"523 1019 LINE"
);
}
);
width = 1034;
}
);
userData = {
com.fontlab.hintData = {
hhints = (
{
position = -27;
width = 106;
},
{
position = 851;
width = 96;
},
{
position = 1223;
width = 20;
}
);
};
};
},
{
color = 4;
glyphname = odieresis.sc;
lastChange = "2016-09-14 15:00:45 +0000";
layers = (
{
layerId = "F2FC958C-67D2-45D4-A67F-FC49D9225D80";
paths = (
{
closed = 1;
nodes = (
"111 458 CURVE SMOOTH",
"157 746 OFFCURVE",
"379 947 OFFCURVE",
"688 947 CURVE SMOOTH",
"974 947 OFFCURVE",
"1110 721 OFFCURVE",
"1068 458 CURVE SMOOTH",
"1027 199 OFFCURVE",
"809 -27 OFFCURVE",
"484 -27 CURVE SMOOTH",
"214 -27 OFFCURVE",
"68 186 OFFCURVE"
);
},
{
closed = 1;
nodes = (
"327 515 CURVE SMOOTH",
"293 300 OFFCURVE",
"339 79 OFFCURVE",
"541 79 CURVE SMOOTH",
"746 79 OFFCURVE",
"820 248 OFFCURVE",
"846 412 CURVE SMOOTH",
"879 618 OFFCURVE",
"835 851 OFFCURVE",
"635 851 CURVE SMOOTH",
"431 851 OFFCURVE",
"355 690 OFFCURVE"
);
},
{
closed = 1;
nodes = (
"484 1121 CURVE SMOOTH",
"491 1168 OFFCURVE",
"541 1198 OFFCURVE",
"581 1198 CURVE SMOOTH",
"625 1198 OFFCURVE",
"662 1167 OFFCURVE",
"655 1121 CURVE SMOOTH",
"647 1072 OFFCURVE",
"600 1039 OFFCURVE",
"556 1039 CURVE SMOOTH",
"513 1039 OFFCURVE",
"476 1072 OFFCURVE"
);
},
{
closed = 1;
nodes = (
"752 1121 CURVE SMOOTH",
"759 1168 OFFCURVE",
"809 1198 OFFCURVE",
"849 1198 CURVE SMOOTH",
"893 1198 OFFCURVE",
"931 1167 OFFCURVE",
"924 1121 CURVE SMOOTH",
"916 1072 OFFCURVE",
"868 1039 OFFCURVE",
"824 1039 CURVE SMOOTH",
"781 1039 OFFCURVE",
"744 1072 OFFCURVE"
);
}
);
width = 1034;
}
);
userData = {
com.fontlab.hintData = {
hhints = (
{
position = -27;
width = 106;
},
{
position = 851;
width = 96;
},
{
position = 1039;
width = 159;
}
);
vhints = (
{
position = 484;
width = 171;
},
{
position = 752;
width = 172;
}
);
};
};
},
{
color = 4;
glyphname = ograve.sc;
lastChange = "2016-09-14 15:00:45 +0000";
layers = (
{
layerId = "F2FC958C-67D2-45D4-A67F-FC49D9225D80";
paths = (
{
closed = 1;
nodes = (
"111 458 CURVE SMOOTH",
"157 746 OFFCURVE",
"379 947 OFFCURVE",
"688 947 CURVE SMOOTH",
"974 947 OFFCURVE",
"1110 721 OFFCURVE",
"1068 458 CURVE SMOOTH",
"1027 199 OFFCURVE",
"809 -27 OFFCURVE",
"484 -27 CURVE SMOOTH",
"214 -27 OFFCURVE",
"68 186 OFFCURVE"
);
},
{
closed = 1;
nodes = (
"327 515 CURVE SMOOTH",
"293 300 OFFCURVE",
"339 79 OFFCURVE",
"541 79 CURVE SMOOTH",
"746 79 OFFCURVE",
"820 248 OFFCURVE",
"846 412 CURVE SMOOTH",
"879 618 OFFCURVE",
"835 851 OFFCURVE",
"635 851 CURVE SMOOTH",
"431 851 OFFCURVE",
"355 690 OFFCURVE"
);
},
{
closed = 1;
nodes = (
"538 1346 LINE",
"659 1384 LINE",
"738 1051 LINE",
"677 1016 LINE"
);
}
);
width = 1034;
}
);
userData = {
com.fontlab.hintData = {
hhints = (
{
position = -27;
width = 106;
},
{
position = 851;
width = 96;
}
);
};
};
},
{
color = 4;
glyphname = oslash.sc;
lastChange = "2016-09-14 15:00:45 +0000";
layers = (
{
layerId = "F2FC958C-67D2-45D4-A67F-FC49D9225D80";
paths = (
{
closed = 1;
nodes = (
"89 458 CURVE SMOOTH",
"135 746 OFFCURVE",
"357 947 OFFCURVE",
"666 947 CURVE SMOOTH",
"952 947 OFFCURVE",
"1088 721 OFFCURVE",
"1046 458 CURVE SMOOTH",
"1005 199 OFFCURVE",
"787 -27 OFFCURVE",
"462 -27 CURVE SMOOTH",
"192 -27 OFFCURVE",
"46 186 OFFCURVE"
);
},
{
closed = 1;
nodes = (
"305 515 CURVE SMOOTH",
"271 300 OFFCURVE",
"317 79 OFFCURVE",
"519 79 CURVE SMOOTH",
"724 79 OFFCURVE",
"798 248 OFFCURVE",
"824 412 CURVE SMOOTH",
"857 618 OFFCURVE",
"813 851 OFFCURVE",
"613 851 CURVE SMOOTH",
"409 851 OFFCURVE",
"333 690 OFFCURVE"
);
},
{
closed = 1;
nodes = (
"17 -46 LINE",
"202 141 LINE",
"253 157 LINE",
"852 777 LINE",
"856 815 LINE",
"978 947 LINE",
"1134 954 LINE",
"952 755 LINE",
"887 720 LINE",
"291 109 LINE",
"291 78 LINE",
"181 -41 LINE"
);
}
);
width = 933;
}
);
userData = {
com.fontlab.hintData = {
hhints = (
{
position = -27;
width = 106;
},
{
position = 851;
width = 96;
}
);
};
};
},
{
color = 4;
glyphname = otilde.sc;
lastChange = "2016-09-14 15:00:45 +0000";
layers = (
{
layerId = "F2FC958C-67D2-45D4-A67F-FC49D9225D80";
paths = (
{
closed = 1;
nodes = (
"111 458 CURVE SMOOTH",
"157 746 OFFCURVE",
"379 947 OFFCURVE",
"688 947 CURVE SMOOTH",
"974 947 OFFCURVE",
"1110 721 OFFCURVE",
"1068 458 CURVE SMOOTH",
"1027 199 OFFCURVE",
"809 -27 OFFCURVE",
"484 -27 CURVE SMOOTH",
"214 -27 OFFCURVE",
"68 186 OFFCURVE"
);
},
{
closed = 1;
nodes = (
"327 515 CURVE SMOOTH",
"293 300 OFFCURVE",
"339 79 OFFCURVE",
"541 79 CURVE SMOOTH",
"746 79 OFFCURVE",
"820 248 OFFCURVE",
"846 412 CURVE SMOOTH",
"879 618 OFFCURVE",
"835 851 OFFCURVE",
"635 851 CURVE SMOOTH",
"431 851 OFFCURVE",
"355 690 OFFCURVE"
);
},
{
closed = 1;
nodes = (
"445 1048 LINE SMOOTH",
"445 1048 OFFCURVE",
"509 1202 OFFCURVE",
"603 1190 CURVE SMOOTH",
"825 1161 LINE SMOOTH",
"850 1158 OFFCURVE",
"887 1201 OFFCURVE",
"887 1201 CURVE",
"936 1199 LINE SMOOTH",
"936 1199 OFFCURVE",
"864 1043 OFFCURVE",
"769 1056 CURVE SMOOTH",
"549 1088 LINE SMOOTH",
"522 1092 OFFCURVE",
"483 1039 OFFCURVE",
"483 1039 CURVE"
);
}
);
width = 1034;
}
);
userData = {
com.fontlab.hintData = {
hhints = (
{
position = -27;
width = 106;
},
{
position = 851;
width = 96;
}
);
};
};
},
{
color = 4;
glyphname = p.sc;
lastChange = "2016-09-14 15:00:45 +0000";
layers = (
{
layerId = "F2FC958C-67D2-45D4-A67F-FC49D9225D80";
paths = (
{
closed = 1;
nodes = (
"37 0 LINE",
"60 74 LINE",
"204 121 LINE",
"311 796 LINE",
"175 826 LINE",
"197 903 LINE",
"316 922 OFFCURVE",
"477 947 OFFCURVE",
"630 947 CURVE SMOOTH",
"845 947 OFFCURVE",
"1036 890 OFFCURVE",
"999 654 CURVE SMOOTH",
"964 431 OFFCURVE",
"725 311 OFFCURVE",
"502 319 CURVE",
"497 402 LINE",
"550 403 LINE SMOOTH",
"680 406 OFFCURVE",
"773 494 OFFCURVE",
"794 628 CURVE SMOOTH",
"814 756 OFFCURVE",
"761 864 OFFCURVE",
"576 864 CURVE SMOOTH",
"552 864 OFFCURVE",
"513 860 OFFCURVE",
"513 860 CURVE",
"396 122 LINE",
"587 83 LINE",
"560 0 LINE"
);
}
);
width = 932;
}
);
userData = {
com.fontlab.hintData = {
hhints = (
{
position = 0;
width = 74;
},
{
position = 319;
width = 83;
},
{
position = 826;
width = 77;
},
{
position = 864;
width = 83;
}
);
};
};
},
{
color = 4;
glyphname = thorn.sc;
lastChange = "2016-09-14 15:00:45 +0000";
layers = (
{
layerId = "F2FC958C-67D2-45D4-A67F-FC49D9225D80";
paths = (
{
closed = 1;
nodes = (
"215 854 LINE",
"238 930 LINE",
"321 930 OFFCURVE",
"573 930 OFFCURVE",
"729 930 CURVE",
"707 854 LINE",
"555 816 LINE",
"444 114 LINE",
"590 80 LINE",
"567 0 LINE",
"87 0 LINE",
"107 74 LINE",
"251 121 LINE",
"361 812 LINE"
);
},
{
closed = 1;
nodes = (
"461 759 LINE",
"521 765 OFFCURVE",
"584 769 OFFCURVE",
"645 769 CURVE SMOOTH",
"850 769 OFFCURVE",
"1032 716 OFFCURVE",
"997 496 CURVE SMOOTH",
"964 286 OFFCURVE",
"726 173 OFFCURVE",
"503 181 CURVE",
"498 263 LINE",
"551 265 LINE SMOOTH",
"681 270 OFFCURVE",
"772 348 OFFCURVE",
"791 470 CURVE SMOOTH",
"810 587 OFFCURVE",
"761 686 OFFCURVE",
"591 686 CURVE SMOOTH",
"567 686 OFFCURVE",
"528 682 OFFCURVE",
"528 682 CURVE"
);
}
);
width = 977;
}
);
userData = {
com.fontlab.hintData = {
hhints = (
{
position = 0;
width = 80;
},
{
position = 181;
width = 82;
},
{
position = 686;
width = 83;
},
{
position = 854;
width = 76;
}
);
};
};
},
{
color = 4;
glyphname = q.sc;
lastChange = "2016-09-14 15:00:45 +0000";
layers = (
{
layerId = "F2FC958C-67D2-45D4-A67F-FC49D9225D80";
paths = (
{
closed = 1;
nodes = (
"110 455 CURVE SMOOTH",
"155 741 OFFCURVE",
"387 947 OFFCURVE",
"686 947 CURVE SMOOTH",
"976 947 OFFCURVE",
"1104 736 OFFCURVE",
"1064 483 CURVE SMOOTH",
"1028 257 OFFCURVE",
"865 51 OFFCURVE",
"632 -6 CURVE",
"661 -106 OFFCURVE",
"735 -210 OFFCURVE",
"933 -205 CURVE",
"929 -229 OFFCURVE",
"920 -263 OFFCURVE",
"911 -281 CURVE",
"855 -311 OFFCURVE",
"794 -327 OFFCURVE",
"735 -327 CURVE SMOOTH",
"571 -327 OFFCURVE",
"488 -198 OFFCURVE",
"527 -30 CURVE",
"206 -41 OFFCURVE",
"68 188 OFFCURVE"
);
},
{
closed = 1;
nodes = (
"323 526 CURVE SMOOTH",
"286 294 OFFCURVE",
"357 70 OFFCURVE",
"575 67 CURVE",
"755 114 OFFCURVE",
"824 257 OFFCURVE",
"850 418 CURVE SMOOTH",
"883 629 OFFCURVE",
"803 853 OFFCURVE",
"624 853 CURVE SMOOTH",
"468 853 OFFCURVE",
"356 733 OFFCURVE"
);
}
);
width = 1027;
}
);
userData = {
com.fontlab.hintData = {
hhints = (
{
position = -327;
width = 122;
},
{
position = 853;
width = 94;
}
);
};
};
},
{
color = 4;
glyphname = r.sc;
lastChange = "2016-09-14 15:00:45 +0000";
layers = (
{
layerId = "F2FC958C-67D2-45D4-A67F-FC49D9225D80";
paths = (
{
closed = 1;
nodes = (
"37 0 LINE",
"60 74 LINE",
"214 121 LINE",
"321 794 LINE",
"175 824 LINE",
"197 901 LINE",
"338 924 OFFCURVE",
"492 947 OFFCURVE",
"630 947 CURVE SMOOTH",
"890 947 OFFCURVE",
"1016 853 OFFCURVE",
"990 688 CURVE SMOOTH",
"971 568 OFFCURVE",
"859 472 OFFCURVE",
"754 431 CURVE",
"754 430 LINE",
"827 299 LINE SMOOTH",
"880 204 OFFCURVE",
"954 116 OFFCURVE",
"1039 90 CURVE SMOOTH",
"1071 80 LINE",
"1045 10 LINE",
"996 -5 OFFCURVE",
"951 -10 OFFCURVE",
"911 -10 CURVE SMOOTH",
"764 -10 OFFCURVE",
"663 103 OFFCURVE",
"626 274 CURVE SMOOTH",
"606 368 LINE",
"432 368 LINE",
"394 126 LINE",
"564 83 LINE",
"541 0 LINE"
);
},
{
closed = 1;
nodes = (
"447 459 LINE",
"646 459 LINE",
"713 478 OFFCURVE",
"778 546 OFFCURVE",
"795 652 CURVE SMOOTH",
"814 775 OFFCURVE",
"744 863 OFFCURVE",
"594 863 CURVE SMOOTH",
"546 863 OFFCURVE",
"510 858 OFFCURVE",
"510 858 CURVE"
);
}
);
width = 1094;
}
);
userData = {
com.fontlab.hintData = {
hhints = (
{
position = 0;
width = 74;
},
{
position = 368;
width = 91;
},
{
position = 863;
width = 84;
}
);
};
};
},
{
color = 4;
glyphname = s.sc;
lastChange = "2016-09-14 15:00:45 +0000";
layers = (
{
layerId = "F2FC958C-67D2-45D4-A67F-FC49D9225D80";
paths = (
{
closed = 1;
nodes = (
"46 59 CURVE",
"119 309 LINE",
"219 295 LINE",
"214 144 LINE",
"248 101 OFFCURVE",
"277 75 OFFCURVE",
"379 75 CURVE SMOOTH",
"440 75 OFFCURVE",
"520 106 OFFCURVE",
"532 179 CURVE SMOOTH",
"562 371 OFFCURVE",
"118 365 OFFCURVE",
"166 665 CURVE SMOOTH",
"195 846 OFFCURVE",
"373 947 OFFCURVE",
"540 947 CURVE SMOOTH",
"626 947 OFFCURVE",
"698 930 OFFCURVE",
"756 897 CURVE",
"755 890 OFFCURVE",
"693 635 OFFCURVE",
"693 635 CURVE",
"595 647 LINE",
"604 796 LINE",
"590 830 OFFCURVE",
"551 863 OFFCURVE",
"494 863 CURVE SMOOTH",
"407 863 OFFCURVE",
"349 823 OFFCURVE",
"335 734 CURVE SMOOTH",
"302 524 OFFCURVE",
"760 518 OFFCURVE",
"718 254 CURVE SMOOTH",
"691 85 OFFCURVE",
"516 -24 OFFCURVE",
"349 -24 CURVE SMOOTH",
"183 -24 OFFCURVE",
"92 7 OFFCURVE"
);
}
);
width = 714;
}
);
userData = {
com.fontlab.hintData = {
hhints = (
{
position = -24;
width = 99;
},
{
position = 863;
width = 84;
}
);
vhints = (
{
position = 119;
width = 100;
},
{
position = 595;
width = 98;
}
);
};
};
},
{
color = 4;
glyphname = germandbls.sc;
lastChange = "2016-09-14 15:00:45 +0000";
layers = (
{
layerId = "F2FC958C-67D2-45D4-A67F-FC49D9225D80";
paths = (
{
closed = 1;
nodes = (
"880 843 CURVE SMOOTH",
"987 843 OFFCURVE",
"1015 732 OFFCURVE",
"1025 634 CURVE",
"1107 660 OFFCURVE",
"1156 693 OFFCURVE",
"1168 769 CURVE SMOOTH",
"1191 914 OFFCURVE",
"955 949 OFFCURVE",
"803 949 CURVE SMOOTH",
"501 949 OFFCURVE",
"284 830 OFFCURVE",
"239 548 CURVE SMOOTH",
"169 110 LINE",
"30 73 LINE",
"10 0 LINE",
"341 0 LINE",
"431 571 LINE SMOOTH",
"464 780 OFFCURVE",
"557 872 OFFCURVE",
"732 872 CURVE SMOOTH",
"746 872 OFFCURVE",
"760 871 OFFCURVE",
"775 870 CURVE",
"772 867 LINE SMOOTH",
"683 842 OFFCURVE",
"589 767 OFFCURVE",
"569 641 CURVE SMOOTH",
"526 371 OFFCURVE",
"965 347 OFFCURVE",
"938 179 CURVE SMOOTH",
"926 106 OFFCURVE",
"846 75 OFFCURVE",
"785 75 CURVE SMOOTH",
"683 75 OFFCURVE",
"654 101 OFFCURVE",
"620 144 CURVE",
"625 295 LINE",
"525 309 LINE",
"452 59 LINE",
"498 7 OFFCURVE",
"589 -24 OFFCURVE",
"755 -24 CURVE SMOOTH",
"922 -24 OFFCURVE",
"1097 81 OFFCURVE",
"1123 244 CURVE SMOOTH",
"1163 495 OFFCURVE",
"707 514 OFFCURVE",
"740 724 CURVE SMOOTH",
"753 809 OFFCURVE",
"819 843 OFFCURVE"
);
}
);
width = 1102;
}
);
userData = {
com.fontlab.hintData = {
hhints = (
{
position = -24;
width = 99;
},
{
position = 0;
width = 73;
},
{
position = 843;
width = 106;
},
{
position = 872;
width = 77;
}
);
vhints = (
{
position = 525;
width = 100;
},
{
position = 1025;
width = 143;
}
);
};
};
},
{
color = 4;
glyphname = t.sc;
lastChange = "2016-09-14 15:00:45 +0000";
layers = (
{
layerId = "F2FC958C-67D2-45D4-A67F-FC49D9225D80";
paths = (
{
closed = 1;
nodes = (
"188 930 LINE",
"1044 930 LINE",
"969 641 LINE",
"876 656 LINE",
"866 838 LINE",
"696 838 LINE",
"581 114 LINE",
"741 80 LINE",
"714 0 LINE",
"225 0 LINE",
"244 74 LINE",
"390 121 LINE",
"504 838 LINE",
"318 838 LINE",
"240 645 LINE",
"151 658 LINE"
);
}
);
width = 936;
}
);
userData = {
com.fontlab.hintData = {
hhints = (
{
position = 0;
width = 80;
},
{
position = 838;
width = 92;
}
);
vhints = (
{
position = 876;
width = 93;
}
);
};
};
},
{
color = 4;
glyphname = u.sc;
lastChange = "2016-09-14 15:00:45 +0000";
layers = (
{
layerId = "F2FC958C-67D2-45D4-A67F-FC49D9225D80";
paths = (
{
closed = 1;
nodes = (
"171 854 LINE",
"196 929 LINE",
"678 929 LINE",
"657 854 LINE",
"512 816 LINE",
"440 360 LINE SMOOTH",
"410 170 OFFCURVE",
"490 105 OFFCURVE",
"619 105 CURVE SMOOTH",
"759 105 OFFCURVE",
"852 154 OFFCURVE",
"881 332 CURVE SMOOTH",
"960 812 LINE",
"813 854 LINE",
"835 930 LINE",
"1253 930 LINE",
"1230 854 LINE",
"1088 816 LINE",
"1012 365 LINE SMOOTH",
"964 78 OFFCURVE",
"798 -27 OFFCURVE",
"548 -27 CURVE SMOOTH",
"378 -27 OFFCURVE",
"195 30 OFFCURVE",
"241 319 CURVE SMOOTH",
"319 812 LINE"
);
}
);
width = 1142;
}
);
userData = {
com.fontlab.hintData = {
hhints = (
{
position = -27;
width = 132;
},
{
position = 854;
width = 75;
}
);
};
};
},
{
color = 4;
glyphname = uacute.sc;
lastChange = "2016-09-14 15:00:45 +0000";
layers = (
{
layerId = "F2FC958C-67D2-45D4-A67F-FC49D9225D80";
paths = (
{
closed = 1;
nodes = (
"181 854 LINE",
"206 930 LINE",
"688 930 LINE",
"667 854 LINE",
"522 816 LINE",
"450 360 LINE SMOOTH",
"420 170 OFFCURVE",
"500 105 OFFCURVE",
"629 105 CURVE SMOOTH",
"769 105 OFFCURVE",
"862 154 OFFCURVE",
"891 332 CURVE SMOOTH",
"970 812 LINE",
"823 854 LINE",
"845 930 LINE",
"1263 930 LINE",
"1240 854 LINE",
"1098 816 LINE",
"1022 365 LINE SMOOTH",
"974 78 OFFCURVE",
"808 -27 OFFCURVE",
"558 -27 CURVE SMOOTH",
"388 -27 OFFCURVE",
"205 30 OFFCURVE",
"251 319 CURVE SMOOTH",
"329 812 LINE"
);
},
{
closed = 1;
nodes = (
"707 1054 LINE",
"882 1379 LINE",
"986 1340 LINE",
"754 1022 LINE"
);
}
);
width = 1142;
}
);
userData = {
com.fontlab.hintData = {
hhints = (
{
position = -27;
width = 132;
},
{
position = 854;
width = 76;
}
);
};
};
},
{
color = 4;
glyphname = ucircumflex.sc;
lastChange = "2016-09-14 15:00:45 +0000";
layers = (
{
layerId = "F2FC958C-67D2-45D4-A67F-FC49D9225D80";
paths = (
{
closed = 1;
nodes = (
"181 854 LINE",
"206 930 LINE",
"688 930 LINE",
"667 854 LINE",
"522 816 LINE",
"450 360 LINE SMOOTH",
"420 170 OFFCURVE",
"500 105 OFFCURVE",
"629 105 CURVE SMOOTH",
"769 105 OFFCURVE",
"862 154 OFFCURVE",
"891 332 CURVE SMOOTH",
"970 812 LINE",
"823 854 LINE",
"845 930 LINE",
"1263 930 LINE",
"1240 854 LINE",
"1098 816 LINE",
"1022 365 LINE SMOOTH",
"974 78 OFFCURVE",
"808 -27 OFFCURVE",
"558 -27 CURVE SMOOTH",
"388 -27 OFFCURVE",
"205 30 OFFCURVE",
"251 319 CURVE SMOOTH",
"329 812 LINE"
);
},
{
closed = 1;
nodes = (
"558 1055 LINE",
"754 1234 LINE",
"812 1249 LINE",
"960 1063 LINE",
"906 1026 LINE",
"760 1136 LINE",
"749 1136 LINE",
"592 1025 LINE"
);
}
);
width = 1152;
}
);
userData = {
com.fontlab.hintData = {
hhints = (
{
position = -27;
width = 132;
},
{
position = 854;
width = 76;
},
{
position = 1229;
width = 20;
}
);
};
};
},
{
color = 4;
glyphname = udieresis.sc;
lastChange = "2016-09-14 15:00:45 +0000";
layers = (
{
layerId = "F2FC958C-67D2-45D4-A67F-FC49D9225D80";
paths = (
{
closed = 1;
nodes = (
"181 854 LINE",
"206 930 LINE",
"688 930 LINE",
"667 854 LINE",
"522 816 LINE",
"450 360 LINE SMOOTH",
"420 170 OFFCURVE",
"500 105 OFFCURVE",
"629 105 CURVE SMOOTH",
"769 105 OFFCURVE",
"862 154 OFFCURVE",
"891 332 CURVE SMOOTH",
"970 812 LINE",
"823 854 LINE",
"845 930 LINE",
"1263 930 LINE",
"1240 854 LINE",
"1098 816 LINE",
"1022 365 LINE SMOOTH",
"974 78 OFFCURVE",
"808 -27 OFFCURVE",
"558 -27 CURVE SMOOTH",
"388 -27 OFFCURVE",
"205 30 OFFCURVE",
"251 319 CURVE SMOOTH",
"329 812 LINE"
);
},
{
closed = 1;
nodes = (
"563 1141 CURVE SMOOTH",
"570 1188 OFFCURVE",
"619 1218 OFFCURVE",
"659 1218 CURVE SMOOTH",
"703 1218 OFFCURVE",
"740 1187 OFFCURVE",
"733 1141 CURVE SMOOTH",
"725 1092 OFFCURVE",
"678 1059 OFFCURVE",
"634 1059 CURVE SMOOTH",
"591 1059 OFFCURVE",
"555 1092 OFFCURVE"
);
},
{
closed = 1;
nodes = (
"831 1141 CURVE SMOOTH",
"838 1188 OFFCURVE",
"887 1218 OFFCURVE",
"927 1218 CURVE SMOOTH",
"971 1218 OFFCURVE",
"1010 1187 OFFCURVE",
"1003 1141 CURVE SMOOTH",
"995 1092 OFFCURVE",
"946 1059 OFFCURVE",
"902 1059 CURVE SMOOTH",
"859 1059 OFFCURVE",
"823 1092 OFFCURVE"
);
}
);
width = 1152;
}
);
userData = {
com.fontlab.hintData = {
hhints = (
{
position = -27;
width = 132;
},
{
position = 854;
width = 76;
},
{
position = 1059;
width = 159;
}
);
vhints = (
{
position = 563;
width = 170;
},
{
position = 831;
width = 172;
}
);
};
};
},
{
color = 4;
glyphname = ugrave.sc;
lastChange = "2016-09-14 15:00:45 +0000";
layers = (
{
layerId = "F2FC958C-67D2-45D4-A67F-FC49D9225D80";
paths = (
{
closed = 1;
nodes = (
"181 854 LINE",
"206 930 LINE",
"688 930 LINE",
"667 854 LINE",
"522 816 LINE",
"450 360 LINE SMOOTH",
"420 170 OFFCURVE",
"500 105 OFFCURVE",
"629 105 CURVE SMOOTH",
"769 105 OFFCURVE",
"862 154 OFFCURVE",
"891 332 CURVE SMOOTH",
"970 812 LINE",
"823 854 LINE",
"845 930 LINE",
"1263 930 LINE",
"1240 854 LINE",
"1098 816 LINE",
"1022 365 LINE SMOOTH",
"974 78 OFFCURVE",
"808 -27 OFFCURVE",
"558 -27 CURVE SMOOTH",
"388 -27 OFFCURVE",
"205 30 OFFCURVE",
"251 319 CURVE SMOOTH",
"329 812 LINE"
);
},
{
closed = 1;
nodes = (
"605 1342 LINE",
"725 1380 LINE",
"804 1047 LINE",
"742 1012 LINE"
);
}
);
width = 1142;
}
);
userData = {
com.fontlab.hintData = {
hhints = (
{
position = -27;
width = 132;
},
{
position = 854;
width = 76;
}
);
};
};
},
{
color = 4;
glyphname = v.sc;
lastChange = "2016-09-14 15:00:45 +0000";
layers = (
{
layerId = "F2FC958C-67D2-45D4-A67F-FC49D9225D80";
paths = (
{
closed = 1;
nodes = (
"172 854 LINE",
"194 930 LINE",
"667 930 LINE",
"645 854 LINE",
"510 816 LINE",
"618 241 LINE",
"920 812 LINE",
"794 854 LINE",
"813 930 LINE",
"1190 930 LINE",
"1171 854 LINE",
"1061 816 LINE",
"617 4 LINE",
"460 -24 LINE",
"289 812 LINE"
);
}
);
width = 1082;
}
);
userData = {
com.fontlab.hintData = {
hhints = (
{
position = 854;
width = 76;
}
);
};
};
},
{
color = 4;
glyphname = w.sc;
lastChange = "2016-09-14 15:00:45 +0000";
layers = (
{
layerId = "F2FC958C-67D2-45D4-A67F-FC49D9225D80";
paths = (
{
closed = 1;
nodes = (
"172 854 LINE",
"193 930 LINE",
"677 930 LINE",
"650 854 LINE",
"497 816 LINE",
"565 271 LINE",
"842 880 LINE",
"1022 905 LINE",
"1090 287 LINE",
"1336 812 LINE",
"1191 854 LINE",
"1214 930 LINE",
"1633 930 LINE",
"1610 854 LINE",
"1481 816 LINE",
"1087 4 LINE",
"928 -24 LINE",
"853 637 LINE",
"568 4 LINE",
"400 -24 LINE",
"296 812 LINE"
);
}
);
width = 1523;
}
);
userData = {
com.fontlab.hintData = {
hhints = (
{
position = 854;
width = 76;
}
);
};
};
},
{
color = 4;
glyphname = x.sc;
lastChange = "2016-09-14 15:00:45 +0000";
layers = (
{
layerId = "F2FC958C-67D2-45D4-A67F-FC49D9225D80";
paths = (
{
closed = 1;
nodes = (
"37 0 LINE",
"61 76 LINE",
"185 121 LINE",
"483 449 LINE",
"301 809 LINE",
"181 852 LINE",
"205 930 LINE",
"658 930 LINE",
"636 852 LINE",
"516 817 LINE",
"633 584 LINE",
"831 812 LINE",
"717 852 LINE",
"742 930 LINE",
"1117 930 LINE",
"1097 854 LINE",
"974 816 LINE",
"695 491 LINE",
"876 114 LINE",
"996 80 LINE",
"970 0 LINE",
"537 0 LINE",
"562 74 LINE",
"668 111 LINE",
"545 363 LINE",
"335 117 LINE",
"455 83 LINE",
"427 0 LINE"
);
}
);
width = 1021;
}
);
userData = {
com.fontlab.hintData = {
hhints = (
{
position = 0;
width = 80;
},
{
position = 852;
width = 78;
}
);
};
};
},
{
color = 4;
glyphname = y.sc;
lastChange = "2016-09-14 15:00:45 +0000";
layers = (
{
layerId = "F2FC958C-67D2-45D4-A67F-FC49D9225D80";
paths = (
{
closed = 1;
nodes = (
"172 854 LINE",
"197 930 LINE",
"655 930 LINE",
"631 854 LINE",
"507 816 LINE",
"632 493 LINE",
"851 812 LINE",
"734 854 LINE",
"756 930 LINE",
"1111 930 LINE",
"1089 854 LINE",
"988 816 LINE",
"672 385 LINE",
"629 114 LINE",
"775 80 LINE",
"752 0 LINE",
"268 0 LINE",
"290 74 LINE",
"437 121 LINE",
"475 360 LINE",
"294 812 LINE"
);
}
);
width = 1001;
}
);
userData = {
com.fontlab.hintData = {
hhints = (
{
position = 0;
width = 80;
},
{
position = 854;
width = 76;
}
);
};
};
},
{
color = 4;
glyphname = yacute.sc;
lastChange = "2016-09-14 15:00:45 +0000";
layers = (
{
layerId = "F2FC958C-67D2-45D4-A67F-FC49D9225D80";
paths = (
{
closed = 1;
nodes = (
"147 854 LINE",
"172 930 LINE",
"630 930 LINE",
"606 854 LINE",
"482 816 LINE",
"607 493 LINE",
"826 812 LINE",
"709 854 LINE",
"731 930 LINE",
"1086 930 LINE",
"1064 854 LINE",
"963 816 LINE",
"647 385 LINE",
"604 114 LINE",
"750 80 LINE",
"727 0 LINE",
"243 0 LINE",
"265 74 LINE",
"412 121 LINE",
"450 360 LINE",
"269 812 LINE"
);
},
{
closed = 1;
nodes = (
"645 1053 LINE",
"819 1378 LINE",
"924 1339 LINE",
"691 1021 LINE"
);
}
);
width = 1001;
}
);
userData = {
com.fontlab.hintData = {
hhints = (
{
position = 0;
width = 80;
},
{
position = 854;
width = 76;
}
);
};
};
},
{
color = 4;
glyphname = ydieresis.sc;
lastChange = "2016-09-14 15:00:45 +0000";
layers = (
{
layerId = "F2FC958C-67D2-45D4-A67F-FC49D9225D80";
paths = (
{
closed = 1;
nodes = (
"141 854 LINE",
"166 930 LINE",
"624 930 LINE",
"600 854 LINE",
"476 816 LINE",
"601 493 LINE",
"820 812 LINE",
"703 854 LINE",
"725 930 LINE",
"1080 930 LINE",
"1058 854 LINE",
"957 816 LINE",
"641 385 LINE",
"598 114 LINE",
"744 80 LINE",
"721 0 LINE",
"237 0 LINE",
"259 74 LINE",
"406 121 LINE",
"444 360 LINE",
"263 812 LINE"
);
},
{
closed = 1;
nodes = (
"461 1137 CURVE SMOOTH",
"468 1184 OFFCURVE",
"518 1214 OFFCURVE",
"558 1214 CURVE SMOOTH",
"602 1214 OFFCURVE",
"639 1183 OFFCURVE",
"632 1137 CURVE SMOOTH",
"624 1088 OFFCURVE",
"577 1055 OFFCURVE",
"533 1055 CURVE SMOOTH",
"490 1055 OFFCURVE",
"453 1088 OFFCURVE"
);
},
{
closed = 1;
nodes = (
"729 1137 CURVE SMOOTH",
"736 1184 OFFCURVE",
"786 1214 OFFCURVE",
"826 1214 CURVE SMOOTH",
"870 1214 OFFCURVE",
"908 1183 OFFCURVE",
"901 1137 CURVE SMOOTH",
"893 1088 OFFCURVE",
"845 1055 OFFCURVE",
"801 1055 CURVE SMOOTH",
"758 1055 OFFCURVE",
"721 1088 OFFCURVE"
);
}
);
width = 2048;
}
);
userData = {
com.fontlab.hintData = {
hhints = (
{
position = 0;
width = 80;
},
{
position = 854;
width = 76;
},
{
position = 1055;
width = 159;
}
);
vhints = (
{
position = 461;
width = 171;
},
{
position = 729;
width = 172;
}
);
};
};
},
{
color = 4;
glyphname = z.sc;
lastChange = "2016-09-14 15:00:45 +0000";
layers = (
{
layerId = "F2FC958C-67D2-45D4-A67F-FC49D9225D80";
paths = (
{
closed = 1;
nodes = (
"53 104 LINE",
"733 835 LINE",
"376 835 LINE",
"279 639 LINE",
"182 657 LINE",
"234 930 LINE",
"988 930 LINE",
"976 854 LINE",
"274 100 LINE",
"685 100 LINE",
"816 301 LINE",
"908 285 LINE",
"826 0 LINE",
"45 0 LINE"
);
}
);
width = 899;
}
);
userData = {
com.fontlab.hintData = {
hhints = (
{
position = 0;
width = 100;
},
{
position = 835;
width = 95;
}
);
};
};
},
{
color = 4;
glyphname = ordfeminine;
lastChange = "2016-09-14 15:00:45 +0000";
layers = (
{
layerId = "F2FC958C-67D2-45D4-A67F-FC49D9225D80";
paths = (
{
closed = 1;
nodes = (
"472 932 CURVE",
"477 966 LINE SMOOTH",
"494 1074 OFFCURVE",
"502 1170 OFFCURVE",
"396 1170 CURVE SMOOTH",
"326 1170 OFFCURVE",
"305 1114 OFFCURVE",
"271 978 CURVE",
"196 970 OFFCURVE",
"158 1004 OFFCURVE",
"158 1066 CURVE SMOOTH",
"158 1168 OFFCURVE",
"354 1254 OFFCURVE",
"468 1254 CURVE SMOOTH",
"616 1254 OFFCURVE",
"657 1164 OFFCURVE",
"635 1008 CURVE SMOOTH",
"597 748 LINE SMOOTH",
"587 674 OFFCURVE",
"602 648 OFFCURVE",
"675 635 CURVE SMOOTH",
"716 628 LINE",
"695 566 LINE",
"648 529 OFFCURVE",
"622 520 OFFCURVE",
"572 520 CURVE SMOOTH",
"464 520 OFFCURVE",
"430 583 OFFCURVE",
"439 639 CURVE",
"430 639 LINE",
"401 597 OFFCURVE",
"339 515 OFFCURVE",
"204 515 CURVE SMOOTH",
"124 515 OFFCURVE",
"62 574 OFFCURVE",
"62 655 CURVE SMOOTH",
"62 797 OFFCURVE",
"188 932 OFFCURVE"
);
},
{
closed = 1;
nodes = (
"230 701 CURVE SMOOTH",
"230 665 OFFCURVE",
"249 631 OFFCURVE",
"303 631 CURVE SMOOTH",
"364 631 OFFCURVE",
"403 679 OFFCURVE",
"436 709 CURVE",
"462 874 LINE",
"301 846 OFFCURVE",
"230 794 OFFCURVE"
);
}
);
width = 761;
}
);
unicode = 00AA;
},
{
color = 4;
glyphname = ordmasculine;
lastChange = "2016-09-14 15:00:45 +0000";
layers = (
{
layerId = "F2FC958C-67D2-45D4-A67F-FC49D9225D80";
paths = (
{
closed = 1;
nodes = (
"494 1258 CURVE SMOOTH",
"676 1258 OFFCURVE",
"778 1144 OFFCURVE",
"778 969 CURVE SMOOTH",
"778 697 OFFCURVE",
"575 514 OFFCURVE",
"356 514 CURVE SMOOTH",
"159 514 OFFCURVE",
"58 635 OFFCURVE",
"58 803 CURVE SMOOTH",
"58 1090 OFFCURVE",
"289 1258 OFFCURVE"
);
},
{
closed = 1;
nodes = (
"234 811 CURVE SMOOTH",
"234 692 OFFCURVE",
"261 594 OFFCURVE",
"387 594 CURVE SMOOTH",
"544 594 OFFCURVE",
"600 784 OFFCURVE",
"600 948 CURVE SMOOTH",
"600 1068 OFFCURVE",
"565 1175 OFFCURVE",
"445 1175 CURVE SMOOTH",
"282 1175 OFFCURVE",
"234 984 OFFCURVE"
);
}
);
width = 826;
}
);
unicode = 00BA;
},
{
color = 4;
glyphname = zero;
lastChange = "2016-09-14 15:00:45 +0000";
layers = (
{
layerId = "F2FC958C-67D2-45D4-A67F-FC49D9225D80";
paths = (
{
closed = 1;
nodes = (
"592 1203 CURVE SMOOTH",
"790 1203 OFFCURVE",
"920 1068 OFFCURVE",
"920 779 CURVE SMOOTH",
"920 245 OFFCURVE",
"633 -27 OFFCURVE",
"393 -27 CURVE SMOOTH",
"206 -27 OFFCURVE",
"51 68 OFFCURVE",
"51 383 CURVE SMOOTH",
"51 885 OFFCURVE",
"319 1203 OFFCURVE"
);
},
{
closed = 1;
nodes = (
"256 335 CURVE SMOOTH",
"256 184 OFFCURVE",
"299 70 OFFCURVE",
"413 70 CURVE SMOOTH",
"599 70 OFFCURVE",
"715 490 OFFCURVE",
"715 835 CURVE SMOOTH",
"715 984 OFFCURVE",
"674 1098 OFFCURVE",
"569 1098 CURVE SMOOTH",
"366 1098 OFFCURVE",
"256 680 OFFCURVE"
);
}
);
width = 971;
}
);
unicode = 0030;
},
{
color = 4;
glyphname = one;
lastChange = "2016-09-14 15:00:45 +0000";
layers = (
{
layerId = "F2FC958C-67D2-45D4-A67F-FC49D9225D80";
paths = (
{
closed = 1;
nodes = (
"43 0 LINE",
"62 74 LINE",
"333 121 LINE",
"477 1031 LINE",
"227 1031 LINE",
"245 1108 LINE",
"679 1185 LINE",
"706 1185 LINE",
"536 114 LINE",
"793 83 LINE",
"770 0 LINE"
);
}
);
width = 837;
}
);
unicode = 0031;
},
{
color = 4;
glyphname = two;
lastChange = "2016-09-14 15:00:45 +0000";
layers = (
{
layerId = "F2FC958C-67D2-45D4-A67F-FC49D9225D80";
paths = (
{
closed = 1;
nodes = (
"54 102 LINE",
"320 299 LINE SMOOTH",
"552 470 OFFCURVE",
"741 637 OFFCURVE",
"741 927 CURVE SMOOTH",
"741 1025 OFFCURVE",
"708 1105 OFFCURVE",
"588 1105 CURVE SMOOTH",
"504 1105 OFFCURVE",
"424 1052 OFFCURVE",
"389 987 CURVE",
"311 726 LINE",
"236 736 LINE",
"254 1020 LINE",
"328 1120 OFFCURVE",
"529 1209 OFFCURVE",
"672 1209 CURVE SMOOTH",
"863 1209 OFFCURVE",
"968 1113 OFFCURVE",
"968 943 CURVE SMOOTH",
"968 597 OFFCURVE",
"579 352 OFFCURVE",
"351 205 CURVE SMOOTH",
"268 151 LINE",
"722 151 LINE",
"860 368 LINE",
"929 358 LINE",
"824 0 LINE",
"44 0 LINE"
);
}
);
width = 1014;
}
);
unicode = 0032;
},
{
color = 4;
glyphname = three;
lastChange = "2016-09-14 15:00:45 +0000";
layers = (
{
layerId = "F2FC958C-67D2-45D4-A67F-FC49D9225D80";
paths = (
{
closed = 1;
nodes = (
"43 74 CURVE",
"141 373 LINE",
"224 360 LINE",
"205 157 LINE",
"221 115 OFFCURVE",
"285 72 OFFCURVE",
"355 72 CURVE SMOOTH",
"511 72 OFFCURVE",
"641 137 OFFCURVE",
"641 305 CURVE SMOOTH",
"641 420 OFFCURVE",
"529 545 OFFCURVE",
"347 545 CURVE",
"347 611 LINE",
"439 639 OFFCURVE",
"699 733 OFFCURVE",
"699 937 CURVE SMOOTH",
"699 1024 OFFCURVE",
"651 1124 OFFCURVE",
"543 1124 CURVE SMOOTH",
"489 1124 OFFCURVE",
"431 1101 OFFCURVE",
"390 1068 CURVE",
"304 812 LINE",
"221 823 LINE",
"245 1090 LINE",
"297 1138 OFFCURVE",
"470 1213 OFFCURVE",
"615 1213 CURVE SMOOTH",
"789 1213 OFFCURVE",
"918 1119 OFFCURVE",
"918 980 CURVE SMOOTH",
"918 788 OFFCURVE",
"714 695 OFFCURVE",
"580 649 CURVE",
"578 637 LINE",
"738 615 OFFCURVE",
"867 516 OFFCURVE",
"867 376 CURVE SMOOTH",
"867 127 OFFCURVE",
"583 -30 OFFCURVE",
"318 -30 CURVE SMOOTH",
"184 -30 OFFCURVE",
"64 29 OFFCURVE"
);
}
);
width = 962;
}
);
unicode = 0033;
},
{
color = 4;
glyphname = four;
lastChange = "2016-09-14 15:00:45 +0000";
layers = (
{
layerId = "F2FC958C-67D2-45D4-A67F-FC49D9225D80";
paths = (
{
closed = 1;
nodes = (
"45 431 LINE",
"808 1194 LINE",
"870 1176 LINE",
"845 1057 OFFCURVE",
"811 864 OFFCURVE",
"782 683 CURVE SMOOTH",
"750 479 LINE",
"1005 479 LINE",
"968 346 LINE",
"729 346 LINE",
"690 105 LINE",
"874 73 LINE",
"853 0 LINE",
"272 0 LINE",
"289 66 LINE",
"511 111 LINE",
"549 349 LINE",
"55 349 LINE"
);
},
{
closed = 1;
nodes = (
"238 479 LINE",
"567 479 LINE",
"635 912 LINE"
);
}
);
width = 1051;
}
);
unicode = 0034;
},
{
color = 4;
glyphname = five;
lastChange = "2016-09-14 15:00:45 +0000";
layers = (
{
layerId = "F2FC958C-67D2-45D4-A67F-FC49D9225D80";
paths = (
{
closed = 1;
nodes = (
"43 74 CURVE",
"119 387 LINE",
"201 368 LINE",
"188 155 LINE",
"218 93 OFFCURVE",
"283 67 OFFCURVE",
"365 67 CURVE SMOOTH",
"506 67 OFFCURVE",
"614 158 OFFCURVE",
"614 324 CURVE SMOOTH",
"614 490 OFFCURVE",
"472 584 OFFCURVE",
"203 602 CURVE",
"411 1169 LINE",
"885 1198 LINE",
"830 1016 LINE",
"441 1000 LINE",
"367 762 LINE",
"699 743 OFFCURVE",
"812 588 OFFCURVE",
"812 416 CURVE SMOOTH",
"812 159 OFFCURVE",
"579 -25 OFFCURVE",
"306 -25 CURVE SMOOTH",
"197 -25 OFFCURVE",
"105 -3 OFFCURVE"
);
}
);
width = 928;
}
);
unicode = 0035;
},
{
color = 4;
glyphname = six;
lastChange = "2016-09-14 15:00:45 +0000";
layers = (
{
layerId = "F2FC958C-67D2-45D4-A67F-FC49D9225D80";
paths = (
{
closed = 1;
nodes = (
"787 1214 CURVE",
"815 1155 LINE",
"535 1036 OFFCURVE",
"368 807 OFFCURVE",
"297 609 CURVE",
"308 609 LINE",
"360 659 OFFCURVE",
"451 709 OFFCURVE",
"559 709 CURVE SMOOTH",
"730 709 OFFCURVE",
"843 586 OFFCURVE",
"843 413 CURVE SMOOTH",
"843 128 OFFCURVE",
"602 -21 OFFCURVE",
"368 -21 CURVE SMOOTH",
"138 -21 OFFCURVE",
"48 138 OFFCURVE",
"48 345 CURVE SMOOTH",
"48 732 OFFCURVE",
"438 1106 OFFCURVE"
);
},
{
closed = 1;
nodes = (
"247 313 CURVE SMOOTH",
"247 168 OFFCURVE",
"291 61 OFFCURVE",
"388 61 CURVE SMOOTH",
"563 61 OFFCURVE",
"631 193 OFFCURVE",
"631 380 CURVE SMOOTH",
"631 490 OFFCURVE",
"587 606 OFFCURVE",
"470 606 CURVE SMOOTH",
"396 606 OFFCURVE",
"311 563 OFFCURVE",
"281 527 CURVE",
"260 477 OFFCURVE",
"247 405 OFFCURVE"
);
}
);
width = 894;
}
);
unicode = 0036;
},
{
color = 4;
glyphname = seven;
lastChange = "2016-09-14 15:00:45 +0000";
layers = (
{
layerId = "F2FC958C-67D2-45D4-A67F-FC49D9225D80";
paths = (
{
closed = 1;
nodes = (
"47 809 LINE",
"130 1182 LINE",
"918 1182 LINE",
"910 1130 LINE",
"309 -33 LINE",
"105 -11 LINE",
"737 1015 LINE",
"224 1015 LINE",
"114 796 LINE"
);
}
);
width = 961;
}
);
unicode = 0037;
},
{
color = 4;
glyphname = eight;
lastChange = "2016-09-14 15:00:45 +0000";
layers = (
{
layerId = "F2FC958C-67D2-45D4-A67F-FC49D9225D80";
paths = (
{
closed = 1;
nodes = (
"328 575 CURVE",
"329 584 LINE",
"254 640 OFFCURVE",
"185 722 OFFCURVE",
"185 838 CURVE SMOOTH",
"185 1043 OFFCURVE",
"385 1201 OFFCURVE",
"591 1201 CURVE SMOOTH",
"764 1201 OFFCURVE",
"870 1099 OFFCURVE",
"870 967 CURVE SMOOTH",
"870 822 OFFCURVE",
"745 682 OFFCURVE",
"618 639 CURVE",
"613 629 LINE",
"728 534 OFFCURVE",
"810 437 OFFCURVE",
"810 322 CURVE SMOOTH",
"810 98 OFFCURVE",
"619 -27 OFFCURVE",
"342 -27 CURVE SMOOTH",
"176 -27 OFFCURVE",
"44 68 OFFCURVE",
"44 229 CURVE SMOOTH",
"44 390 OFFCURVE",
"139 474 OFFCURVE"
);
},
{
closed = 1;
nodes = (
"238 273 CURVE SMOOTH",
"238 150 OFFCURVE",
"328 61 OFFCURVE",
"420 61 CURVE SMOOTH",
"512 61 OFFCURVE",
"617 123 OFFCURVE",
"617 256 CURVE SMOOTH",
"617 362 OFFCURVE",
"489 463 OFFCURVE",
"388 533 CURVE",
"316 476 OFFCURVE",
"238 424 OFFCURVE"
);
},
{
closed = 1;
nodes = (
"365 930 CURVE SMOOTH",
"365 844 OFFCURVE",
"434 754 OFFCURVE",
"554 678 CURVE",
"642 725 OFFCURVE",
"697 793 OFFCURVE",
"697 939 CURVE SMOOTH",
"697 1046 OFFCURVE",
"643 1124 OFFCURVE",
"554 1124 CURVE SMOOTH",
"436 1124 OFFCURVE",
"365 1026 OFFCURVE"
);
}
);
width = 914;
}
);
unicode = 0038;
},
{
color = 4;
glyphname = nine;
lastChange = "2016-09-14 15:00:45 +0000";
layers = (
{
layerId = "F2FC958C-67D2-45D4-A67F-FC49D9225D80";
paths = (
{
closed = 1;
nodes = (
"518 1211 CURVE SMOOTH",
"742 1211 OFFCURVE",
"824 1047 OFFCURVE",
"824 856 CURVE SMOOTH",
"824 432 OFFCURVE",
"481 40 OFFCURVE",
"88 -27 CURVE",
"77 47 LINE",
"343 123 OFFCURVE",
"522 345 OFFCURVE",
"582 575 CURVE",
"569 575 LINE",
"491 502 OFFCURVE",
"400 466 OFFCURVE",
"308 466 CURVE SMOOTH",
"144 466 OFFCURVE",
"54 574 OFFCURVE",
"54 737 CURVE SMOOTH",
"54 1033 OFFCURVE",
"305 1211 OFFCURVE"
);
},
{
closed = 1;
nodes = (
"261 766 CURVE SMOOTH",
"261 662 OFFCURVE",
"300 575 OFFCURVE",
"414 575 CURVE SMOOTH",
"484 575 OFFCURVE",
"560 612 OFFCURVE",
"599 662 CURVE",
"624 738 OFFCURVE",
"638 812 OFFCURVE",
"638 898 CURVE SMOOTH",
"638 1025 OFFCURVE",
"593 1130 OFFCURVE",
"499 1130 CURVE SMOOTH",
"339 1130 OFFCURVE",
"261 973 OFFCURVE"
);
}
);
width = 873;
}
);
unicode = 0039;
},
{
color = 4;
glyphname = zero.osf;
lastChange = "2016-09-14 15:00:45 +0000";
layers = (
{
layerId = "F2FC958C-67D2-45D4-A67F-FC49D9225D80";
paths = (
{
closed = 1;
nodes = (
"526 985 CURVE",
"529 985 LINE SMOOTH",
"737 982 OFFCURVE",
"846 838 OFFCURVE",
"846 619 CURVE SMOOTH",
"846 234 OFFCURVE",
"583 -23 OFFCURVE",
"368 -23 CURVE SMOOTH",
"193 -23 OFFCURVE",
"50 95 OFFCURVE",
"50 348 CURVE SMOOTH",
"50 674 OFFCURVE",
"272 985 OFFCURVE"
);
},
{
closed = 1;
nodes = (
"241 321 CURVE SMOOTH",
"241 138 OFFCURVE",
"307 71 OFFCURVE",
"384 71 CURVE SMOOTH",
"513 71 OFFCURVE",
"657 293 OFFCURVE",
"657 645 CURVE SMOOTH",
"657 825 OFFCURVE",
"592 900 OFFCURVE",
"515 900 CURVE SMOOTH",
"384 900 OFFCURVE",
"241 673 OFFCURVE"
);
}
);
width = 899;
}
);
},
{
color = 4;
glyphname = one.osf;
lastChange = "2016-09-14 15:00:45 +0000";
layers = (
{
layerId = "F2FC958C-67D2-45D4-A67F-FC49D9225D80";
paths = (
{
closed = 1;
nodes = (
"43 0 LINE",
"64 74 LINE",
"255 121 LINE",
"363 802 LINE",
"170 802 LINE",
"192 882 LINE",
"488 956 LINE",
"556 956 LINE",
"422 114 LINE",
"606 80 LINE",
"583 0 LINE"
);
}
);
width = 652;
}
);
},
{
color = 4;
glyphname = two.osf;
lastChange = "2016-09-14 15:00:45 +0000";
layers = (
{
layerId = "F2FC958C-67D2-45D4-A67F-FC49D9225D80";
paths = (
{
closed = 1;
nodes = (
"53 102 LINE",
"363 288 OFFCURVE",
"603 444 OFFCURVE",
"603 698 CURVE SMOOTH",
"603 796 OFFCURVE",
"555 867 OFFCURVE",
"477 867 CURVE SMOOTH",
"391 867 OFFCURVE",
"287 782 OFFCURVE",
"237 675 CURVE",
"167 704 LINE",
"198 800 OFFCURVE",
"362 987 OFFCURVE",
"571 991 CURVE SMOOTH",
"573 991 OFFCURVE",
"575 991 OFFCURVE",
"577 991 CURVE SMOOTH",
"739 991 OFFCURVE",
"814 869 OFFCURVE",
"815 740 CURVE SMOOTH",
"816 474 OFFCURVE",
"504 297 OFFCURVE",
"264 147 CURVE",
"635 147 LINE",
"738 301 LINE",
"807 292 LINE",
"707 0 LINE",
"44 0 LINE"
);
}
);
width = 865;
}
);
},
{
color = 4;
glyphname = three.osf;
lastChange = "2016-09-14 15:00:45 +0000";
layers = (
{
layerId = "F2FC958C-67D2-45D4-A67F-FC49D9225D80";
paths = (
{
closed = 1;
nodes = (
"189 -9 CURVE",
"198 -96 OFFCURVE",
"240 -204 OFFCURVE",
"333 -204 CURVE SMOOTH",
"527 -204 OFFCURVE",
"596 -71 OFFCURVE",
"596 73 CURVE SMOOTH",
"596 186 OFFCURVE",
"494 309 OFFCURVE",
"329 313 CURVE",
"320 380 LINE",
"460 422 OFFCURVE",
"651 540 OFFCURVE",
"651 702 CURVE SMOOTH",
"651 771 OFFCURVE",
"622 857 OFFCURVE",
"548 857 CURVE SMOOTH",
"440 857 OFFCURVE",
"376 788 OFFCURVE",
"325 698 CURVE",
"251 725 LINE",
"287 830 OFFCURVE",
"449 991 OFFCURVE",
"627 991 CURVE SMOOTH",
"762 991 OFFCURVE",
"846 876 OFFCURVE",
"846 754 CURVE SMOOTH",
"846 567 OFFCURVE",
"660 453 OFFCURVE",
"558 412 CURVE",
"557 401 LINE",
"689 386 OFFCURVE",
"793 269 OFFCURVE",
"793 131 CURVE SMOOTH",
"793 -96 OFFCURVE",
"545 -297 OFFCURVE",
"290 -297 CURVE SMOOTH",
"127 -297 OFFCURVE",
"42 -213 OFFCURVE",
"42 -151 CURVE SMOOTH",
"42 -92 OFFCURVE",
"103 -17 OFFCURVE"
);
}
);
width = 893;
}
);
},
{
color = 4;
glyphname = four.osf;
lastChange = "2016-09-14 15:00:45 +0000";
layers = (
{
layerId = "F2FC958C-67D2-45D4-A67F-FC49D9225D80";
paths = (
{
closed = 1;
nodes = (
"43 164 LINE",
"800 986 LINE",
"862 968 LINE",
"837 849 OFFCURVE",
"796 613 OFFCURVE",
"767 432 CURVE SMOOTH",
"732 211 LINE",
"986 211 LINE",
"950 86 LINE",
"715 86 LINE",
"656 -277 LINE",
"478 -304 LINE",
"540 89 LINE",
"54 89 LINE"
);
},
{
closed = 1;
nodes = (
"228 211 LINE",
"558 211 LINE",
"632 676 LINE"
);
}
);
width = 1029;
}
);
},
{
color = 4;
glyphname = five.osf;
lastChange = "2016-09-14 15:00:45 +0000";
layers = (
{
layerId = "F2FC958C-67D2-45D4-A67F-FC49D9225D80";
paths = (
{
closed = 1;
nodes = (
"164 -16 CURVE",
"187 -86 OFFCURVE",
"247 -206 OFFCURVE",
"356 -206 CURVE SMOOTH",
"493 -206 OFFCURVE",
"631 -124 OFFCURVE",
"631 101 CURVE SMOOTH",
"631 262 OFFCURVE",
"514 378 OFFCURVE",
"277 406 CURVE",
"461 914 LINE",
"911 974 LINE",
"860 801 LINE",
"499 768 LINE",
"433 550 LINE",
"700 523 OFFCURVE",
"826 372 OFFCURVE",
"826 182 CURVE SMOOTH",
"826 -78 OFFCURVE",
"576 -297 OFFCURVE",
"289 -297 CURVE SMOOTH",
"110 -297 OFFCURVE",
"42 -207 OFFCURVE",
"42 -150 CURVE SMOOTH",
"42 -71 OFFCURVE",
"106 -26 OFFCURVE"
);
}
);
width = 954;
}
);
},
{
color = 4;
glyphname = six.osf;
lastChange = "2016-09-14 15:00:45 +0000";
layers = (
{
layerId = "F2FC958C-67D2-45D4-A67F-FC49D9225D80";
paths = (
{
closed = 1;
nodes = (
"778 1229 CURVE",
"804 1171 LINE",
"524 1052 OFFCURVE",
"366 816 OFFCURVE",
"295 618 CURVE",
"305 618 LINE",
"374 686 OFFCURVE",
"463 722 OFFCURVE",
"545 722 CURVE SMOOTH",
"699 722 OFFCURVE",
"782 593 OFFCURVE",
"782 442 CURVE SMOOTH",
"782 178 OFFCURVE",
"554 -21 OFFCURVE",
"337 -21 CURVE SMOOTH",
"126 -21 OFFCURVE",
"49 161 OFFCURVE",
"49 341 CURVE SMOOTH",
"49 760 OFFCURVE",
"422 1119 OFFCURVE"
);
},
{
closed = 1;
nodes = (
"242 306 CURVE SMOOTH",
"242 182 OFFCURVE",
"278 61 OFFCURVE",
"367 61 CURVE SMOOTH",
"498 61 OFFCURVE",
"588 218 OFFCURVE",
"588 408 CURVE SMOOTH",
"588 509 OFFCURVE",
"556 615 OFFCURVE",
"449 615 CURVE SMOOTH",
"375 615 OFFCURVE",
"309 570 OFFCURVE",
"279 534 CURVE",
"261 460 OFFCURVE",
"242 393 OFFCURVE"
);
}
);
width = 851;
}
);
},
{
color = 4;
glyphname = seven.osf;
lastChange = "2016-09-14 15:00:45 +0000";
layers = (
{
layerId = "F2FC958C-67D2-45D4-A67F-FC49D9225D80";
paths = (
{
closed = 1;
nodes = (
"56 617 LINE",
"148 945 LINE",
"786 945 LINE",
"784 850 LINE",
"462 420 OFFCURVE",
"264 30 OFFCURVE",
"198 -301 CURVE",
"122 -315 OFFCURVE",
"44 -247 OFFCURVE",
"44 -174 CURVE SMOOTH",
"44 -25 OFFCURVE",
"399 471 OFFCURVE",
"632 786 CURVE",
"214 786 LINE",
"122 604 LINE"
);
}
);
width = 831;
}
);
},
{
color = 4;
glyphname = eight.osf;
lastChange = "2016-09-14 15:00:45 +0000";
layers = (
{
layerId = "F2FC958C-67D2-45D4-A67F-FC49D9225D80";
paths = (
{
closed = 1;
nodes = (
"324 589 CURVE",
"326 598 LINE",
"267 637 OFFCURVE",
"197 739 OFFCURVE",
"197 853 CURVE SMOOTH",
"197 1051 OFFCURVE",
"375 1201 OFFCURVE",
"557 1201 CURVE SMOOTH",
"711 1201 OFFCURVE",
"813 1115 OFFCURVE",
"813 988 CURVE SMOOTH",
"813 838 OFFCURVE",
"733 726 OFFCURVE",
"596 635 CURVE",
"595 626 LINE",
"710 546 OFFCURVE",
"765 450 OFFCURVE",
"765 346 CURVE SMOOTH",
"765 126 OFFCURVE",
"586 -27 OFFCURVE",
"347 -27 CURVE SMOOTH",
"184 -27 OFFCURVE",
"44 63 OFFCURVE",
"44 216 CURVE SMOOTH",
"44 372 OFFCURVE",
"166 504 OFFCURVE"
);
},
{
closed = 1;
nodes = (
"215 271 CURVE SMOOTH",
"215 142 OFFCURVE",
"294 66 OFFCURVE",
"386 66 CURVE SMOOTH",
"496 66 OFFCURVE",
"598 121 OFFCURVE",
"598 269 CURVE SMOOTH",
"598 367 OFFCURVE",
"499 462 OFFCURVE",
"378 545 CURVE",
"294 504 OFFCURVE",
"215 398 OFFCURVE"
);
},
{
closed = 1;
nodes = (
"361 949 CURVE SMOOTH",
"361 852 OFFCURVE",
"419 747 OFFCURVE",
"533 676 CURVE",
"581 721 OFFCURVE",
"659 800 OFFCURVE",
"659 944 CURVE SMOOTH",
"659 1034 OFFCURVE",
"617 1124 OFFCURVE",
"528 1124 CURVE SMOOTH",
"437 1124 OFFCURVE",
"361 1052 OFFCURVE"
);
}
);
width = 857;
}
);
},
{
color = 4;
glyphname = nine.osf;
lastChange = "2016-09-14 15:00:45 +0000";
layers = (
{
layerId = "F2FC958C-67D2-45D4-A67F-FC49D9225D80";
paths = (
{
closed = 1;
nodes = (
"499 972 CURVE SMOOTH",
"715 972 OFFCURVE",
"792 806 OFFCURVE",
"792 624 CURVE SMOOTH",
"792 203 OFFCURVE",
"433 -169 OFFCURVE",
"58 -282 CURVE",
"47 -208 LINE",
"359 -84 OFFCURVE",
"476 132 OFFCURVE",
"548 319 CURVE",
"536 319 LINE",
"476 252 OFFCURVE",
"392 230 OFFCURVE",
"305 230 CURVE SMOOTH",
"142 230 OFFCURVE",
"63 339 OFFCURVE",
"63 501 CURVE SMOOTH",
"63 779 OFFCURVE",
"276 972 OFFCURVE"
);
},
{
closed = 1;
nodes = (
"250 527 CURVE SMOOTH",
"250 413 OFFCURVE",
"296 338 OFFCURVE",
"395 338 CURVE SMOOTH",
"465 338 OFFCURVE",
"533 374 OFFCURVE",
"572 424 CURVE",
"597 500 OFFCURVE",
"609 574 OFFCURVE",
"609 659 CURVE SMOOTH",
"609 786 OFFCURVE",
"565 891 OFFCURVE",
"471 891 CURVE SMOOTH",
"353 891 OFFCURVE",
"250 755 OFFCURVE"
);
}
);
width = 845;
}
);
},
{
color = 4;
glyphname = one.superior;
lastChange = "2016-09-14 15:00:45 +0000";
layers = (
{
layerId = "F2FC958C-67D2-45D4-A67F-FC49D9225D80";
paths = (
{
closed = 1;
nodes = (
"49 531 LINE",
"65 605 LINE",
"222 630 LINE",
"300 1122 LINE",
"155 1122 LINE",
"171 1199 LINE",
"480 1245 LINE",
"499 1245 LINE",
"401 627 LINE",
"551 614 LINE",
"532 531 LINE"
);
}
);
width = 599;
}
);
},
{
color = 4;
glyphname = two.superior;
lastChange = "2016-09-14 15:00:45 +0000";
layers = (
{
layerId = "F2FC958C-67D2-45D4-A67F-FC49D9225D80";
paths = (
{
closed = 1;
nodes = (
"74 638 LINE",
"248 761 LINE",
"385 860 OFFCURVE",
"475 929 OFFCURVE",
"475 1057 CURVE SMOOTH",
"475 1110 OFFCURVE",
"456 1153 OFFCURVE",
"385 1153 CURVE SMOOTH",
"336 1153 OFFCURVE",
"291 1127 OFFCURVE",
"271 1095 CURVE",
"229 966 LINE",
"162 971 LINE",
"174 1141 LINE",
"227 1218 OFFCURVE",
"364 1257 OFFCURVE",
"465 1257 CURVE SMOOTH",
"603 1257 OFFCURVE",
"679 1201 OFFCURVE",
"679 1104 CURVE SMOOTH",
"679 922 OFFCURVE",
"489 805 OFFCURVE",
"306 696 CURVE SMOOTH",
"232 652 LINE",
"502 652 LINE",
"605 805 LINE",
"659 784 LINE",
"600 531 LINE",
"49 531 LINE"
);
}
);
width = 728;
}
);
},
{
color = 4;
glyphname = three.superior;
lastChange = "2016-09-14 15:00:45 +0000";
layers = (
{
layerId = "F2FC958C-67D2-45D4-A67F-FC49D9225D80";
paths = (
{
closed = 1;
nodes = (
"49 563 CURVE",
"111 762 LINE",
"184 754 LINE",
"171 619 LINE",
"186 598 OFFCURVE",
"221 579 OFFCURVE",
"264 579 CURVE SMOOTH",
"358 579 OFFCURVE",
"438 639 OFFCURVE",
"438 733 CURVE SMOOTH",
"438 798 OFFCURVE",
"366 849 OFFCURVE",
"253 849 CURVE",
"247 908 LINE",
"302 924 OFFCURVE",
"458 975 OFFCURVE",
"458 1092 CURVE SMOOTH",
"458 1142 OFFCURVE",
"431 1189 OFFCURVE",
"368 1189 CURVE SMOOTH",
"337 1189 OFFCURVE",
"306 1186 OFFCURVE",
"282 1167 CURVE",
"233 1010 LINE",
"158 1016 LINE",
"173 1187 LINE",
"211 1231 OFFCURVE",
"333 1279 OFFCURVE",
"436 1279 CURVE SMOOTH",
"561 1279 OFFCURVE",
"653 1231 OFFCURVE",
"653 1140 CURVE SMOOTH",
"653 1019 OFFCURVE",
"545 955 OFFCURVE",
"442 927 CURVE",
"441 920 LINE",
"569 907 OFFCURVE",
"632 852 OFFCURVE",
"632 767 CURVE SMOOTH",
"632 604 OFFCURVE",
"440 495 OFFCURVE",
"246 495 CURVE SMOOTH",
"151 495 OFFCURVE",
"62 521 OFFCURVE"
);
}
);
width = 701;
}
);
},
{
color = 4;
glyphname = fraction;
lastChange = "2016-09-14 15:00:45 +0000";
layers = (
{
layerId = "F2FC958C-67D2-45D4-A67F-FC49D9225D80";
paths = (
{
closed = 1;
nodes = (
"121.416 -10 LINE",
"623.13 588 LINE",
"1112.65 1210 LINE",
"1278.17 1207 LINE",
"1271.58 1178 LINE",
"777.605 591 LINE",
"307.932 -32 LINE"
);
}
);
width = 1736;
}
);
unicode = 2044;
userData = {
com.fontlab.hintData = {
hhints = (
{
position = -32;
width = 21;
}
);
};
};
},
{
color = 4;
glyphname = onehalf;
lastChange = "2016-09-14 15:00:45 +0000";
layers = (
{
layerId = "F2FC958C-67D2-45D4-A67F-FC49D9225D80";
paths = (
{
closed = 1;
nodes = (
"821 109 LINE",
"996 232 LINE",
"1133 331 OFFCURVE",
"1222 400 OFFCURVE",
"1222 528 CURVE SMOOTH",
"1222 581 OFFCURVE",
"1203 624 OFFCURVE",
"1132 624 CURVE SMOOTH",
"1083 624 OFFCURVE",
"1039 598 OFFCURVE",
"1019 566 CURVE",
"976 437 LINE",
"909 442 LINE",
"921 612 LINE",
"974 689 OFFCURVE",
"1111 728 OFFCURVE",
"1212 728 CURVE SMOOTH",
"1350 728 OFFCURVE",
"1426 672 OFFCURVE",
"1426 575 CURVE SMOOTH",
"1426 393 OFFCURVE",
"1236 276 OFFCURVE",
"1053 167 CURVE SMOOTH",
"979 123 LINE",
"1249 123 LINE",
"1353 276 LINE",
"1406 255 LINE",
"1347 2 LINE",
"796 2 LINE"
);
},
{
closed = 1;
nodes = (
"44 531 LINE",
"60 605 LINE",
"217 630 LINE",
"295 1122 LINE",
"150 1122 LINE",
"166 1199 LINE",
"475 1245 LINE",
"494 1245 LINE",
"396 627 LINE",
"546 614 LINE",
"527 531 LINE"
);
},
{
closed = 1;
nodes = (
"149 -10 LINE",
"651 588 LINE",
"1141 1210 LINE",
"1316 1207 LINE",
"1309 1178 LINE",
"816 591 LINE",
"346 -32 LINE"
);
}
);
width = 1476;
}
);
unicode = 00BD;
},
{
color = 4;
glyphname = onequarter;
lastChange = "2016-09-14 15:00:45 +0000";
layers = (
{
layerId = "F2FC958C-67D2-45D4-A67F-FC49D9225D80";
paths = (
{
closed = 1;
nodes = (
"748 270 LINE",
"1232 737 LINE",
"1287 726 LINE",
"1271 655 OFFCURVE",
"1248 539 OFFCURVE",
"1231 430 CURVE SMOOTH",
"1206 272 LINE",
"1354 272 LINE",
"1330 175 LINE",
"1191 175 LINE",
"1176 83 LINE",
"1294 65 LINE",
"1278 0 LINE",
"864 0 LINE",
"877 58 LINE",
"1018 85 LINE",
"1033 178 LINE",
"746 178 LINE"
);
},
{
closed = 1;
nodes = (
"855 272 LINE",
"1045 272 LINE",
"1082 508 LINE"
);
},
{
closed = 1;
nodes = (
"44 531 LINE",
"60 605 LINE",
"217 630 LINE",
"295 1122 LINE",
"150 1122 LINE",
"166 1199 LINE",
"475 1245 LINE",
"494 1245 LINE",
"396 627 LINE",
"546 614 LINE",
"527 531 LINE"
);
},
{
closed = 1;
nodes = (
"169 -10 LINE",
"671 588 LINE",
"1161 1210 LINE",
"1336 1207 LINE",
"1329 1178 LINE",
"836 591 LINE",
"366 -32 LINE"
);
}
);
width = 1397;
}
);
unicode = 00BC;
},
{
color = 4;
glyphname = threequarters;
lastChange = "2016-09-14 15:00:45 +0000";
layers = (
{
layerId = "F2FC958C-67D2-45D4-A67F-FC49D9225D80";
paths = (
{
closed = 1;
nodes = (
"46 546 CURVE",
"108 745 LINE",
"181 737 LINE",
"168 602 LINE",
"183 581 OFFCURVE",
"218 562 OFFCURVE",
"261 562 CURVE SMOOTH",
"355 562 OFFCURVE",
"435 622 OFFCURVE",
"435 716 CURVE SMOOTH",
"435 781 OFFCURVE",
"363 832 OFFCURVE",
"250 832 CURVE",
"244 891 LINE",
"299 907 OFFCURVE",
"455 958 OFFCURVE",
"455 1075 CURVE SMOOTH",
"455 1125 OFFCURVE",
"428 1172 OFFCURVE",
"365 1172 CURVE SMOOTH",
"334 1172 OFFCURVE",
"303 1169 OFFCURVE",
"279 1150 CURVE",
"230 993 LINE",
"155 999 LINE",
"170 1170 LINE",
"208 1214 OFFCURVE",
"330 1262 OFFCURVE",
"433 1262 CURVE SMOOTH",
"558 1262 OFFCURVE",
"650 1214 OFFCURVE",
"650 1123 CURVE SMOOTH",
"650 1002 OFFCURVE",
"542 938 OFFCURVE",
"439 910 CURVE",
"438 903 LINE",
"566 890 OFFCURVE",
"629 835 OFFCURVE",
"629 750 CURVE SMOOTH",
"629 587 OFFCURVE",
"437 478 OFFCURVE",
"243 478 CURVE SMOOTH",
"148 478 OFFCURVE",
"59 504 OFFCURVE"
);
},
{
closed = 1;
nodes = (
"162 -10 LINE",
"664 588 LINE",
"1153 1210 LINE",
"1329 1207 LINE",
"1322 1178 LINE",
"828 591 LINE",
"358 -32 LINE"
);
},
{
closed = 1;
nodes = (
"726 270 LINE",
"1210 737 LINE",
"1266 726 LINE",
"1250 655 OFFCURVE",
"1227 539 OFFCURVE",
"1210 430 CURVE SMOOTH",
"1185 272 LINE",
"1333 272 LINE",
"1308 175 LINE",
"1169 175 LINE",
"1155 83 LINE",
"1273 65 LINE",
"1257 0 LINE",
"843 0 LINE",
"856 58 LINE",
"997 85 LINE",
"1012 178 LINE",
"725 178 LINE"
);
},
{
closed = 1;
nodes = (
"834 272 LINE",
"1024 272 LINE",
"1061 508 LINE"
);
}
);
width = 1376;
}
);
unicode = 00BE;
},
{
color = 4;
glyphname = asterisk;
lastChange = "2016-09-14 15:00:45 +0000";
layers = (
{
layerId = "F2FC958C-67D2-45D4-A67F-FC49D9225D80";
paths = (
{
closed = 1;
nodes = (
"333 1292 LINE",
"469 1279 LINE",
"443 988 LINE",
"732 1119 LINE",
"761 989 LINE",
"476 921 LINE",
"695 692 LINE",
"577 623 LINE",
"424 870 LINE",
"269 593 LINE",
"167 685 LINE",
"360 904 LINE",
"48 964 LINE",
"103 1091 LINE",
"370 977 LINE"
);
}
);
width = 807;
}
);
unicode = 002A;
},
{
color = 4;
glyphname = backslash;
lastChange = "2016-09-14 15:00:45 +0000";
layers = (
{
layerId = "F2FC958C-67D2-45D4-A67F-FC49D9225D80";
paths = (
{
closed = 1;
nodes = (
"179 1235 LINE",
"389 -363 LINE",
"261 -355 LINE",
"48 1244 LINE"
);
}
);
width = 433;
}
);
unicode = 005C;
},
{
color = 4;
glyphname = periodcentered;
lastChange = "2016-09-14 15:00:45 +0000";
layers = (
{
layerId = "F2FC958C-67D2-45D4-A67F-FC49D9225D80";
paths = (
{
closed = 1;
nodes = (
"59 504 CURVE SMOOTH",
"59 568 OFFCURVE",
"115 618 OFFCURVE",
"179 618 CURVE SMOOTH",
"245 618 OFFCURVE",
"301 568 OFFCURVE",
"301 504 CURVE SMOOTH",
"301 437 OFFCURVE",
"245 381 OFFCURVE",
"179 381 CURVE SMOOTH",
"113 381 OFFCURVE",
"59 437 OFFCURVE"
);
}
);
width = 362;
}
);
unicode = 00B7;
},
{
color = 4;
glyphname = bullet;
lastChange = "2016-09-14 15:00:45 +0000";
layers = (
{
layerId = "F2FC958C-67D2-45D4-A67F-FC49D9225D80";
paths = (
{
closed = 1;
nodes = (
"71 575 CURVE SMOOTH",
"71 668 OFFCURVE",
"153 741 OFFCURVE",
"246 741 CURVE SMOOTH",
"342 741 OFFCURVE",
"423 666 OFFCURVE",
"423 573 CURVE SMOOTH",
"423 474 OFFCURVE",
"342 395 OFFCURVE",
"246 395 CURVE SMOOTH",
"150 395 OFFCURVE",
"71 476 OFFCURVE"
);
}
);
width = 494;
}
);
unicode = 2022;
userData = {
com.fontlab.hintData = {
hhints = (
{
position = 395;
width = 346;
}
);
vhints = (
{
position = 71;
width = 352;
}
);
};
};
},
{
color = 4;
glyphname = colon;
lastChange = "2016-09-14 15:00:45 +0000";
layers = (
{
layerId = "F2FC958C-67D2-45D4-A67F-FC49D9225D80";
paths = (
{
closed = 1;
nodes = (
"281 852 CURVE SMOOTH",
"336 852 OFFCURVE",
"377 814 OFFCURVE",
"377 762 CURVE SMOOTH",
"377 687 OFFCURVE",
"309 629 OFFCURVE",
"245 629 CURVE SMOOTH",
"188 629 OFFCURVE",
"151 672 OFFCURVE",
"151 727 CURVE SMOOTH",
"151 801 OFFCURVE",
"216 852 OFFCURVE"
);
},
{
closed = 1;
nodes = (
"182 225 CURVE SMOOTH",
"237 225 OFFCURVE",
"278 185 OFFCURVE",
"278 134 CURVE SMOOTH",
"278 59 OFFCURVE",
"209 2 OFFCURVE",
"145 2 CURVE SMOOTH",
"88 2 OFFCURVE",
"50 45 OFFCURVE",
"50 100 CURVE SMOOTH",
"50 172 OFFCURVE",
"117 225 OFFCURVE"
);
}
);
width = 428;
}
);
unicode = 003A;
},
{
color = 4;
glyphname = comma;
lastChange = "2016-09-14 15:00:45 +0000";
layers = (
{
layerId = "F2FC958C-67D2-45D4-A67F-FC49D9225D80";
paths = (
{
closed = 1;
nodes = (
"51 -244 LINE",
"186 -209 OFFCURVE",
"261 -125 OFFCURVE",
"261 -61 CURVE SMOOTH",
"261 4 OFFCURVE",
"210 50 OFFCURVE",
"130 30 CURVE",
"104 139 OFFCURVE",
"168 218 OFFCURVE",
"267 218 CURVE SMOOTH",
"336 218 OFFCURVE",
"419 182 OFFCURVE",
"419 30 CURVE SMOOTH",
"419 -66 OFFCURVE",
"336 -245 OFFCURVE",
"62 -314 CURVE"
);
}
);
width = 483;
}
);
unicode = 002C;
},
{
color = 4;
glyphname = ellipsis;
lastChange = "2016-09-14 15:00:45 +0000";
layers = (
{
layerId = "F2FC958C-67D2-45D4-A67F-FC49D9225D80";
paths = (
{
closed = 1;
nodes = (
"74 92 CURVE SMOOTH",
"74 156 OFFCURVE",
"129 205 OFFCURVE",
"193 205 CURVE SMOOTH",
"259 205 OFFCURVE",
"313 154 OFFCURVE",
"313 90 CURVE SMOOTH",
"313 23 OFFCURVE",
"259 -31 OFFCURVE",
"193 -31 CURVE SMOOTH",
"127 -31 OFFCURVE",
"74 25 OFFCURVE"
);
},
{
closed = 1;
nodes = (
"519 92 CURVE SMOOTH",
"519 156 OFFCURVE",
"574 205 OFFCURVE",
"638 205 CURVE SMOOTH",
"704 205 OFFCURVE",
"759 154 OFFCURVE",
"759 90 CURVE SMOOTH",
"759 23 OFFCURVE",
"704 -31 OFFCURVE",
"638 -31 CURVE SMOOTH",
"572 -31 OFFCURVE",
"519 25 OFFCURVE"
);
},
{
closed = 1;
nodes = (
"991 92 CURVE SMOOTH",
"991 156 OFFCURVE",
"1045 205 OFFCURVE",
"1109 205 CURVE SMOOTH",
"1175 205 OFFCURVE",
"1231 154 OFFCURVE",
"1231 90 CURVE SMOOTH",
"1231 23 OFFCURVE",
"1175 -31 OFFCURVE",
"1109 -31 CURVE SMOOTH",
"1043 -31 OFFCURVE",
"991 25 OFFCURVE"
);
}
);
width = 1301;
}
);
unicode = 2026;
userData = {
com.fontlab.hintData = {
hhints = (
{
position = -31;
width = 236;
}
);
vhints = (
{
position = 74;
width = 239;
},
{
position = 519;
width = 240;
},
{
position = 991;
width = 240;
}
);
};
};
},
{
color = 4;
glyphname = exclam;
lastChange = "2016-09-14 15:00:45 +0000";
layers = (
{
layerId = "F2FC958C-67D2-45D4-A67F-FC49D9225D80";
paths = (
{
closed = 1;
nodes = (
"187 210 CURVE SMOOTH",
"248 210 OFFCURVE",
"295 156 OFFCURVE",
"295 98 CURVE SMOOTH",
"295 16 OFFCURVE",
"220 -36 OFFCURVE",
"148 -36 CURVE SMOOTH",
"85 -36 OFFCURVE",
"44 21 OFFCURVE",
"44 81 CURVE SMOOTH",
"44 162 OFFCURVE",
"116 210 OFFCURVE"
);
},
{
closed = 1;
nodes = (
"254 1245 CURVE SMOOTH",
"260 1282 OFFCURVE",
"330 1292 OFFCURVE",
"373 1292 CURVE SMOOTH",
"398 1292 OFFCURVE",
"451 1285 OFFCURVE",
"451 1259 CURVE SMOOTH",
"451 1212 OFFCURVE",
"323 591 OFFCURVE",
"254 357 CURVE",
"170 376 LINE",
"201 669 OFFCURVE",
"227 1072 OFFCURVE"
);
}
);
width = 494;
}
);
unicode = 0021;
},
{
color = 4;
glyphname = numbersign;
lastChange = "2016-09-14 15:00:45 +0000";
layers = (
{
layerId = "F2FC958C-67D2-45D4-A67F-FC49D9225D80";
paths = (
{
closed = 1;
nodes = (
"246 -26 LINE",
"423 1149 LINE",
"539 1159 LINE",
"363 -19 LINE"
);
},
{
closed = 1;
nodes = (
"113 711 LINE",
"147 836 LINE",
"1056 836 LINE",
"1025 711 LINE"
);
},
{
closed = 1;
nodes = (
"42 326 LINE",
"75 451 LINE",
"981 451 LINE",
"950 326 LINE"
);
},
{
closed = 1;
nodes = (
"551 -26 LINE",
"727 1149 LINE",
"845 1158 LINE",
"668 -19 LINE"
);
}
);
width = 1099;
}
);
unicode = 0023;
},
{
color = 4;
glyphname = period;
lastChange = "2016-09-14 15:00:45 +0000";
layers = (
{
layerId = "F2FC958C-67D2-45D4-A67F-FC49D9225D80";
paths = (
{
closed = 1;
nodes = (
"200 215 CURVE SMOOTH",
"263 215 OFFCURVE",
"300 161 OFFCURVE",
"300 107 CURVE SMOOTH",
"300 23 OFFCURVE",
"239 -33 OFFCURVE",
"163 -33 CURVE SMOOTH",
"110 -33 OFFCURVE",
"57 23 OFFCURVE",
"57 74 CURVE SMOOTH",
"57 153 OFFCURVE",
"122 215 OFFCURVE"
);
}
);
width = 364;
}
);
unicode = 002E;
},
{
color = 4;
glyphname = question;
lastChange = "2016-09-14 15:00:45 +0000";
layers = (
{
layerId = "F2FC958C-67D2-45D4-A67F-FC49D9225D80";
paths = (
{
closed = 1;
nodes = (
"321 1288 CURVE SMOOTH",
"460 1288 OFFCURVE",
"603 1148 OFFCURVE",
"603 937 CURVE SMOOTH",
"603 561 OFFCURVE",
"249 744 OFFCURVE",
"249 454 CURVE SMOOTH",
"249 432 OFFCURVE",
"251 410 OFFCURVE",
"255 383 CURVE",
"178 367 LINE",
"161 401 OFFCURVE",
"132 476 OFFCURVE",
"132 548 CURVE SMOOTH",
"132 828 OFFCURVE",
"500 715 OFFCURVE",
"500 960 CURVE SMOOTH",
"500 1043 OFFCURVE",
"418 1113 OFFCURVE",
"363 1113 CURVE SMOOTH",
"287 1113 OFFCURVE",
"210 1088 OFFCURVE",
"160 1042 CURVE",
"132 1054 OFFCURVE",
"102 1090 OFFCURVE",
"102 1137 CURVE SMOOTH",
"102 1205 OFFCURVE",
"160 1288 OFFCURVE"
);
},
{
closed = 1;
nodes = (
"150 -36 CURVE SMOOTH",
"88 -36 OFFCURVE",
"44 10 OFFCURVE",
"44 70 CURVE SMOOTH",
"44 153 OFFCURVE",
"116 210 OFFCURVE",
"188 210 CURVE SMOOTH",
"250 210 OFFCURVE",
"296 167 OFFCURVE",
"296 108 CURVE SMOOTH",
"296 25 OFFCURVE",
"220 -36 OFFCURVE"
);
}
);
width = 648;
}
);
unicode = 003F;
},
{
color = 4;
glyphname = quotedbl;
lastChange = "2016-09-14 15:00:45 +0000";
layers = (
{
layerId = "F2FC958C-67D2-45D4-A67F-FC49D9225D80";
paths = (
{
closed = 1;
nodes = (
"291 1303 LINE",
"471 1286 LINE",
"375 903 LINE",
"280 892 LINE"
);
},
{
closed = 1;
nodes = (
"83 1303 LINE",
"263 1286 LINE",
"167 903 LINE",
"71 892 LINE"
);
}
);
width = 523;
}
);
unicode = 0022;
},
{
color = 4;
glyphname = quotesingle;
lastChange = "2016-09-14 15:00:45 +0000";
layers = (
{
layerId = "F2FC958C-67D2-45D4-A67F-FC49D9225D80";
paths = (
{
closed = 1;
nodes = (
"83 1303 LINE",
"263 1286 LINE",
"167 903 LINE",
"71 892 LINE"
);
}
);
width = 315;
}
);
unicode = 0027;
},
{
color = 4;
glyphname = semicolon;
lastChange = "2016-09-14 15:00:45 +0000";
layers = (
{
layerId = "F2FC958C-67D2-45D4-A67F-FC49D9225D80";
paths = (
{
closed = 1;
nodes = (
"45 -216 LINE",
"167 -184 OFFCURVE",
"234 -110 OFFCURVE",
"234 -52 CURVE SMOOTH",
"234 7 OFFCURVE",
"188 48 OFFCURVE",
"116 30 CURVE",
"93 129 OFFCURVE",
"150 199 OFFCURVE",
"239 199 CURVE SMOOTH",
"301 199 OFFCURVE",
"376 167 OFFCURVE",
"376 30 CURVE SMOOTH",
"376 -56 OFFCURVE",
"302 -217 OFFCURVE",
"55 -279 CURVE"
);
},
{
closed = 1;
nodes = (
"342 852 CURVE SMOOTH",
"397 852 OFFCURVE",
"437 814 OFFCURVE",
"437 762 CURVE SMOOTH",
"437 687 OFFCURVE",
"370 629 OFFCURVE",
"306 629 CURVE SMOOTH",
"249 629 OFFCURVE",
"211 672 OFFCURVE",
"211 727 CURVE SMOOTH",
"211 801 OFFCURVE",
"277 852 OFFCURVE"
);
}
);
width = 488;
}
);
unicode = 003B;
},
{
color = 4;
glyphname = slash;
lastChange = "2016-09-14 15:00:45 +0000";
layers = (
{
layerId = "F2FC958C-67D2-45D4-A67F-FC49D9225D80";
paths = (
{
closed = 1;
nodes = (
"41 -363 LINE",
"503 1235 LINE",
"635 1244 LINE",
"169 -355 LINE"
);
}
);
width = 677;
}
);
unicode = 002F;
},
{
color = 4;
glyphname = underscore;
lastChange = "2016-09-14 15:00:45 +0000";
layers = (
{
layerId = "F2FC958C-67D2-45D4-A67F-FC49D9225D80";
paths = (
{
closed = 1;
nodes = (
"63 -132 LINE",
"75 -27 LINE",
"903 -27 LINE",
"892 -132 LINE"
);
}
);
width = 970;
}
);
unicode = 005F;
},
{
color = 4;
glyphname = numbersign.osf;
lastChange = "2016-09-14 15:00:45 +0000";
layers = (
{
layerId = "F2FC958C-67D2-45D4-A67F-FC49D9225D80";
paths = (
{
closed = 1;
nodes = (
"164 -26 LINE",
"464 941 LINE",
"577 951 LINE",
"277 -19 LINE"
);
},
{
closed = 1;
nodes = (
"152 561 LINE",
"206 686 LINE",
"955 686 LINE",
"904 561 LINE"
);
},
{
closed = 1;
nodes = (
"48 243 LINE",
"101 368 LINE",
"847 368 LINE",
"796 243 LINE"
);
},
{
closed = 1;
nodes = (
"439 -26 LINE",
"738 941 LINE",
"850 950 LINE",
"550 -19 LINE"
);
}
);
width = 859;
}
);
userData = {
com.fontlab.hintData = {
hhints = (
{
position = -26;
width = 21;
},
{
position = 243;
width = 125;
},
{
position = 561;
width = 125;
}
);
};
};
},
{
color = 4;
glyphname = braceright;
lastChange = "2016-09-14 15:00:45 +0000";
layers = (
{
layerId = "F2FC958C-67D2-45D4-A67F-FC49D9225D80";
paths = (
{
closed = 1;
nodes = (
"98 -272 LINE SMOOTH",
"286 -244 OFFCURVE",
"153 352 OFFCURVE",
"465 438 CURVE",
"466 444 LINE",
"179 530 OFFCURVE",
"501 1121 OFFCURVE",
"334 1149 CURVE SMOOTH",
"296 1156 LINE",
"303 1255 LINE",
"362 1255 LINE SMOOTH",
"772 1255 OFFCURVE",
"332 548 OFFCURVE",
"616 497 CURVE SMOOTH",
"663 489 LINE",
"646 390 LINE",
"595 381 LINE SMOOTH",
"301 335 OFFCURVE",
"516 -378 OFFCURVE",
"101 -378 CURVE SMOOTH",
"40 -378 LINE",
"63 -277 LINE"
);
}
);
width = 709;
}
);
unicode = 007D;
},
{
color = 4;
glyphname = bracketright;
lastChange = "2016-09-14 15:00:45 +0000";
layers = (
{
layerId = "F2FC958C-67D2-45D4-A67F-FC49D9225D80";
paths = (
{
closed = 1;
nodes = (
"41 -375 LINE",
"46 -279 LINE",
"191 -259 LINE",
"414 1146 LINE",
"277 1166 LINE",
"302 1255 LINE",
"573 1255 LINE",
"317 -377 LINE"
);
}
);
width = 616;
}
);
unicode = 005D;
},
{
color = 4;
glyphname = parenleft;
lastChange = "2016-09-14 15:00:45 +0000";
layers = (
{
layerId = "F2FC958C-67D2-45D4-A67F-FC49D9225D80";
paths = (
{
closed = 1;
nodes = (
"347 -317 CURVE",
"268 -375 LINE",
"231 -334 OFFCURVE",
"50 -118 OFFCURVE",
"50 261 CURVE SMOOTH",
"50 831 OFFCURVE",
"448 1192 OFFCURVE",
"531 1255 CURVE",
"570 1189 LINE",
"461 1072 OFFCURVE",
"229 713 OFFCURVE",
"229 249 CURVE SMOOTH",
"229 -43 OFFCURVE",
"320 -258 OFFCURVE"
);
}
);
width = 611;
}
);
unicode = 0028;
},
{
color = 4;
glyphname = parenright;
lastChange = "2016-09-14 15:00:45 +0000";
layers = (
{
layerId = "F2FC958C-67D2-45D4-A67F-FC49D9225D80";
paths = (
{
closed = 1;
nodes = (
"40 -317 CURVE",
"100 -375 LINE",
"172 -316 OFFCURVE",
"580 12 OFFCURVE",
"580 629 CURVE SMOOTH",
"580 1004 OFFCURVE",
"401 1207 OFFCURVE",
"352 1255 CURVE",
"293 1189 LINE",
"344 1105 OFFCURVE",
"409 943 OFFCURVE",
"409 702 CURVE SMOOTH",
"409 132 OFFCURVE",
"114 -220 OFFCURVE"
);
}
);
width = 634;
}
);
unicode = 0029;
},
{
color = 4;
glyphname = emdash;
lastChange = "2016-09-14 15:00:45 +0000";
layers = (
{
layerId = "F2FC958C-67D2-45D4-A67F-FC49D9225D80";
paths = (
{
closed = 1;
nodes = (
"61 409 LINE",
"76 513 LINE",
"1197 520 LINE",
"1181 415 LINE"
);
}
);
width = 1258;
}
);
unicode = 2014;
},
{
color = 4;
glyphname = endash;
lastChange = "2016-09-14 15:00:45 +0000";
layers = (
{
layerId = "F2FC958C-67D2-45D4-A67F-FC49D9225D80";
paths = (
{
closed = 1;
nodes = (
"61 409 LINE",
"76 513 LINE",
"687 520 LINE",
"671 415 LINE"
);
}
);
width = 748;
}
);
unicode = 2013;
},
{
color = 4;
glyphname = hyphen;
lastChange = "2016-09-14 15:00:45 +0000";
layers = (
{
layerId = "F2FC958C-67D2-45D4-A67F-FC49D9225D80";
paths = (
{
closed = 1;
nodes = (
"87 499 LINE",
"497 517 LINE",
"470 416 LINE",
"59 398 LINE"
);
}
);
width = 558;
}
);
unicode = 002D;
},
{
color = 4;
glyphname = softhyphen;
lastChange = "2016-09-14 15:00:45 +0000";
layers = (
{
layerId = "F2FC958C-67D2-45D4-A67F-FC49D9225D80";
paths = (
{
closed = 1;
nodes = (
"83 522 LINE",
"501 581 LINE",
"475 466 LINE",
"57 406 LINE"
);
}
);
width = 560;
}
);
unicode = 00AD;
},
{
color = 4;
glyphname = guillemetleft;
lastChange = "2016-09-14 15:00:45 +0000";
layers = (
{
layerId = "F2FC958C-67D2-45D4-A67F-FC49D9225D80";
paths = (
{
closed = 1;
nodes = (
"298 469 LINE",
"622 821 LINE",
"657 761 LINE",
"444 461 LINE",
"561 140 LINE",
"498 78 LINE",
"297 449 LINE"
);
},
{
closed = 1;
nodes = (
"51 469 LINE",
"374 821 LINE",
"409 761 LINE",
"196 461 LINE",
"313 140 LINE",
"250 78 LINE",
"49 449 LINE"
);
}
);
width = 704;
}
);
unicode = 00AB;
},
{
color = 4;
glyphname = guilsinglleft;
lastChange = "2016-09-14 15:00:45 +0000";
layers = (
{
layerId = "F2FC958C-67D2-45D4-A67F-FC49D9225D80";
paths = (
{
closed = 1;
nodes = (
"49 469 LINE",
"318 820 LINE",
"361 761 LINE",
"197 461 LINE",
"364 141 LINE",
"312 77 LINE",
"50 449 LINE"
);
}
);
width = 415;
}
);
unicode = 2039;
},
{
color = 4;
glyphname = guilsinglright;
lastChange = "2016-09-14 15:00:45 +0000";
layers = (
{
layerId = "F2FC958C-67D2-45D4-A67F-FC49D9225D80";
paths = (
{
closed = 1;
nodes = (
"51 141 LINE",
"218 461 LINE",
"54 761 LINE",
"98 820 LINE",
"366 469 LINE",
"364 449 LINE",
"103 77 LINE"
);
}
);
width = 416;
}
);
unicode = 203A;
},
{
color = 4;
glyphname = quotedblbase;
lastChange = "2016-09-14 15:00:45 +0000";
layers = (
{
layerId = "F2FC958C-67D2-45D4-A67F-FC49D9225D80";
paths = (
{
closed = 1;
nodes = (
"54 -254 LINE",
"185 -220 OFFCURVE",
"236 -144 OFFCURVE",
"236 -80 CURVE SMOOTH",
"236 -24 OFFCURVE",
"190 27 OFFCURVE",
"120 27 CURVE SMOOTH",
"110 27 OFFCURVE",
"100 25 OFFCURVE",
"90 24 CURVE",
"82 45 OFFCURVE",
"76 64 OFFCURVE",
"76 87 CURVE SMOOTH",
"76 167 OFFCURVE",
"148 208 OFFCURVE",
"198 208 CURVE SMOOTH",
"268 208 OFFCURVE",
"372 151 OFFCURVE",
"372 0 CURVE SMOOTH",
"372 -93 OFFCURVE",
"340 -253 OFFCURVE",
"77 -323 CURVE"
);
},
{
closed = 1;
nodes = (
"372 -254 LINE",
"503 -220 OFFCURVE",
"553 -144 OFFCURVE",
"553 -80 CURVE SMOOTH",
"553 -24 OFFCURVE",
"508 27 OFFCURVE",
"438 27 CURVE SMOOTH",
"428 27 OFFCURVE",
"418 25 OFFCURVE",
"408 24 CURVE",
"400 45 OFFCURVE",
"393 64 OFFCURVE",
"393 87 CURVE SMOOTH",
"393 167 OFFCURVE",
"466 208 OFFCURVE",
"516 208 CURVE SMOOTH",
"586 208 OFFCURVE",
"691 151 OFFCURVE",
"691 0 CURVE SMOOTH",
"691 -93 OFFCURVE",
"658 -253 OFFCURVE",
"395 -323 CURVE"
);
}
);
width = 749;
}
);
unicode = 201E;
userData = {
com.fontlab.hintData = {
hhints = (
{
position = -323;
width = 69;
},
{
position = 27;
width = 181;
}
);
vhints = (
{
position = 236;
width = 136;
},
{
position = 553;
width = 138;
}
);
};
};
},
{
color = 4;
glyphname = quotedblleft;
lastChange = "2016-09-14 15:00:45 +0000";
layers = (
{
layerId = "F2FC958C-67D2-45D4-A67F-FC49D9225D80";
paths = (
{
closed = 1;
nodes = (
"59 964 CURVE SMOOTH",
"59 1057 OFFCURVE",
"93 1217 OFFCURVE",
"356 1287 CURVE",
"377 1219 LINE",
"246 1185 OFFCURVE",
"196 1109 OFFCURVE",
"196 1045 CURVE SMOOTH",
"196 989 OFFCURVE",
"243 938 OFFCURVE",
"313 938 CURVE SMOOTH",
"323 938 OFFCURVE",
"333 939 OFFCURVE",
"343 940 CURVE",
"351 919 OFFCURVE",
"357 901 OFFCURVE",
"357 878 CURVE SMOOTH",
"357 798 OFFCURVE",
"285 756 OFFCURVE",
"235 756 CURVE SMOOTH",
"165 756 OFFCURVE",
"59 813 OFFCURVE"
);
},
{
closed = 1;
nodes = (
"374 964 CURVE SMOOTH",
"374 1057 OFFCURVE",
"408 1217 OFFCURVE",
"671 1287 CURVE",
"693 1219 LINE",
"562 1185 OFFCURVE",
"512 1109 OFFCURVE",
"512 1045 CURVE SMOOTH",
"512 989 OFFCURVE",
"558 938 OFFCURVE",
"628 938 CURVE SMOOTH",
"638 938 OFFCURVE",
"647 939 OFFCURVE",
"657 940 CURVE",
"665 919 OFFCURVE",
"671 901 OFFCURVE",
"671 878 CURVE SMOOTH",
"671 798 OFFCURVE",
"599 756 OFFCURVE",
"549 756 CURVE SMOOTH",
"479 756 OFFCURVE",
"374 813 OFFCURVE"
);
}
);
width = 742;
}
);
unicode = 201C;
},
{
color = 4;
glyphname = quotedblright;
lastChange = "2016-09-14 15:00:45 +0000";
layers = (
{
layerId = "F2FC958C-67D2-45D4-A67F-FC49D9225D80";
paths = (
{
closed = 1;
nodes = (
"61 824 LINE",
"192 858 OFFCURVE",
"242 934 OFFCURVE",
"242 998 CURVE SMOOTH",
"242 1054 OFFCURVE",
"197 1104 OFFCURVE",
"127 1104 CURVE SMOOTH",
"117 1104 OFFCURVE",
"107 1104 OFFCURVE",
"97 1103 CURVE",
"89 1124 OFFCURVE",
"82 1143 OFFCURVE",
"82 1166 CURVE SMOOTH",
"82 1246 OFFCURVE",
"155 1286 OFFCURVE",
"205 1286 CURVE SMOOTH",
"275 1286 OFFCURVE",
"380 1229 OFFCURVE",
"380 1078 CURVE SMOOTH",
"380 985 OFFCURVE",
"347 825 OFFCURVE",
"84 755 CURVE"
);
},
{
closed = 1;
nodes = (
"379 824 LINE",
"510 858 OFFCURVE",
"560 934 OFFCURVE",
"560 998 CURVE SMOOTH",
"560 1054 OFFCURVE",
"514 1104 OFFCURVE",
"444 1104 CURVE SMOOTH",
"434 1104 OFFCURVE",
"424 1104 OFFCURVE",
"414 1103 CURVE",
"406 1124 OFFCURVE",
"399 1143 OFFCURVE",
"399 1166 CURVE SMOOTH",
"399 1246 OFFCURVE",
"472 1286 OFFCURVE",
"522 1286 CURVE SMOOTH",
"592 1286 OFFCURVE",
"697 1229 OFFCURVE",
"697 1078 CURVE SMOOTH",
"697 985 OFFCURVE",
"664 825 OFFCURVE",
"401 755 CURVE"
);
}
);
width = 747;
}
);
unicode = 201D;
},
{
color = 4;
glyphname = quoteleft;
lastChange = "2016-09-14 15:00:45 +0000";
layers = (
{
layerId = "F2FC958C-67D2-45D4-A67F-FC49D9225D80";
paths = (
{
closed = 1;
nodes = (
"59 961 CURVE SMOOTH",
"59 1054 OFFCURVE",
"92 1214 OFFCURVE",
"355 1284 CURVE",
"378 1215 LINE",
"247 1181 OFFCURVE",
"196 1105 OFFCURVE",
"196 1041 CURVE SMOOTH",
"196 985 OFFCURVE",
"242 934 OFFCURVE",
"312 934 CURVE SMOOTH",
"322 934 OFFCURVE",
"331 936 OFFCURVE",
"341 937 CURVE",
"349 916 OFFCURVE",
"357 898 OFFCURVE",
"357 875 CURVE SMOOTH",
"357 795 OFFCURVE",
"284 753 OFFCURVE",
"234 753 CURVE SMOOTH",
"164 753 OFFCURVE",
"59 810 OFFCURVE"
);
}
);
width = 427;
}
);
unicode = 2018;
},
{
color = 4;
glyphname = quoteright;
lastChange = "2016-09-14 15:00:45 +0000";
layers = (
{
layerId = "F2FC958C-67D2-45D4-A67F-FC49D9225D80";
paths = (
{
closed = 1;
nodes = (
"61 819 LINE",
"192 853 OFFCURVE",
"242 928 OFFCURVE",
"242 992 CURVE SMOOTH",
"242 1048 OFFCURVE",
"197 1100 OFFCURVE",
"127 1100 CURVE SMOOTH",
"117 1100 OFFCURVE",
"107 1098 OFFCURVE",
"97 1097 CURVE",
"89 1118 OFFCURVE",
"82 1137 OFFCURVE",
"82 1160 CURVE SMOOTH",
"82 1240 OFFCURVE",
"155 1281 OFFCURVE",
"205 1281 CURVE SMOOTH",
"275 1281 OFFCURVE",
"380 1224 OFFCURVE",
"380 1073 CURVE SMOOTH",
"380 980 OFFCURVE",
"347 820 OFFCURVE",
"84 750 CURVE"
);
}
);
width = 430;
}
);
unicode = 2019;
},
{
color = 4;
glyphname = quotesinglbase;
lastChange = "2016-09-14 15:00:45 +0000";
layers = (
{
layerId = "F2FC958C-67D2-45D4-A67F-FC49D9225D80";
paths = (
{
closed = 1;
nodes = (
"55 -244 LINE",
"186 -210 OFFCURVE",
"237 -134 OFFCURVE",
"237 -70 CURVE SMOOTH",
"237 -14 OFFCURVE",
"191 36 OFFCURVE",
"121 36 CURVE SMOOTH",
"111 36 OFFCURVE",
"101 35 OFFCURVE",
"91 34 CURVE",
"83 55 OFFCURVE",
"77 74 OFFCURVE",
"77 97 CURVE SMOOTH",
"77 177 OFFCURVE",
"149 218 OFFCURVE",
"199 218 CURVE SMOOTH",
"269 218 OFFCURVE",
"373 161 OFFCURVE",
"373 10 CURVE SMOOTH",
"373 -83 OFFCURVE",
"341 -243 OFFCURVE",
"78 -313 CURVE"
);
}
);
width = 437;
}
);
unicode = 201A;
},
{
color = 4;
glyphname = cent;
lastChange = "2016-09-14 15:00:45 +0000";
layers = (
{
layerId = "F2FC958C-67D2-45D4-A67F-FC49D9225D80";
paths = (
{
closed = 1;
nodes = (
"611 179 CURVE",
"635 118 LINE",
"565 39 OFFCURVE",
"438 -24 OFFCURVE",
"327 -24 CURVE SMOOTH",
"149 -24 OFFCURVE",
"24 98.132 OFFCURVE",
"24 348 CURVE SMOOTH",
"24 672.414 OFFCURVE",
"275 908 OFFCURVE",
"514 908 CURVE SMOOTH",
"632 908 OFFCURVE",
"700 845 OFFCURVE",
"700 751 CURVE SMOOTH",
"700 688 OFFCURVE",
"640 653 OFFCURVE",
"571 647 CURVE",
"543 731 OFFCURVE",
"518 811 OFFCURVE",
"431 811 CURVE SMOOTH",
"261 811 OFFCURVE",
"197 577.922 OFFCURVE",
"197 420 CURVE SMOOTH",
"197 210.285 OFFCURVE",
"259 106 OFFCURVE",
"398 106 CURVE SMOOTH",
"482 106 OFFCURVE",
"561 148 OFFCURVE"
);
},
{
closed = 1;
nodes = (
"424 1114 LINE",
"572 1131 LINE",
"506 863 LINE",
"415 863 LINE"
);
},
{
closed = 1;
nodes = (
"231 -266 LINE",
"299 0 LINE",
"388 0 LINE",
"382 -250 LINE"
);
}
);
width = 712;
}
);
unicode = 00A2;
},
{
color = 4;
glyphname = currency;
lastChange = "2016-09-14 15:00:45 +0000";
layers = (
{
layerId = "F2FC958C-67D2-45D4-A67F-FC49D9225D80";
paths = (
{
closed = 1;
nodes = (
"48 746 LINE",
"132 827 LINE",
"241 709 LINE",
"284 745 OFFCURVE",
"346 768 OFFCURVE",
"395 768 CURVE SMOOTH",
"449 768 OFFCURVE",
"512 748 OFFCURVE",
"552 718 CURVE",
"663 830 LINE",
"737 742 LINE",
"622 636 LINE",
"643 599 OFFCURVE",
"658 538 OFFCURVE",
"658 491 CURVE SMOOTH",
"658 441 OFFCURVE",
"642 379 OFFCURVE",
"615 342 CURVE",
"740 223 LINE",
"655 143 LINE",
"542 264 LINE",
"496 236 OFFCURVE",
"434 217 OFFCURVE",
"387 217 CURVE SMOOTH",
"347 217 OFFCURVE",
"293 233 OFFCURVE",
"253 257 CURVE",
"145 136 LINE",
"61 221 LINE",
"176 332 LINE",
"149 372 OFFCURVE",
"131 435 OFFCURVE",
"131 488 CURVE SMOOTH",
"131 534 OFFCURVE",
"147 592 OFFCURVE",
"170 628 CURVE"
);
},
{
closed = 1;
nodes = (
"236 494 CURVE SMOOTH",
"236 386 OFFCURVE",
"300 313 OFFCURVE",
"392 313 CURVE SMOOTH",
"488 313 OFFCURVE",
"552 383 OFFCURVE",
"552 487 CURVE SMOOTH",
"552 598 OFFCURVE",
"488 670 OFFCURVE",
"391 670 CURVE SMOOTH",
"299 670 OFFCURVE",
"236 599 OFFCURVE"
);
}
);
width = 789;
}
);
unicode = 00A4;
},
{
color = 4;
glyphname = dollar;
lastChange = "2016-09-14 15:00:45 +0000";
layers = (
{
layerId = "F2FC958C-67D2-45D4-A67F-FC49D9225D80";
paths = (
{
closed = 1;
nodes = (
"832 887 CURVE",
"735 898 LINE",
"738 1090 LINE",
"731 1118 OFFCURVE",
"668 1184 OFFCURVE",
"584 1184 CURVE SMOOTH",
"470 1184 OFFCURVE",
"371 1113 OFFCURVE",
"371 968 CURVE SMOOTH",
"371 725 OFFCURVE",
"862 714 OFFCURVE",
"862 400 CURVE SMOOTH",
"862 147 OFFCURVE",
"603 -25 OFFCURVE",
"352 -25 CURVE SMOOTH",
"208 -25 OFFCURVE",
"80 41 OFFCURVE",
"39 122 CURVE",
"96 390 LINE",
"195 375 LINE",
"201 187 LINE",
"229 123 OFFCURVE",
"294 78 OFFCURVE",
"391 78 CURVE SMOOTH",
"507 78 OFFCURVE",
"665 149 OFFCURVE",
"665 312 CURVE SMOOTH",
"665 528 OFFCURVE",
"186 556 OFFCURVE",
"186 870 CURVE SMOOTH",
"186 1128 OFFCURVE",
"414 1270 OFFCURVE",
"632 1270 CURVE SMOOTH",
"720 1270 OFFCURVE",
"832 1247 OFFCURVE",
"898 1169 CURVE",
"896 1161 OFFCURVE",
"832 887 OFFCURVE"
);
},
{
closed = 1;
nodes = (
"285 -179 LINE",
"326 9 LINE",
"371 54 LINE",
"462 631 LINE",
"478 700 LINE",
"558 1207 LINE",
"528 1242 LINE",
"537 1394 LINE",
"704 1409 LINE",
"661 1242 LINE",
"619 1202 LINE",
"534 666 LINE",
"524 582 LINE",
"441 54 LINE",
"476 20 LINE",
"460 -164 LINE"
);
}
);
width = 938;
}
);
unicode = 0024;
},
{
color = 4;
glyphname = euro;
lastChange = "2016-09-14 15:00:45 +0000";
layers = (
{
layerId = "F2FC958C-67D2-45D4-A67F-FC49D9225D80";
paths = (
{
closed = 1;
nodes = (
"49 468 LINE",
"59 567 LINE",
"912 567 LINE",
"891 468 LINE"
);
},
{
closed = 1;
nodes = (
"59 651 LINE",
"69 750 LINE",
"961 750 LINE",
"940 651 LINE"
);
},
{
closed = 1;
nodes = (
"205 636 CURVE SMOOTH",
"205 917 OFFCURVE",
"410 1269 OFFCURVE",
"813 1269 CURVE SMOOTH",
"945 1269 OFFCURVE",
"1046 1242 OFFCURVE",
"1142 1169 CURVE",
"1111 837 LINE",
"1023 850 LINE",
"981 1070 LINE",
"935 1129 OFFCURVE",
"885 1174 OFFCURVE",
"756 1174 CURVE SMOOTH",
"530 1174 OFFCURVE",
"417 965 OFFCURVE",
"417 666 CURVE SMOOTH",
"417 343 OFFCURVE",
"560 83 OFFCURVE",
"813 83 CURVE SMOOTH",
"875 83 OFFCURVE",
"950 108 OFFCURVE",
"997 174 CURVE",
"1040 401 LINE",
"1128 414 LINE",
"1159 111 LINE",
"1033 12 OFFCURVE",
"927 -24 OFFCURVE",
"763 -24 CURVE SMOOTH",
"425 -24 OFFCURVE",
"205 234 OFFCURVE"
);
}
);
width = 1210;
}
);
unicode = 20AC;
},
{
color = 4;
glyphname = sterling;
lastChange = "2016-09-14 15:00:45 +0000";
layers = (
{
layerId = "F2FC958C-67D2-45D4-A67F-FC49D9225D80";
paths = (
{
closed = 1;
nodes = (
"43 0 LINE",
"62 74 LINE",
"237 121 LINE",
"284 221 OFFCURVE",
"304 313 OFFCURVE",
"330 461 CURVE SMOOTH",
"347 549 LINE",
"165 538 LINE",
"193 639 LINE",
"366 649 LINE",
"390 786 LINE",
"451 1108 OFFCURVE",
"644 1250 OFFCURVE",
"871 1250 CURVE SMOOTH",
"951 1250 OFFCURVE",
"1024 1244 OFFCURVE",
"1098 1211 CURVE",
"1017 895 LINE",
"933 907 LINE",
"926 1121 LINE",
"907 1132 OFFCURVE",
"880 1143 OFFCURVE",
"844 1143 CURVE SMOOTH",
"677 1143 OFFCURVE",
"628 1037 OFFCURVE",
"569 703 CURVE",
"562 655 LINE",
"782 669 LINE",
"756 568 LINE",
"543 555 LINE",
"536 515 LINE",
"508 356 OFFCURVE",
"471 196 OFFCURVE",
"409 99 CURVE",
"868 96 LINE",
"1039 349 LINE",
"1122 331 LINE",
"1032 0 LINE"
);
}
);
width = 1167;
}
);
unicode = 00A3;
},
{
color = 4;
glyphname = yen;
lastChange = "2016-09-14 15:00:45 +0000";
layers = (
{
layerId = "F2FC958C-67D2-45D4-A67F-FC49D9225D80";
paths = (
{
closed = 1;
nodes = (
"390 472 LINE",
"83 472 LINE",
"111 578 LINE",
"375 578 LINE",
"222 1126 LINE",
"91 1168 LINE",
"116 1244 LINE",
"583 1244 LINE",
"560 1168 LINE",
"422 1130 LINE",
"554 641 LINE",
"849 1126 LINE",
"699 1168 LINE",
"720 1244 LINE",
"1117 1244 LINE",
"1095 1168 LINE",
"965 1130 LINE",
"623 578 LINE",
"927 578 LINE",
"899 472 LINE",
"583 472 LINE",
"564 345 LINE",
"887 345 LINE",
"859 239 LINE",
"547 239 LINE",
"527 114 LINE",
"686 81 LINE",
"663 0 LINE",
"156 0 LINE",
"177 74 LINE",
"336 121 LINE",
"354 239 LINE",
"43 239 LINE",
"71 345 LINE",
"370 345 LINE"
);
}
);
width = 1159;
}
);
unicode = 00A5;
},
{
color = 4;
glyphname = dollar.osf;
lastChange = "2016-09-14 15:00:45 +0000";
layers = (
{
layerId = "F2FC958C-67D2-45D4-A67F-FC49D9225D80";
paths = (
{
closed = 1;
nodes = (
"72 141 CURVE SMOOTH",
"83 208 OFFCURVE",
"141 265 OFFCURVE",
"225 271 CURVE",
"246 130 OFFCURVE",
"305 64 OFFCURVE",
"381 64 CURVE SMOOTH",
"451 64 OFFCURVE",
"517 91 OFFCURVE",
"529 165 CURVE SMOOTH",
"554 324 OFFCURVE",
"130 354 OFFCURVE",
"173 624 CURVE SMOOTH",
"191 740 OFFCURVE",
"313 900 OFFCURVE",
"515 900 CURVE SMOOTH",
"646 900 OFFCURVE",
"751 845 OFFCURVE",
"733 734 CURVE SMOOTH",
"720 651 OFFCURVE",
"658 595 OFFCURVE",
"570 589 CURVE",
"570 632 LINE SMOOTH",
"565 780 OFFCURVE",
"509 816 OFFCURVE",
"450 816 CURVE SMOOTH",
"380 816 OFFCURVE",
"329 760 OFFCURVE",
"319 696 CURVE SMOOTH",
"289 509 OFFCURVE",
"725 487 OFFCURVE",
"683 220 CURVE SMOOTH",
"660 72 OFFCURVE",
"489 -34 OFFCURVE",
"335 -34 CURVE SMOOTH",
"157 -34 OFFCURVE",
"58 51 OFFCURVE"
);
},
{
closed = 1;
nodes = (
"267 -197 LINE",
"313 -15 LINE",
"420 -6 LINE",
"409 -179 LINE"
);
},
{
closed = 1;
nodes = (
"470 1041 LINE",
"605 1058 LINE",
"562 889 LINE",
"462 889 LINE"
);
}
);
width = 859;
}
);
userData = {
com.fontlab.hintData = {
hhints = (
{
position = -34;
width = 98;
},
{
position = 889;
width = 11;
}
);
vhints = (
{
position = 470;
width = 135;
},
{
position = 570;
width = 163;
}
);
};
};
},
{
color = 4;
glyphname = euro.osf;
lastChange = "2016-09-14 15:00:45 +0000";
layers = (
{
layerId = "F2FC958C-67D2-45D4-A67F-FC49D9225D80";
paths = (
{
closed = 1;
nodes = (
"858 775 LINE",
"844 816 OFFCURVE",
"804 852 OFFCURVE",
"703 852 CURVE SMOOTH",
"558 852 OFFCURVE",
"470 744 OFFCURVE",
"425 463 CURVE SMOOTH",
"387 222 OFFCURVE",
"510 103 OFFCURVE",
"651 103 CURVE SMOOTH",
"796 103 OFFCURVE",
"876 161 OFFCURVE",
"917 197 CURVE",
"948 120 LINE",
"917 75 OFFCURVE",
"790 -24 OFFCURVE",
"582 -24 CURVE SMOOTH",
"320 -24 OFFCURVE",
"160 130 OFFCURVE",
"208 432 CURVE SMOOTH",
"252 709 OFFCURVE",
"480 947 OFFCURVE",
"788 947 CURVE SMOOTH",
"945 947 OFFCURVE",
"1015 880 OFFCURVE",
"1015 880 CURVE",
"950 602 LINE",
"854 615 LINE"
);
},
{
closed = 1;
nodes = (
"60 312 LINE",
"86 411 LINE",
"691 411 LINE",
"654 312 LINE"
);
},
{
closed = 1;
nodes = (
"88 487 LINE",
"113 586 LINE",
"758 586 LINE",
"721 487 LINE"
);
}
);
width = 1161;
}
);
userData = {
com.fontlab.hintData = {
hhints = (
{
position = -24;
width = 127;
},
{
position = 312;
width = 99;
},
{
position = 487;
width = 99;
},
{
position = 852;
width = 95;
}
);
vhints = (
{
position = 854;
width = 96;
}
);
};
};
},
{
color = 4;
glyphname = sterling.osf;
lastChange = "2016-09-14 15:00:45 +0000";
layers = (
{
layerId = "F2FC958C-67D2-45D4-A67F-FC49D9225D80";
paths = (
{
closed = 1;
nodes = (
"110 0 LINE",
"128 74 LINE",
"302 113 LINE",
"342 174 OFFCURVE",
"364 253 OFFCURVE",
"377 334 CURVE SMOOTH",
"388 406 LINE",
"209 396 LINE",
"235 488 LINE",
"407 498 LINE",
"427 611 LINE SMOOTH",
"468 834 OFFCURVE",
"617 949 OFFCURVE",
"832 948 CURVE SMOOTH",
"1021 947 OFFCURVE",
"1102 880 OFFCURVE",
"1085 771 CURVE SMOOTH",
"1073 693 OFFCURVE",
"983 652 OFFCURVE",
"916 647 CURVE",
"918 796 OFFCURVE",
"889 863 OFFCURVE",
"801 863 CURVE SMOOTH",
"666 863 OFFCURVE",
"640 791 OFFCURVE",
"603 560 CURVE SMOOTH",
"594 506 LINE",
"833 520 LINE",
"809 429 LINE",
"577 412 LINE",
"573 388 LINE SMOOTH",
"552 258 OFFCURVE",
"518 153 OFFCURVE",
"464 98 CURVE",
"837 98 LINE",
"981 334 LINE",
"1060 313 LINE",
"985 0 LINE"
);
}
);
width = 1283;
}
);
userData = {
com.fontlab.hintData = {
hhints = (
{
position = 0;
width = 98;
},
{
position = 0;
width = 74;
},
{
position = 863;
width = 85;
}
);
vhints = (
{
position = 916;
width = 169;
}
);
};
};
},
{
color = 4;
glyphname = yen.osf;
lastChange = "2016-09-14 15:00:45 +0000";
layers = (
{
layerId = "F2FC958C-67D2-45D4-A67F-FC49D9225D80";
paths = (
{
closed = 1;
nodes = (
"292 854 LINE",
"317 930 LINE",
"757 930 LINE",
"734 854 LINE",
"615 816 LINE",
"719 420 LINE",
"965 813 LINE",
"834 854 LINE",
"856 930 LINE",
"1232 930 LINE",
"1210 854 LINE",
"1081 816 LINE",
"802 393 LINE",
"1103 393 LINE",
"1077 295 LINE",
"760 295 LINE",
"731 113 LINE",
"889 78 LINE",
"867 0 LINE",
"367 0 LINE",
"388 71 LINE",
"545 119 LINE",
"573 295 LINE",
"266 295 LINE",
"294 393 LINE",
"561 393 LINE",
"422 813 LINE"
);
},
{
closed = 1;
nodes = (
"298 498 LINE",
"326 596 LINE",
"609 596 LINE",
"633 498 LINE"
);
},
{
closed = 1;
nodes = (
"800 498 LINE",
"858 596 LINE",
"1135 596 LINE",
"1109 498 LINE"
);
}
);
width = 1170;
}
);
userData = {
com.fontlab.hintData = {
hhints = (
{
position = 0;
width = 78;
},
{
position = 295;
width = 98;
},
{
position = 498;
width = 98;
},
{
position = 854;
width = 76;
}
);
};
};
},
{
color = 4;
glyphname = plus;
lastChange = "2016-09-14 15:00:45 +0000";
layers = (
{
layerId = "F2FC958C-67D2-45D4-A67F-FC49D9225D80";
paths = (
{
closed = 1;
nodes = (
"50 409 LINE",
"62 510 LINE",
"271 510 LINE",
"271 741 LINE",
"380 729 LINE",
"381 510 LINE",
"601 510 LINE",
"589 409 LINE",
"381 409 LINE",
"383 174 LINE",
"271 185 LINE",
"271 409 LINE"
);
}
);
width = 653;
}
);
unicode = 002B;
},
{
color = 4;
glyphname = multiply;
lastChange = "2016-09-14 15:00:45 +0000";
layers = (
{
layerId = "F2FC958C-67D2-45D4-A67F-FC49D9225D80";
paths = (
{
closed = 1;
nodes = (
"51 310 LINE",
"207 462 LINE",
"51 619 LINE",
"135 685 LINE",
"288 532 LINE",
"453 692 LINE",
"518 608 LINE",
"362 458 LINE",
"521 297 LINE",
"438 231 LINE",
"282 388 LINE",
"118 228 LINE"
);
}
);
width = 570;
}
);
unicode = 00D7;
},
{
color = 4;
glyphname = divide;
lastChange = "2016-09-14 15:00:45 +0000";
layers = (
{
layerId = "F2FC958C-67D2-45D4-A67F-FC49D9225D80";
paths = (
{
closed = 1;
nodes = (
"48 454 LINE",
"60 560 LINE",
"872 560 LINE",
"861 454 LINE"
);
},
{
closed = 1;
nodes = (
"334 228 CURVE SMOOTH",
"334 292 OFFCURVE",
"389 341 OFFCURVE",
"453 341 CURVE SMOOTH",
"519 341 OFFCURVE",
"574 291 OFFCURVE",
"574 227 CURVE SMOOTH",
"574 160 OFFCURVE",
"519 104 OFFCURVE",
"453 104 CURVE SMOOTH",
"387 104 OFFCURVE",
"334 161 OFFCURVE"
);
},
{
closed = 1;
nodes = (
"334 790 CURVE SMOOTH",
"334 854 OFFCURVE",
"389 903 OFFCURVE",
"453 903 CURVE SMOOTH",
"519 903 OFFCURVE",
"574 853 OFFCURVE",
"574 789 CURVE SMOOTH",
"574 722 OFFCURVE",
"519 666 OFFCURVE",
"453 666 CURVE SMOOTH",
"387 666 OFFCURVE",
"334 723 OFFCURVE"
);
}
);
width = 919;
}
);
unicode = 00F7;
},
{
color = 4;
glyphname = equal;
lastChange = "2016-09-14 15:00:45 +0000";
layers = (
{
layerId = "F2FC958C-67D2-45D4-A67F-FC49D9225D80";
paths = (
{
closed = 1;
nodes = (
"60 319 LINE",
"70 424 LINE",
"725 424 LINE",
"714 319 LINE"
);
},
{
closed = 1;
nodes = (
"63 559 LINE",
"73 663 LINE",
"729 663 LINE",
"717 559 LINE"
);
}
);
width = 792;
}
);
unicode = 003D;
},
{
color = 4;
glyphname = greater;
lastChange = "2016-09-14 15:00:45 +0000";
layers = (
{
layerId = "F2FC958C-67D2-45D4-A67F-FC49D9225D80";
paths = (
{
closed = 1;
nodes = (
"43 -13 LINE",
"503 434 LINE",
"63 900 LINE",
"119 973 LINE",
"739 472 LINE",
"740 415 LINE",
"106 -83 LINE"
);
}
);
width = 789;
}
);
unicode = 003E;
},
{
color = 4;
glyphname = plusminus;
lastChange = "2016-09-14 15:00:45 +0000";
layers = (
{
components = (
{
name = plus;
transform = "{1, 0, 0, 1, 8, 81}";
}
);
layerId = "F2FC958C-67D2-45D4-A67F-FC49D9225D80";
paths = (
{
closed = 1;
nodes = (
"68 117 LINE",
"679 124 LINE",
"663 20 LINE",
"51 13 LINE"
);
}
);
width = 729;
}
);
unicode = 00B1;
},
{
color = 4;
glyphname = asciitilde;
lastChange = "2016-09-14 15:00:45 +0000";
layers = (
{
layerId = "F2FC958C-67D2-45D4-A67F-FC49D9225D80";
paths = (
{
closed = 1;
nodes = (
"55 412 LINE SMOOTH",
"55 412 OFFCURVE",
"114 624 OFFCURVE",
"246 611 CURVE SMOOTH",
"696 566 LINE SMOOTH",
"733 563 OFFCURVE",
"778 628 OFFCURVE",
"778 628 CURVE",
"842 626 LINE SMOOTH",
"842 626 OFFCURVE",
"780 409 OFFCURVE",
"644 424 CURVE SMOOTH",
"194 469 LINE SMOOTH",
"154 473 OFFCURVE",
"110 399 OFFCURVE",
"110 399 CURVE"
);
}
);
width = 896;
}
);
unicode = 007E;
},
{
color = 4;
glyphname = logicalnot;
lastChange = "2016-09-14 15:00:45 +0000";
layers = (
{
layerId = "F2FC958C-67D2-45D4-A67F-FC49D9225D80";
paths = (
{
closed = 1;
nodes = (
"83 664 LINE",
"828 664 LINE",
"780 350 LINE",
"671 332 LINE",
"707 558 LINE",
"55 558 LINE"
);
}
);
width = 886;
}
);
unicode = 00AC;
},
{
color = 4;
glyphname = micro;
lastChange = "2016-09-14 15:00:45 +0000";
layers = (
{
layerId = "F2FC958C-67D2-45D4-A67F-FC49D9225D80";
paths = (
{
closed = 1;
nodes = (
"213 37 LINE",
"206 37 LINE",
"206 19 OFFCURVE",
"207 -28 OFFCURVE",
"201 -86 CURVE SMOOTH",
"171 -388 LINE",
"42 -362 LINE",
"56 -313 OFFCURVE",
"189 255 OFFCURVE",
"227 497 CURVE SMOOTH",
"266 746 LINE",
"135 770 LINE",
"145 844 LINE",
"428 869 LINE",
"447 846 LINE",
"368 375 LINE SMOOTH",
"338 197 OFFCURVE",
"342 117 OFFCURVE",
"433 117 CURVE SMOOTH",
"525 117 OFFCURVE",
"580 167 OFFCURVE",
"613 200 CURVE",
"695 746 LINE",
"561 770 LINE",
"571 844 LINE",
"857 869 LINE",
"877 846 LINE",
"801 370 LINE SMOOTH",
"763 132 OFFCURVE",
"785 104 OFFCURVE",
"831 96 CURVE SMOOTH",
"897 84 LINE",
"879 15 LINE",
"844 2 OFFCURVE",
"792 -17 OFFCURVE",
"738 -17 CURVE SMOOTH",
"650 -17 OFFCURVE",
"599 26 OFFCURVE",
"611 130 CURVE",
"601 130 LINE",
"573 77 OFFCURVE",
"470 -20 OFFCURVE",
"338 -20 CURVE SMOOTH",
"287 -20 OFFCURVE",
"241 -6 OFFCURVE",
"213 38 CURVE"
);
}
);
width = 945;
}
);
unicode = 00B5;
},
{
color = 4;
glyphname = percent;
lastChange = "2016-09-14 15:00:45 +0000";
layers = (
{
layerId = "F2FC958C-67D2-45D4-A67F-FC49D9225D80";
paths = (
{
closed = 1;
nodes = (
"413 1211 CURVE SMOOTH",
"431 1211 OFFCURVE",
"436 1210 OFFCURVE",
"442 1208 CURVE",
"441 1142 LINE",
"427 1148 OFFCURVE",
"417 1154 OFFCURVE",
"398 1154 CURVE SMOOTH",
"300 1154 OFFCURVE",
"248 934 OFFCURVE",
"248 797 CURVE SMOOTH",
"248 716 OFFCURVE",
"267 649 OFFCURVE",
"320 649 CURVE SMOOTH",
"446 649 OFFCURVE",
"482 945 OFFCURVE",
"482 1094 CURVE SMOOTH",
"482 1136 OFFCURVE",
"479 1171 OFFCURVE",
"474 1198 CURVE",
"1033 1210 LINE",
"1029 1121 LINE",
"592 1137 LINE",
"623 1099 OFFCURVE",
"632 1015 OFFCURVE",
"632 953 CURVE SMOOTH",
"632 748 OFFCURVE",
"440 583 OFFCURVE",
"310 583 CURVE SMOOTH",
"196 583 OFFCURVE",
"87 682 OFFCURVE",
"87 840 CURVE SMOOTH",
"87 1043 OFFCURVE",
"276 1211 OFFCURVE"
);
},
{
closed = 1;
nodes = (
"42 -10 LINE",
"544 588 LINE",
"1033 1210 LINE",
"1199 1207 LINE",
"1192 1178 LINE",
"698 591 LINE",
"229 -32 LINE"
);
},
{
closed = 1;
nodes = (
"931 590 CURVE SMOOTH",
"1057 590 OFFCURVE",
"1150 483 OFFCURVE",
"1150 334 CURVE SMOOTH",
"1150 131 OFFCURVE",
"967 -36 OFFCURVE",
"835 -36 CURVE SMOOTH",
"721 -36 OFFCURVE",
"607 63 OFFCURVE",
"607 221 CURVE SMOOTH",
"607 422 OFFCURVE",
"796 590 OFFCURVE"
);
},
{
closed = 1;
nodes = (
"769 187 CURVE SMOOTH",
"769 103 OFFCURVE",
"791 32 OFFCURVE",
"846 32 CURVE SMOOTH",
"949 32 OFFCURVE",
"995 243 OFFCURVE",
"995 386 CURVE SMOOTH",
"995 467 OFFCURVE",
"976 534 OFFCURVE",
"922 534 CURVE SMOOTH",
"821 534 OFFCURVE",
"769 324 OFFCURVE"
);
}
);
width = 1241;
}
);
unicode = 0025;
},
{
color = 4;
glyphname = percent.osf;
lastChange = "2016-09-14 15:00:45 +0000";
layers = (
{
layerId = "F2FC958C-67D2-45D4-A67F-FC49D9225D80";
paths = (
{
closed = 1;
nodes = (
"73 683 CURVE SMOOTH",
"96 826 OFFCURVE",
"247 934 OFFCURVE",
"358 934 CURVE SMOOTH",
"374 934 OFFCURVE",
"378 933 OFFCURVE",
"383 931 CURVE",
"382 862 LINE",
"370 868 OFFCURVE",
"359 873 OFFCURVE",
"342 873 CURVE SMOOTH",
"271 873 OFFCURVE",
"237 775 OFFCURVE",
"222 683 CURVE SMOOTH",
"207 590 OFFCURVE",
"218 499 OFFCURVE",
"285 499 CURVE SMOOTH",
"361 499 OFFCURVE",
"393 587 OFFCURVE",
"408 683 CURVE SMOOTH",
"427 804 OFFCURVE",
"422 870 OFFCURVE",
"412 922 CURVE",
"964 932 LINE",
"959 844 LINE",
"517 859 LINE",
"556 818 OFFCURVE",
"563 723 OFFCURVE",
"557 683 CURVE SMOOTH",
"534 537 OFFCURVE",
"379 431 OFFCURVE",
"274 431 CURVE SMOOTH",
"160 431 OFFCURVE",
"47 521 OFFCURVE"
);
},
{
closed = 1;
nodes = (
"45 -9 LINE",
"504 440 LINE",
"964 932 LINE",
"1136 929 LINE",
"1131 904 LINE",
"667 443 LINE",
"237 -27 LINE"
);
},
{
closed = 1;
nodes = (
"625 220 CURVE SMOOTH",
"648 363 OFFCURVE",
"797 470 OFFCURVE",
"908 470 CURVE SMOOTH",
"1035 470 OFFCURVE",
"1129 369 OFFCURVE",
"1105 217 CURVE SMOOTH",
"1082 74 OFFCURVE",
"935 -30 OFFCURVE",
"830 -30 CURVE SMOOTH",
"716 -30 OFFCURVE",
"599 58 OFFCURVE"
);
},
{
closed = 1;
nodes = (
"774 220 CURVE SMOOTH",
"759 127 OFFCURVE",
"774 39 OFFCURVE",
"841 39 CURVE SMOOTH",
"917 39 OFFCURVE",
"947 126 OFFCURVE",
"962 222 CURVE SMOOTH",
"977 318 OFFCURVE",
"968 411 OFFCURVE",
"899 411 CURVE SMOOTH",
"823 411 OFFCURVE",
"789 312 OFFCURVE"
);
}
);
width = 1046;
}
);
userData = {
com.fontlab.hintData = {
hhints = (
{
position = -30;
width = 69;
},
{
position = -27;
width = 21;
},
{
position = 411;
width = 59;
},
{
position = 431;
width = 68;
},
{
position = 873;
width = 61;
}
);
};
};
},
{
color = 4;
glyphname = lozenge;
lastChange = "2016-09-14 15:00:45 +0000";
layers = (
{
layerId = "F2FC958C-67D2-45D4-A67F-FC49D9225D80";
paths = (
{
closed = 1;
nodes = (
"148 474 LINE",
"472 799 LINE",
"796 472 LINE",
"474 135 LINE"
);
}
);
width = 943;
}
);
unicode = 25CA;
userData = {
com.fontlab.hintData = {
hhints = (
{
position = 135;
width = 664;
}
);
vhints = (
{
position = 148;
width = 648;
}
);
};
};
},
